<?xml version="1.0" encoding="UTF-8" standalone="no"?>
<!DOCTYPE svg PUBLIC "-//W3C//DTD SVG 1.1//EN" "http://www.w3.org/Graphics/SVG/1.1/DTD/svg11.dtd">
<svg width="100%" height="100%" viewBox="0 0 3840 2160" version="1.1" xmlns="http://www.w3.org/2000/svg" xmlns:xlink="http://www.w3.org/1999/xlink" xml:space="preserve" xmlns:serif="http://www.serif.com/" style="fill-rule:evenodd;clip-rule:evenodd;stroke-linejoin:round;stroke-miterlimit:2;">
    <g id="KAMIL" transform="matrix(0.818943,0,0,0.818943,-278.28368,303.74904)">
        <path d="M1135.64,1292.001C1135.64,1300.983 1133.582,1310.714 1129.465,1321.193C1125.348,1331.672 1119.547,1341.029 1112.062,1349.262C1104.577,1357.496 1095.969,1364.42 1086.238,1370.034C1076.508,1375.648 1066.403,1378.454 1055.923,1378.454C1043.198,1378.454 1033.655,1375.273 1027.292,1368.911C1020.93,1362.548 1017.749,1354.502 1017.749,1344.771C1017.749,1334.292 1019.994,1325.684 1024.485,1318.947C1028.977,1312.211 1033.842,1305.848 1039.082,1299.86C1044.321,1293.872 1049.187,1288.071 1053.678,1282.457C1058.169,1276.843 1060.414,1270.294 1060.414,1262.808C1060.414,1256.072 1057.795,1249.709 1052.555,1243.721C1047.315,1237.733 1039.082,1234.739 1027.854,1234.739C1015.878,1234.739 1004.65,1237.172 994.17,1242.037C983.691,1246.902 974.335,1249.335 966.101,1249.335C957.119,1249.335 950.569,1246.902 946.452,1242.037C942.336,1237.172 940.277,1231.371 940.277,1224.634C940.277,1214.903 946.078,1205.36 957.68,1196.003C969.282,1186.647 983.691,1176.916 1000.907,1166.811C1018.123,1156.706 1036.649,1146.039 1056.485,1134.812C1076.32,1123.584 1094.846,1111.795 1112.062,1099.444C1129.278,1087.094 1143.687,1073.807 1155.289,1059.586C1166.891,1045.364 1172.692,1030.393 1172.692,1014.674C1172.692,998.956 1167.265,985.482 1156.412,974.254C1145.558,963.027 1128.155,957.413 1104.203,957.413C1089.232,957.413 1074.823,958.91 1060.976,961.904C1047.128,964.898 1033.842,968.079 1021.117,971.448C1008.392,974.816 996.042,977.997 984.065,980.991C972.089,983.985 960.487,985.482 949.259,985.482C939.529,985.482 931.669,983.985 925.681,980.991C919.693,977.997 915.95,972.383 914.453,964.149C912.208,945.437 932.418,929.343 975.083,915.87C984.065,912.876 993.235,910.63 1002.591,909.133C1011.948,907.636 1021.117,905.765 1030.099,903.519C1039.082,901.274 1047.69,898.093 1055.923,893.976C1064.157,889.859 1071.642,884.432 1078.379,877.696C1091.104,862.725 1098.027,844.761 1099.15,823.802C1100.273,802.844 1102.331,781.885 1105.325,760.927C1111.314,726.495 1118.986,702.168 1128.342,687.946C1137.699,673.724 1150.985,666.613 1168.201,666.613C1176.435,666.613 1183.359,669.42 1188.972,675.034C1194.586,680.648 1197.393,688.695 1197.393,699.174C1197.393,708.905 1194.773,719.01 1189.534,729.489C1184.294,739.968 1178.306,750.635 1171.569,761.488C1164.833,772.342 1158.845,783.382 1153.605,794.61C1148.365,805.838 1145.745,817.44 1145.745,829.416C1145.745,853.369 1153.418,870.398 1168.762,880.503C1184.107,890.608 1202.633,895.66 1224.34,895.66C1240.059,895.66 1255.216,892.292 1269.812,885.555C1284.409,878.818 1296.946,869.836 1307.425,858.608C1317.905,847.381 1326.326,834.469 1332.688,819.873C1339.05,805.276 1342.232,790.493 1342.232,775.523C1342.232,763.547 1338.489,753.254 1331.004,744.646C1323.519,736.038 1313.414,731.734 1300.689,731.734C1285.718,731.734 1274.491,736.787 1267.005,746.892C1259.52,756.997 1255.778,769.909 1255.778,785.628C1255.778,792.364 1254.842,800.785 1252.971,810.89C1251.099,820.995 1247.918,830.726 1243.427,840.083C1238.936,849.439 1232.948,857.486 1225.463,864.222C1217.977,870.959 1208.995,874.327 1198.516,874.327C1188.785,874.327 1179.803,870.585 1171.569,863.099C1163.336,855.614 1159.219,844.012 1159.219,828.293C1159.219,811.077 1166.143,794.984 1179.99,780.014C1193.838,765.044 1208.995,749.512 1225.463,733.419C1241.93,717.326 1257.088,699.735 1270.935,680.648C1284.783,661.561 1291.707,639.292 1291.707,613.843C1291.707,595.13 1285.718,580.534 1273.742,570.055C1261.766,559.575 1246.795,554.336 1228.831,554.336C1209.37,554.336 1192.341,560.137 1177.745,571.739C1163.149,583.341 1150.237,598.124 1139.009,616.088C1127.781,634.053 1117.863,653.889 1109.255,675.596C1100.647,697.303 1092.039,718.823 1083.431,740.155C1074.823,761.488 1066.028,781.137 1057.046,799.101C1048.064,817.066 1037.959,830.913 1026.731,840.644C990.802,871.333 958.429,895.099 929.611,911.94C900.793,928.782 876.279,942.255 856.069,952.36C835.859,962.465 820.327,971.448 809.474,979.307C798.62,987.166 792.819,997.833 792.07,1011.306C790.573,1024.031 794.129,1033.2 802.737,1038.814C811.345,1044.428 821.263,1047.235 832.49,1047.235C845.964,1047.235 859.999,1044.241 874.595,1038.253C889.191,1032.265 904.348,1025.715 920.067,1018.604C935.786,1011.493 952.253,1004.944 969.469,998.956C986.685,992.967 1004.275,989.973 1022.24,989.973C1046.941,989.973 1064.905,996.523 1076.133,1009.622C1087.361,1022.721 1092.975,1036.756 1092.975,1051.726C1092.975,1067.445 1087.548,1081.293 1076.695,1093.269C1065.841,1105.245 1052.368,1116.66 1036.275,1127.514C1020.181,1138.367 1002.404,1149.221 982.943,1160.074C963.481,1170.928 945.143,1183.091 927.927,1196.564C910.711,1210.038 895.927,1225.382 883.577,1242.598C871.226,1259.814 863.554,1280.024 860.56,1303.228C859.063,1317.45 860.373,1331.111 864.49,1344.21C868.607,1357.309 875.343,1368.911 884.7,1379.016C894.056,1389.121 906.22,1397.355 921.19,1403.717C936.16,1410.079 953.75,1413.261 973.96,1413.261C1009.141,1413.261 1041.889,1405.401 1072.204,1389.682C1102.519,1373.963 1128.717,1354.502 1150.798,1331.298C1172.879,1308.094 1190.095,1283.393 1202.446,1257.194C1214.796,1230.996 1220.972,1207.792 1220.972,1187.582C1220.972,1172.612 1216.106,1160.074 1206.375,1149.969C1196.645,1139.864 1184.668,1134.812 1170.447,1134.812C1157.722,1134.812 1145.558,1139.864 1133.956,1149.969C1122.354,1160.074 1116.553,1174.857 1116.553,1194.319C1116.553,1204.05 1117.489,1212.658 1119.36,1220.143C1121.231,1227.628 1123.477,1234.926 1126.097,1242.037C1128.717,1249.148 1130.962,1256.446 1132.834,1263.931C1134.705,1271.416 1135.64,1280.773 1135.64,1292.001ZM662.951,817.066C653.969,817.066 646.297,818.001 639.934,819.873C633.572,821.744 627.771,823.615 622.531,825.486C617.291,827.358 612.239,829.229 607.374,831.1C602.508,832.972 597.081,833.907 591.093,833.907C571.632,833.907 557.597,827.545 548.989,814.82C540.381,802.095 536.077,789.37 536.077,776.646C536.077,762.424 540.194,750.822 548.428,741.839C556.661,732.857 566.392,728.366 577.62,728.366C591.093,728.366 602.695,731.734 612.426,738.471C622.157,745.208 631.139,752.88 639.373,761.488C647.606,770.096 655.653,777.768 663.512,784.505C671.372,791.242 680.915,794.61 692.143,794.61C704.12,794.61 712.915,788.996 718.529,777.768C724.142,766.541 728.634,752.693 732.002,736.226C735.37,719.758 738.551,701.794 741.545,682.332C744.54,662.871 749.031,644.906 755.019,628.439C761.007,611.972 769.428,598.124 780.281,586.896C791.135,575.668 806.667,570.055 826.877,570.055C844.093,570.055 857.753,573.423 867.858,580.16C877.963,586.896 883.015,595.504 883.015,605.983C883.015,615.714 877.776,625.632 867.297,635.737C856.817,645.842 845.402,655.76 833.052,665.491C820.701,675.221 809.286,685.139 798.807,695.244C788.328,705.349 783.463,715.267 784.211,724.998C784.96,736.226 789.076,743.149 796.562,745.769C804.047,748.389 812.093,749.886 820.701,750.26C829.309,750.635 837.169,751.383 844.28,752.506C851.391,753.629 854.946,758.681 854.946,767.663C854.946,783.382 850.642,798.166 842.034,812.013C833.426,825.861 822.573,839.521 809.474,852.994C796.374,866.468 782.153,880.128 766.808,893.976C751.463,907.823 737.054,922.42 723.581,937.764C710.108,953.109 698.693,969.763 689.336,987.728C679.98,1005.692 674.927,1025.154 674.179,1046.112C673.43,1076.053 675.114,1100.754 679.231,1120.216C683.348,1139.677 688.214,1157.08 693.827,1172.425C699.441,1187.769 704.681,1202.74 709.546,1217.336C714.412,1231.932 716.844,1249.335 716.844,1269.545C716.844,1286.012 713.289,1302.293 706.178,1318.386C699.067,1334.479 690.085,1348.888 679.231,1361.613C668.378,1374.338 656.402,1384.443 643.302,1391.928C630.203,1399.413 618.04,1403.156 606.812,1403.156C577.62,1403.156 555.164,1396.793 539.446,1384.068C523.727,1371.344 515.867,1357.496 515.867,1342.526C515.867,1331.298 521.294,1322.128 532.147,1315.018C543.001,1307.907 554.79,1300.796 567.515,1293.685C580.24,1286.574 592.029,1278.34 602.882,1268.984C613.736,1259.627 619.163,1246.715 619.163,1230.248C619.163,1215.277 614.297,1201.991 604.567,1190.389C594.836,1178.787 580.988,1172.986 563.024,1172.986C551.796,1172.986 541.13,1175.98 531.025,1181.968C520.92,1187.957 511.75,1196.19 503.517,1206.669C495.283,1217.149 488.733,1228.938 483.868,1242.037C479.003,1255.136 476.57,1269.171 476.57,1284.141C476.57,1298.363 478.816,1312.959 483.307,1327.929C487.798,1342.9 495.096,1356.56 505.201,1368.911C515.306,1381.261 528.779,1391.554 545.621,1399.787C562.462,1408.021 583.234,1412.138 607.935,1412.138C637.876,1412.138 666.694,1406.15 694.389,1394.173C722.084,1382.197 746.411,1367.04 767.369,1348.701C788.328,1330.362 804.982,1309.591 817.333,1286.387C829.684,1263.183 835.859,1240.353 835.859,1217.897C835.859,1202.178 832.303,1189.641 825.192,1180.284C818.082,1170.928 809.286,1162.694 798.807,1155.583C788.328,1148.472 776.913,1141.923 764.562,1135.934C752.212,1129.946 740.797,1122.835 730.318,1114.602C719.838,1106.368 711.043,1096.076 703.932,1083.725C696.822,1071.375 693.266,1055.469 693.266,1036.007C693.266,1018.791 700.003,1002.137 713.476,986.044C726.949,969.951 743.791,953.67 764.001,937.203C784.211,920.735 806.105,903.894 829.684,886.678C853.262,869.462 875.156,851.123 895.366,831.662C915.576,812.2 932.418,791.242 945.891,768.786C959.364,746.331 966.101,722.004 966.101,695.806C966.101,652.392 954.125,617.96 930.172,592.51C906.22,567.06 875.156,554.336 836.982,554.336C810.783,554.336 790.386,560.511 775.79,572.861C761.194,585.212 749.218,599.621 739.861,616.088C730.505,632.556 722.084,648.836 714.599,664.929C707.114,681.022 697.009,692.812 684.284,700.297C669.313,709.279 652.285,714.519 633.197,716.016C614.11,717.513 595.959,718.261 578.743,718.261C563.772,718.261 550.86,723.314 540.007,733.419C529.153,743.524 523.727,758.681 523.727,778.891C523.727,796.856 526.908,815.007 533.27,833.346C539.633,851.685 548.615,868.339 560.217,883.309C571.819,898.28 585.667,910.63 601.76,920.361C617.853,930.092 635.63,934.957 655.092,934.957C674.553,934.957 690.272,928.408 702.248,915.309C714.225,902.21 720.213,888.549 720.213,874.327C720.213,861.602 715.722,848.878 706.739,836.153C697.757,823.428 683.161,817.066 662.951,817.066Z" style="fill:rgb(255,0,40);fill-rule:nonzero;"/>
        <path d="M1889.024,1393.051C1887.527,1393.051 1886.779,1393.799 1886.779,1395.296L1886.779,1397.542C1886.779,1399.039 1887.527,1399.787 1889.024,1399.787L2185.438,1399.787C2187.683,1399.787 2188.806,1399.039 2188.806,1397.542L2188.806,1395.296C2188.806,1393.799 2187.683,1393.051 2185.438,1393.051L2150.632,1393.051C2127.427,1393.051 2111.147,1388.934 2101.791,1380.7C2092.434,1372.466 2084.762,1358.993 2078.774,1340.28C2041.348,1225.008 2006.542,1109.736 1974.355,994.464C1942.169,879.193 1910.357,763.172 1878.919,646.403C1874.428,630.685 1874.428,617.585 1878.919,607.106C1883.41,596.627 1893.89,591.387 1910.357,591.387L1977.724,591.387C1979.969,591.387 1981.092,590.265 1981.092,588.019L1981.092,586.896C1981.092,585.399 1979.969,584.651 1977.724,584.651L1528.613,584.651C1525.619,584.651 1524.122,585.399 1524.122,586.896L1524.122,588.019C1524.122,590.265 1525.619,591.387 1528.613,591.387L1611.698,591.387C1626.669,591.387 1634.154,598.124 1634.154,611.597C1634.154,617.585 1633.405,623.386 1631.908,629C1630.411,634.614 1627.791,642.661 1624.049,653.14C1617.312,670.356 1609.266,690.753 1599.909,714.331C1590.553,737.91 1581.009,762.049 1571.278,786.751C1561.547,811.452 1552.191,835.404 1543.209,858.608C1534.227,881.812 1526.367,902.022 1519.63,919.238C1505.409,955.916 1491,991.845 1476.403,1027.025C1461.807,1062.205 1448.895,1095.702 1437.668,1127.514C1426.44,1159.326 1417.271,1189.266 1410.16,1217.336C1403.049,1245.405 1399.493,1271.042 1399.493,1294.246C1399.493,1333.918 1409.224,1362.736 1428.685,1380.7C1448.147,1398.664 1472.474,1407.647 1501.666,1407.647C1525.619,1407.647 1547.326,1401.097 1566.787,1387.998C1586.249,1374.899 1604.774,1358.432 1622.365,1338.596C1639.955,1318.76 1656.796,1297.427 1672.89,1274.598C1688.983,1251.768 1705.637,1230.435 1722.853,1210.599C1740.069,1190.763 1758.221,1174.296 1777.308,1161.197C1796.395,1148.098 1817.167,1141.548 1839.622,1141.548C1875.551,1141.548 1903.246,1152.028 1922.708,1172.986C1942.169,1193.945 1956.391,1217.897 1965.373,1244.844C1971.361,1261.311 1976.04,1277.03 1979.408,1292.001C1982.776,1306.971 1986.332,1320.444 1990.074,1332.421C1991.571,1339.157 1992.133,1346.268 1991.758,1353.753C1991.384,1361.239 1989.139,1367.788 1985.022,1373.402C1980.905,1379.016 1974.168,1383.694 1964.812,1387.437C1955.455,1391.179 1942.918,1393.051 1927.199,1393.051L1889.024,1393.051ZM1590.365,937.203C1633.031,937.203 1664.095,946.746 1683.556,965.834C1703.017,984.921 1712.748,1015.797 1712.748,1058.463L1712.748,1175.232C1696.281,1187.208 1680.188,1199.933 1664.469,1213.406C1648.75,1226.879 1633.405,1239.23 1618.435,1250.458C1603.465,1261.686 1588.868,1270.855 1574.647,1277.966C1560.425,1285.077 1546.203,1288.632 1531.981,1288.632C1511.022,1288.632 1491.935,1282.083 1474.719,1268.984C1457.503,1255.885 1448.895,1233.99 1448.895,1203.301C1448.895,1184.588 1452.077,1163.068 1458.439,1138.741C1464.801,1114.415 1472.287,1089.901 1480.895,1065.199C1489.503,1040.498 1498.298,1016.92 1507.28,994.464C1516.262,972.009 1523.747,952.922 1529.735,937.203L1590.365,937.203ZM1634.154,665.491C1643.136,643.035 1654.551,628.439 1668.398,621.702C1682.246,614.966 1697.029,611.223 1712.748,610.475L1712.748,805.838C1712.748,850 1703.392,881.812 1684.679,901.274C1665.966,920.735 1634.528,930.466 1590.365,930.466L1531.981,930.466C1543.209,901.274 1554.437,871.895 1565.664,842.328C1576.892,812.762 1587.371,785.628 1597.102,760.927C1606.833,736.226 1614.879,715.267 1621.242,698.051C1627.604,680.835 1631.908,669.982 1634.154,665.491ZM1914.848,1064.077C1916.345,1069.316 1917.842,1075.679 1919.339,1083.164C1920.836,1090.649 1921.772,1097.76 1922.146,1104.497C1922.521,1111.233 1922.146,1117.409 1921.023,1123.023C1919.901,1128.636 1917.468,1132.566 1913.725,1134.812C1912.228,1135.56 1909.609,1135.934 1905.866,1135.934C1898.381,1135.934 1889.586,1134.25 1879.481,1130.882C1869.376,1127.514 1855.715,1125.829 1838.499,1125.829C1817.541,1125.829 1797.331,1130.133 1777.869,1138.741C1758.408,1147.349 1738.946,1158.016 1719.485,1170.741L1719.485,1058.463C1719.485,1015.049 1728.654,983.985 1746.993,965.272C1765.332,946.559 1796.582,937.203 1840.745,937.203L1880.042,937.203C1886.03,958.161 1891.831,979.307 1897.445,1000.64C1903.059,1021.973 1908.86,1043.118 1914.848,1064.077ZM1840.745,930.466C1798.079,930.466 1767.203,920.361 1748.116,900.151C1729.028,879.941 1719.485,848.503 1719.485,805.838L1719.485,610.475C1745.683,611.223 1765.144,616.837 1777.869,627.316C1790.594,637.795 1799.576,652.017 1804.816,669.982C1813.05,698.425 1823.529,735.477 1836.254,781.137C1848.979,826.796 1862.826,876.573 1877.797,930.466L1840.745,930.466Z" style="fill:rgb(255,0,40);fill-rule:nonzero;"/>
        <path d="M3093.765,701.42L3097.133,701.42L3097.133,663.245C3097.133,639.292 3102.373,621.889 3112.852,611.036C3123.331,600.182 3140.547,594.756 3164.5,594.756L3198.183,594.756L3198.183,591.387L3164.5,591.387C3140.547,591.387 3123.331,586.148 3112.852,575.668C3102.373,565.189 3097.133,547.973 3097.133,524.021L3097.133,483.601L3093.765,483.601L3093.765,524.021C3093.765,530.757 3093.016,537.868 3091.519,545.353C3090.022,552.839 3087.402,559.388 3083.66,565.002C3079.917,570.616 3074.49,575.294 3067.38,579.037C3060.269,582.779 3051.099,584.651 3039.871,584.651L2906.261,584.651L2707.529,1112.356C2700.793,1097.386 2692.372,1078.299 2682.267,1055.094C2672.162,1031.89 2660.934,1006.441 2648.583,978.746C2636.233,951.05 2623.321,922.045 2609.848,891.73C2596.374,861.415 2583.275,831.662 2570.55,802.469C2540.61,734.354 2508.423,661.748 2473.991,584.651L2337.013,584.651C2327.282,584.651 2319.61,582.592 2313.996,578.475C2308.382,574.358 2304.078,569.119 2301.084,562.756C2298.09,556.394 2296.218,549.657 2295.47,542.546C2294.721,535.436 2294.347,528.512 2294.347,521.775L2294.347,482.478L2290.979,482.478L2290.979,521.775C2290.979,545.728 2285.739,562.944 2275.26,573.423C2264.781,583.902 2247.565,589.142 2223.612,589.142L2183.192,589.142L2183.192,592.51L2223.612,592.51C2247.565,592.51 2264.781,597.937 2275.26,608.79C2285.739,619.644 2290.979,637.047 2290.979,661L2290.979,700.297L2294.347,700.297L2294.347,661C2294.347,647.526 2297.341,633.866 2303.329,620.018C2309.317,606.171 2320.545,599.247 2337.013,599.247L2356.1,599.247C2373.316,599.995 2384.169,606.358 2388.66,618.334C2393.151,630.31 2393.151,645.655 2388.66,664.368C2362.462,773.652 2335.516,884.058 2307.82,995.587C2280.125,1107.117 2253.179,1217.523 2226.98,1326.807C2220.992,1350.011 2212.571,1366.852 2201.718,1377.332C2190.864,1387.811 2174.21,1393.051 2151.754,1393.051L2118.071,1393.051C2115.825,1393.051 2114.703,1393.799 2114.703,1395.296L2114.703,1397.542C2114.703,1399.039 2115.825,1399.787 2118.071,1399.787L2342.626,1399.787C2344.872,1399.787 2345.995,1399.039 2345.995,1397.542L2345.995,1395.296C2345.995,1393.799 2344.872,1393.051 2342.626,1393.051L2308.943,1393.051C2264.032,1393.051 2246.068,1371.344 2255.05,1327.929C2281.248,1220.143 2308.382,1109.175 2336.451,995.026C2364.521,880.877 2391.654,769.909 2417.853,662.122L2643.531,1175.232C2635.297,1180.471 2625.379,1184.588 2613.777,1187.582C2602.175,1190.576 2587.766,1192.073 2570.55,1192.073L2504.306,1192.073L2504.306,1197.687L2569.428,1197.687C2609.848,1197.687 2638.478,1206.482 2655.32,1224.073C2672.162,1241.663 2681.331,1270.294 2682.828,1309.965L2682.828,1359.367L2688.442,1359.367L2688.442,1311.088C2688.442,1270.668 2697.05,1242.037 2714.266,1225.195C2731.482,1208.354 2760.3,1199.184 2800.72,1197.687L2866.964,1197.687L2866.964,1192.073L2801.843,1192.073C2780.136,1192.073 2762.545,1189.828 2749.072,1185.337C2735.599,1180.846 2724.745,1174.857 2716.511,1167.372L2915.243,632.93C2939.944,731.734 2963.148,826.048 2984.855,915.87C2993.838,954.044 3003.381,992.967 3013.486,1032.639C3023.591,1072.31 3033.135,1110.485 3042.117,1147.162C3051.099,1183.84 3059.52,1218.084 3067.38,1249.896C3075.239,1281.708 3081.788,1308.842 3087.028,1331.298C3088.525,1338.034 3089.274,1345.145 3089.274,1352.631C3089.274,1360.116 3087.215,1366.852 3083.098,1372.841C3078.982,1378.829 3072.432,1383.694 3063.45,1387.437C3054.468,1391.179 3042.117,1393.051 3026.398,1393.051L2978.119,1393.051C2975.125,1393.051 2973.628,1393.799 2973.628,1395.296L2973.628,1397.542C2973.628,1399.039 2975.125,1399.787 2978.119,1399.787L3290.251,1399.787C3293.245,1399.787 3294.742,1399.039 3294.742,1397.542L3294.742,1395.296C3294.742,1393.799 3293.245,1393.051 3290.251,1393.051L3245.34,1393.051C3207.914,1393.051 3184.336,1375.086 3174.605,1339.157C3167.868,1313.708 3160.009,1282.457 3151.026,1245.405C3142.044,1208.354 3132.126,1168.308 3121.273,1125.268C3110.419,1082.228 3099.379,1037.691 3088.151,991.658C3076.923,945.624 3066.07,901.087 3055.59,858.047C3045.111,815.007 3035.38,774.961 3026.398,737.91C3017.416,700.858 3009.931,669.982 3003.943,645.281C3000.948,633.304 3001.884,622.638 3006.75,613.281C3011.615,603.925 3020.41,599.247 3033.135,599.247L3052.222,599.247C3060.456,599.247 3067.38,601.305 3072.993,605.422C3078.607,609.539 3082.911,614.591 3085.905,620.58C3088.899,626.568 3090.958,633.304 3092.081,640.79C3093.203,648.275 3093.765,655.386 3093.765,662.122L3093.765,701.42Z" style="fill:rgb(255,0,40);fill-rule:nonzero;"/>
        <path d="M3451.931,1362.736L3594.524,1185.337L3335.162,1399.787L3657.399,1399.787C3674.615,1399.787 3688.837,1396.98 3700.065,1391.366C3711.293,1385.753 3720.649,1379.577 3728.134,1372.841C3736.368,1365.355 3742.73,1356.747 3747.221,1347.017C3751.713,1356.747 3758.075,1365.355 3766.309,1372.841C3772.297,1379.577 3780.718,1385.753 3791.571,1391.366C3802.425,1396.98 3815.711,1399.787 3831.43,1399.787L4160.404,1399.787L3901.042,1185.337L4043.635,1362.736L3846.026,1362.736C3826.564,1362.736 3809.723,1355.625 3795.501,1341.403C3781.279,1327.181 3774.168,1310.339 3774.168,1290.878L3774.168,694.683C3774.168,674.473 3781.279,657.257 3795.501,643.035C3809.723,628.813 3826.564,621.702 3846.026,621.702L4043.635,621.702L3901.042,800.224L4160.404,584.651L3838.166,584.651C3820.95,584.651 3806.729,587.458 3795.501,593.071C3784.273,598.685 3774.917,604.486 3767.431,610.475C3759.198,618.708 3752.461,627.69 3747.221,637.421C3742.73,627.69 3736.742,618.708 3729.257,610.475C3723.269,604.486 3714.848,598.685 3703.994,593.071C3693.141,587.458 3679.855,584.651 3664.136,584.651L3335.162,584.651L3594.524,800.224L3451.931,621.702L3649.54,621.702C3669.001,621.702 3685.843,628.813 3700.065,643.035C3714.287,657.257 3721.398,674.473 3721.398,694.683L3721.398,1290.878C3721.398,1310.339 3714.287,1327.181 3700.065,1341.403C3685.843,1355.625 3669.001,1362.736 3649.54,1362.736L3451.931,1362.736Z" style="fill:rgb(255,0,40);fill-rule:nonzero;"/>
        <path d="M4195.21,1385.191C4194.461,1388.934 4195.21,1392.302 4197.455,1395.296C4199.701,1398.29 4203.443,1399.787 4208.683,1399.787C4213.174,1399.787 4217.665,1396.793 4222.156,1390.805C4226.647,1384.817 4231.7,1376.957 4237.314,1367.227C4242.928,1357.496 4249.103,1346.83 4255.84,1335.228C4262.576,1323.625 4270.436,1311.836 4279.418,1299.86C4292.891,1281.147 4306.365,1262.995 4319.838,1245.405C4333.311,1227.815 4346.972,1212.096 4360.819,1198.249C4374.667,1184.401 4388.702,1173.36 4402.924,1165.127C4417.145,1156.893 4432.116,1152.776 4447.835,1152.776C4466.548,1152.776 4482.079,1158.016 4494.43,1168.495C4506.781,1178.974 4512.956,1196.19 4512.956,1220.143C4512.956,1229.874 4512.02,1239.043 4510.149,1247.651C4508.278,1256.259 4506.032,1264.68 4503.412,1272.913C4500.792,1281.147 4498.547,1289.568 4496.676,1298.176C4494.804,1306.784 4493.869,1316.702 4493.869,1327.929C4493.869,1345.145 4499.482,1361.426 4510.71,1376.77C4521.938,1392.115 4539.528,1399.787 4563.481,1399.787C4584.439,1399.787 4602.404,1395.109 4617.374,1385.753C4632.344,1376.396 4646.192,1366.104 4658.917,1354.876C4671.642,1343.648 4684.179,1333.356 4696.53,1324C4708.881,1314.643 4722.541,1309.965 4737.511,1309.965C4751.733,1309.965 4763.897,1314.643 4774.002,1324C4784.107,1333.356 4794.773,1343.648 4806.001,1354.876C4817.229,1366.104 4830.515,1376.396 4845.859,1385.753C4861.204,1395.109 4881.227,1399.787 4905.928,1399.787C4922.395,1399.787 4937.179,1396.606 4950.278,1390.244C4963.377,1383.881 4974.605,1375.086 4983.961,1363.858C4993.318,1352.631 5000.616,1339.719 5005.855,1325.123C5011.095,1310.526 5013.715,1295.369 5013.715,1279.65C5013.715,1257.943 5008.662,1238.294 4998.557,1220.704C4988.452,1203.114 4974.417,1187.957 4956.453,1175.232C4938.489,1162.507 4917.717,1152.589 4894.139,1145.478C4870.561,1138.367 4845.298,1134.812 4818.351,1134.812C4790.656,1134.812 4765.768,1138.741 4743.687,1146.601C4721.605,1154.46 4702.705,1163.63 4686.986,1174.109C4669.022,1185.337 4652.929,1198.436 4638.707,1213.406C4653.677,1201.43 4670.145,1190.576 4688.109,1180.846C4703.079,1172.612 4720.857,1165.127 4741.441,1158.39C4762.025,1151.653 4784.294,1148.285 4808.246,1148.285C4830.702,1148.285 4850.163,1152.028 4866.631,1159.513C4883.098,1166.998 4896.946,1176.354 4908.174,1187.582C4919.401,1198.81 4927.822,1211.348 4933.436,1225.195C4939.05,1239.043 4941.857,1252.329 4941.857,1265.054C4941.857,1270.294 4940.734,1276.843 4938.489,1284.703C4936.243,1292.562 4932.688,1299.86 4927.822,1306.597C4922.957,1313.333 4916.969,1319.134 4909.858,1324C4902.747,1328.865 4893.952,1331.298 4883.472,1331.298C4865.508,1331.298 4850.725,1326.058 4839.123,1315.579C4827.521,1305.1 4816.854,1293.685 4807.124,1281.334C4797.393,1268.984 4787.288,1257.569 4776.809,1247.089C4766.329,1236.61 4752.856,1231.371 4736.389,1231.371C4720.67,1231.371 4705.699,1237.359 4691.477,1249.335C4677.256,1261.311 4663.595,1274.41 4650.496,1288.632C4637.397,1302.854 4624.672,1315.953 4612.322,1327.929C4599.971,1339.906 4588.182,1345.894 4576.954,1345.894C4576.206,1345.894 4575.457,1345.707 4574.709,1345.333C4573.96,1344.958 4572.837,1344.771 4571.34,1344.771C4557.118,1341.029 4548.51,1333.73 4545.516,1322.877C4542.522,1312.023 4542.148,1298.924 4544.394,1283.58C4546.639,1268.235 4549.82,1251.768 4553.937,1234.178C4558.054,1216.587 4560.112,1199.559 4560.112,1183.091C4560.112,1176.354 4558.99,1169.056 4556.744,1161.197C4554.499,1153.338 4550.756,1146.039 4545.516,1139.303C4540.277,1132.566 4533.166,1126.952 4524.184,1122.461C4515.201,1117.97 4503.974,1115.724 4490.5,1115.724C4462.057,1115.724 4437.168,1122.087 4415.836,1134.812C4394.503,1147.537 4375.977,1161.758 4360.258,1177.477C4344.539,1193.196 4331.627,1207.418 4321.522,1220.143C4311.417,1232.868 4303.371,1239.23 4297.382,1239.23C4293.64,1239.23 4291.769,1236.61 4291.769,1231.371C4291.769,1226.879 4294.95,1218.646 4301.312,1206.669C4307.675,1194.693 4317.78,1180.846 4331.627,1165.127C4345.475,1149.408 4363.439,1132.753 4385.521,1115.163C4407.602,1097.573 4434.361,1080.918 4465.799,1065.199C4501.728,1046.487 4533.54,1030.768 4561.235,1018.043C4588.93,1005.318 4612.322,993.155 4631.409,981.553C4650.496,969.951 4664.905,957.787 4674.636,945.062C4684.367,932.337 4689.232,916.993 4689.232,899.028C4689.232,884.058 4683.805,871.895 4672.952,862.538C4662.098,853.182 4648.063,848.503 4630.847,848.503C4618.123,848.503 4605.772,850.188 4593.796,853.556C4581.82,856.924 4570.592,860.48 4560.112,864.222C4549.633,867.965 4539.715,871.52 4530.359,874.889C4521.002,878.257 4512.582,879.941 4505.096,879.941C4484.138,879.941 4473.659,869.836 4473.659,849.626C4473.659,840.644 4477.214,829.416 4484.325,815.943C4491.436,802.469 4500.418,788.061 4511.272,772.716C4522.125,757.371 4533.727,741.465 4546.078,724.998C4558.428,708.53 4570.03,692.437 4580.884,676.718C4591.737,661 4600.72,646.216 4607.831,632.369C4614.941,618.521 4618.497,606.732 4618.497,597.001C4618.497,586.522 4615.129,577.914 4608.392,571.177C4601.655,564.441 4593.047,561.072 4582.568,561.072C4556.37,561.072 4529.423,572.861 4501.728,596.44C4474.033,620.018 4448.957,650.707 4426.502,688.508C4404.046,726.308 4386.269,768.412 4373.17,814.82C4360.071,861.228 4355.018,907.262 4358.012,952.922C4366.246,899.777 4377.474,852.246 4391.696,810.329C4397.684,792.364 4404.608,774.961 4412.467,758.12C4420.327,741.278 4429.122,726.308 4438.852,713.209C4448.583,700.11 4459.25,689.443 4470.852,681.21C4482.454,672.976 4495.366,668.859 4509.587,668.859C4515.576,668.859 4520.441,670.917 4524.184,675.034C4527.926,679.151 4529.797,683.455 4529.797,687.946C4529.797,697.677 4524.371,709.84 4513.517,724.436C4502.664,739.033 4490.5,754.751 4477.027,771.593C4463.554,788.435 4451.39,806.212 4440.537,824.925C4429.683,843.638 4424.256,862.351 4424.256,881.064C4424.256,893.789 4428.747,903.894 4437.73,911.379C4446.712,918.864 4456.068,922.607 4465.799,922.607C4476.278,922.607 4486.196,921.484 4495.553,919.238C4504.909,916.993 4514.079,914.56 4523.061,911.94C4532.043,909.321 4541.025,906.888 4550.007,904.642C4558.99,902.397 4567.972,901.274 4576.954,901.274C4587.433,901.274 4596.228,903.145 4603.339,906.888C4610.45,910.63 4614.006,917.741 4614.006,928.221C4614.006,937.951 4606.333,948.243 4590.989,959.097C4575.644,969.951 4556.931,981.553 4534.85,993.903C4512.769,1006.254 4489.003,1019.166 4463.554,1032.639C4438.104,1046.112 4415.274,1060.334 4395.064,1075.304C4374.106,1091.023 4352.773,1109.923 4331.066,1132.005C4309.359,1154.086 4289.336,1178.6 4270.997,1205.547C4252.659,1232.493 4236.752,1261.124 4223.279,1291.439C4209.806,1321.754 4200.449,1353.005 4195.21,1385.191Z" style="fill:rgb(255,0,40);fill-rule:nonzero;"/>
    </g>
</svg>
