<?xml version="1.0" encoding="UTF-8" standalone="no"?>
<!DOCTYPE svg PUBLIC "-//W3C//DTD SVG 1.1//EN" "http://www.w3.org/Graphics/SVG/1.1/DTD/svg11.dtd">
<svg width="100%" height="100%" viewBox="0 0 2006 1727" version="1.1" xmlns="http://www.w3.org/2000/svg" xmlns:xlink="http://www.w3.org/1999/xlink" xml:space="preserve" xmlns:serif="http://www.serif.com/" style="fill-rule:evenodd;clip-rule:evenodd;stroke-linejoin:round;stroke-miterlimit:2;">
    <g transform="matrix(1.075662,0,0,1.075662,-233.806562,-979.705659)">
        <path d="M653.329,1446.285C653.329,1452.226 651.968,1458.663 649.244,1465.595C646.521,1472.527 642.684,1478.716 637.733,1484.163C632.781,1489.609 627.087,1494.189 620.65,1497.903C614.213,1501.616 607.529,1503.473 600.597,1503.473C592.18,1503.473 585.867,1501.369 581.658,1497.16C577.449,1492.951 575.345,1487.629 575.345,1481.192C575.345,1474.26 576.831,1468.566 579.801,1464.109C582.772,1459.653 585.991,1455.445 589.457,1451.483C592.923,1447.522 596.141,1443.685 599.112,1439.972C602.083,1436.258 603.568,1431.926 603.568,1426.974C603.568,1422.518 601.835,1418.309 598.369,1414.348C594.903,1410.387 589.457,1408.407 582.03,1408.407C574.107,1408.407 566.68,1410.016 559.748,1413.234C552.816,1416.452 546.627,1418.062 541.181,1418.062C535.239,1418.062 530.907,1416.452 528.183,1413.234C525.46,1410.016 524.098,1406.178 524.098,1401.722C524.098,1395.285 527.936,1388.972 535.61,1382.783C543.285,1376.594 552.816,1370.157 564.205,1363.473C575.593,1356.788 587.847,1349.733 600.969,1342.306C614.09,1334.879 626.344,1327.08 637.733,1318.91C649.121,1310.741 658.652,1301.952 666.327,1292.544C674.001,1283.137 677.839,1273.234 677.839,1262.836C677.839,1252.438 674.249,1243.526 667.069,1236.099C659.89,1228.672 648.378,1224.958 632.534,1224.958C622.631,1224.958 613.099,1225.948 603.939,1227.929C594.779,1229.909 585.991,1232.014 577.573,1234.242C569.156,1236.47 560.986,1238.574 553.064,1240.555C545.142,1242.535 537.467,1243.526 530.04,1243.526C523.603,1243.526 518.404,1242.535 514.443,1240.555C510.482,1238.574 508.006,1234.861 507.016,1229.414C505.531,1217.036 518.899,1206.39 547.122,1197.478C553.064,1195.497 559.129,1194.012 565.319,1193.022C571.508,1192.031 577.573,1190.793 583.515,1189.308C589.457,1187.823 595.151,1185.718 600.597,1182.995C606.044,1180.272 610.995,1176.682 615.451,1172.226C623.869,1162.323 628.449,1150.44 629.191,1136.576C629.934,1122.712 631.296,1108.848 633.276,1094.984C637.237,1072.208 642.313,1056.116 648.502,1046.708C654.691,1037.301 663.48,1032.597 674.868,1032.597C680.314,1032.597 684.894,1034.454 688.608,1038.167C692.321,1041.881 694.178,1047.204 694.178,1054.135C694.178,1060.572 692.445,1067.257 688.979,1074.189C685.513,1081.12 681.552,1088.176 677.096,1095.356C672.64,1102.535 668.679,1109.838 665.213,1117.266C661.747,1124.693 660.014,1132.367 660.014,1140.289C660.014,1156.134 665.089,1167.398 675.239,1174.083C685.39,1180.767 697.644,1184.109 712.003,1184.109C722.401,1184.109 732.428,1181.881 742.083,1177.425C751.738,1172.969 760.032,1167.027 766.963,1159.6C773.895,1152.173 779.466,1143.632 783.674,1133.976C787.883,1124.321 789.987,1114.542 789.987,1104.64C789.987,1096.717 787.512,1089.909 782.56,1084.215C777.609,1078.521 770.925,1075.674 762.507,1075.674C752.604,1075.674 745.177,1079.016 740.226,1085.7C735.275,1092.385 732.799,1100.926 732.799,1111.324C732.799,1115.78 732.18,1121.35 730.942,1128.035C729.704,1134.719 727.6,1141.156 724.629,1147.345C721.658,1153.534 717.697,1158.857 712.746,1163.313C707.795,1167.77 701.853,1169.998 694.921,1169.998C688.484,1169.998 682.542,1167.522 677.096,1162.571C671.649,1157.619 668.926,1149.945 668.926,1139.547C668.926,1128.159 673.506,1117.513 682.666,1107.61C691.826,1097.708 701.853,1087.433 712.746,1076.788C723.639,1066.143 733.665,1054.507 742.825,1041.881C751.986,1029.255 756.566,1014.524 756.566,997.69C756.566,985.311 752.604,975.656 744.682,968.724C736.76,961.792 726.857,958.326 714.974,958.326C702.1,958.326 690.836,962.164 681.181,969.838C671.526,977.513 662.985,987.292 655.557,999.175C648.13,1011.058 641.57,1024.18 635.876,1038.539C630.182,1052.898 624.488,1067.133 618.793,1081.244C613.099,1095.356 607.282,1108.353 601.34,1120.236C595.398,1132.12 588.714,1141.28 581.287,1147.716C557.52,1168.017 536.105,1183.738 517.043,1194.878C497.98,1206.019 481.764,1214.931 468.395,1221.616C455.027,1228.3 444.753,1234.242 437.573,1239.441C430.394,1244.64 426.556,1251.695 426.061,1260.608C425.071,1269.025 427.423,1275.091 433.117,1278.804C438.811,1282.518 445.372,1284.375 452.799,1284.375C461.711,1284.375 470.995,1282.394 480.65,1278.433C490.305,1274.472 500.332,1270.139 510.73,1265.435C521.128,1260.732 532.021,1256.399 543.409,1252.438C554.797,1248.477 566.433,1246.496 578.316,1246.496C594.656,1246.496 606.539,1250.829 613.966,1259.494C621.393,1268.159 625.107,1277.443 625.107,1287.345C625.107,1297.743 621.517,1306.903 614.337,1314.825C607.158,1322.748 598.245,1330.299 587.6,1337.478C576.954,1344.658 565.195,1351.837 552.321,1359.017C539.448,1366.196 527.317,1374.242 515.929,1383.154C504.54,1392.067 494.761,1402.217 486.592,1413.605C478.422,1424.994 473.347,1438.362 471.366,1453.712C470.376,1463.119 471.242,1472.155 473.966,1480.82C476.689,1489.485 481.145,1497.16 487.334,1503.844C493.524,1510.529 501.57,1515.975 511.472,1520.184C521.375,1524.393 533.011,1526.497 546.38,1526.497C569.651,1526.497 591.313,1521.298 611.366,1510.9C631.42,1500.502 648.749,1487.629 663.356,1472.279C677.962,1456.93 689.351,1440.59 697.52,1423.261C705.69,1405.931 709.775,1390.582 709.775,1377.213C709.775,1367.31 706.557,1359.017 700.12,1352.332C693.683,1345.648 685.761,1342.306 676.353,1342.306C667.936,1342.306 659.89,1345.648 652.215,1352.332C644.541,1359.017 640.703,1368.795 640.703,1381.669C640.703,1388.106 641.322,1393.8 642.56,1398.751C643.798,1403.703 645.283,1408.53 647.016,1413.234C648.749,1417.938 650.235,1422.765 651.473,1427.717C652.71,1432.668 653.329,1438.857 653.329,1446.285ZM340.65,1132.12C334.708,1132.12 329.633,1132.739 325.424,1133.976C321.216,1135.214 317.378,1136.452 313.912,1137.69C310.446,1138.928 307.104,1140.166 303.886,1141.403C300.668,1142.641 297.078,1143.26 293.117,1143.26C280.243,1143.26 270.959,1139.052 265.265,1130.634C259.571,1122.217 256.724,1113.8 256.724,1105.382C256.724,1095.975 259.447,1088.3 264.894,1082.358C270.34,1076.417 276.777,1073.446 284.204,1073.446C293.117,1073.446 300.791,1075.674 307.228,1080.13C313.665,1084.586 319.607,1089.662 325.053,1095.356C330.5,1101.05 335.822,1106.125 341.021,1110.581C346.22,1115.037 352.533,1117.266 359.96,1117.266C367.882,1117.266 373.7,1113.552 377.414,1106.125C381.127,1098.698 384.098,1089.538 386.326,1078.645C388.554,1067.752 390.659,1055.868 392.639,1042.995C394.62,1030.121 397.591,1018.238 401.552,1007.345C405.513,996.452 411.083,987.292 418.263,979.865C425.442,972.438 435.716,968.724 449.085,968.724C460.473,968.724 469.509,970.952 476.194,975.409C482.878,979.865 486.22,985.559 486.22,992.491C486.22,998.928 482.754,1005.488 475.822,1012.173C468.891,1018.857 461.34,1025.417 453.17,1031.854C445,1038.291 437.449,1044.852 430.517,1051.536C423.585,1058.22 420.367,1064.781 420.862,1071.218C421.357,1078.645 424.081,1083.225 429.032,1084.958C433.983,1086.691 439.306,1087.681 445,1087.929C450.694,1088.176 455.893,1088.671 460.597,1089.414C465.301,1090.157 467.653,1093.499 467.653,1099.441C467.653,1109.838 464.806,1119.617 459.112,1128.777C453.417,1137.938 446.238,1146.974 437.573,1155.886C428.908,1164.799 419.501,1173.835 409.35,1182.995C399.2,1192.155 389.669,1201.81 380.756,1211.961C371.844,1222.111 364.293,1233.128 358.103,1245.011C351.914,1256.894 348.572,1269.768 348.077,1283.632C347.582,1303.437 348.696,1319.777 351.419,1332.65C354.142,1345.524 357.361,1357.036 361.074,1367.186C364.788,1377.337 368.254,1387.239 371.472,1396.895C374.691,1406.55 376.3,1418.062 376.3,1431.43C376.3,1442.323 373.948,1453.093 369.244,1463.738C364.54,1474.384 358.599,1483.915 351.419,1492.332C344.24,1500.75 336.317,1507.434 327.653,1512.385C318.988,1517.337 310.942,1519.812 303.515,1519.812C284.204,1519.812 269.35,1515.604 258.952,1507.186C248.554,1498.769 243.355,1489.609 243.355,1479.706C243.355,1472.279 246.945,1466.214 254.125,1461.51C261.304,1456.806 269.102,1452.102 277.52,1447.399C285.937,1442.695 293.736,1437.248 300.915,1431.059C308.095,1424.87 311.684,1416.329 311.684,1405.436C311.684,1395.533 308.466,1386.744 302.029,1379.07C295.592,1371.395 286.432,1367.558 274.549,1367.558C267.122,1367.558 260.066,1369.538 253.382,1373.499C246.698,1377.46 240.632,1382.907 235.186,1389.839C229.739,1396.771 225.407,1404.569 222.188,1413.234C218.97,1421.899 217.361,1431.183 217.361,1441.086C217.361,1450.493 218.846,1460.148 221.817,1470.051C224.788,1479.954 229.615,1488.99 236.3,1497.16C242.984,1505.33 251.896,1512.138 263.037,1517.584C274.178,1523.031 287.918,1525.754 304.257,1525.754C324.063,1525.754 343.126,1521.793 361.446,1513.871C379.766,1505.949 395.858,1495.922 409.722,1483.791C423.585,1471.66 434.602,1457.92 442.772,1442.571C450.942,1427.222 455.027,1412.12 455.027,1397.266C455.027,1386.868 452.675,1378.574 447.971,1372.385C443.267,1366.196 437.449,1360.749 430.517,1356.046C423.585,1351.342 416.035,1347.009 407.865,1343.048C399.695,1339.087 392.144,1334.383 385.212,1328.937C378.28,1323.49 372.462,1316.682 367.759,1308.512C363.055,1300.343 360.703,1289.821 360.703,1276.947C360.703,1265.559 365.159,1254.542 374.072,1243.897C382.984,1233.252 394.125,1222.482 407.493,1211.589C420.862,1200.696 435.345,1189.556 450.942,1178.167C466.539,1166.779 481.021,1154.648 494.39,1141.775C507.759,1128.901 518.899,1115.037 527.812,1100.183C536.724,1085.329 541.181,1069.237 541.181,1051.907C541.181,1023.189 533.258,1000.413 517.414,983.578C501.57,966.744 481.021,958.326 455.769,958.326C438.44,958.326 424.947,962.411 415.292,970.581C405.637,978.751 397.715,988.282 391.525,999.175C385.336,1010.068 379.766,1020.837 374.814,1031.483C369.863,1042.128 363.179,1049.927 354.761,1054.878C344.859,1060.82 333.594,1064.286 320.968,1065.276C308.342,1066.266 296.335,1066.761 284.947,1066.761C275.044,1066.761 266.503,1070.104 259.324,1076.788C252.144,1083.472 248.554,1093.499 248.554,1106.868C248.554,1118.751 250.659,1130.758 254.867,1142.889C259.076,1155.02 265.018,1166.037 272.692,1175.939C280.367,1185.842 289.527,1194.012 300.172,1200.449C310.818,1206.885 322.577,1210.104 335.451,1210.104C348.325,1210.104 358.722,1205.771 366.645,1197.106C374.567,1188.442 378.528,1179.405 378.528,1169.998C378.528,1161.58 375.557,1153.163 369.615,1144.746C363.674,1136.328 354.019,1132.12 340.65,1132.12Z" style="fill:rgb(255,0,40);fill-rule:nonzero;"/>
        <path d="M1151.685,1513.128C1150.695,1513.128 1150.2,1513.623 1150.2,1514.614L1150.2,1516.099C1150.2,1517.089 1150.695,1517.584 1151.685,1517.584L1347.76,1517.584C1349.245,1517.584 1349.988,1517.089 1349.988,1516.099L1349.988,1514.614C1349.988,1513.623 1349.245,1513.128 1347.76,1513.128L1324.736,1513.128C1309.387,1513.128 1298.618,1510.405 1292.428,1504.958C1286.239,1499.512 1281.164,1490.599 1277.203,1478.221C1252.446,1401.97 1229.422,1325.719 1208.131,1249.467C1186.84,1173.216 1165.797,1096.47 1145.001,1019.228C1142.03,1008.83 1142.03,1000.165 1145.001,993.234C1147.972,986.302 1154.904,982.836 1165.797,982.836L1210.359,982.836C1211.845,982.836 1212.587,982.093 1212.587,980.608L1212.587,979.865C1212.587,978.875 1211.845,978.379 1210.359,978.379L913.277,978.379C911.296,978.379 910.306,978.875 910.306,979.865L910.306,980.608C910.306,982.093 911.296,982.836 913.277,982.836L968.237,982.836C978.14,982.836 983.091,987.292 983.091,996.204C983.091,1000.165 982.596,1004.003 981.606,1007.716C980.615,1011.43 978.882,1016.753 976.407,1023.684C971.95,1035.073 966.628,1048.565 960.439,1064.162C954.249,1079.759 947.936,1095.727 941.5,1112.067C935.063,1128.406 928.873,1144.251 922.932,1159.6C916.99,1174.949 911.791,1188.318 907.335,1199.706C897.927,1223.968 888.396,1247.734 878.741,1271.006C869.086,1294.277 860.544,1316.435 853.117,1337.478C845.69,1358.521 839.625,1378.327 834.921,1396.895C830.217,1415.462 827.865,1432.421 827.865,1447.77C827.865,1474.012 834.302,1493.075 847.176,1504.958C860.049,1516.842 876.141,1522.783 895.452,1522.783C911.296,1522.783 925.655,1518.451 938.529,1509.786C951.402,1501.121 963.657,1490.228 975.293,1477.107C986.928,1463.986 998.069,1449.874 1008.714,1434.773C1019.36,1419.671 1030.377,1405.559 1041.765,1392.438C1053.153,1379.317 1065.16,1368.424 1077.786,1359.759C1090.412,1351.094 1104.152,1346.762 1119.006,1346.762C1142.773,1346.762 1161.093,1353.694 1173.967,1367.558C1186.84,1381.421 1196.248,1397.266 1202.19,1415.091C1206.151,1425.984 1209.245,1436.382 1211.473,1446.285C1213.701,1456.187 1216.053,1465.1 1218.529,1473.022C1219.519,1477.478 1219.891,1482.182 1219.643,1487.133C1219.396,1492.085 1217.91,1496.417 1215.187,1500.131C1212.464,1503.844 1208.007,1506.939 1201.818,1509.415C1195.629,1511.89 1187.335,1513.128 1176.937,1513.128L1151.685,1513.128ZM954.126,1211.589C982.348,1211.589 1002.897,1217.902 1015.77,1230.528C1028.644,1243.154 1035.081,1263.579 1035.081,1291.802L1035.081,1369.043C1024.188,1376.965 1013.542,1385.383 1003.144,1394.295C992.746,1403.208 982.596,1411.377 972.693,1418.804C962.79,1426.231 953.135,1432.297 943.728,1437.001C934.32,1441.705 924.912,1444.056 915.505,1444.056C901.641,1444.056 889.015,1439.724 877.627,1431.059C866.239,1422.394 860.544,1407.911 860.544,1387.611C860.544,1375.232 862.649,1360.997 866.857,1344.905C871.066,1328.813 876.018,1312.597 881.712,1296.258C887.406,1279.918 893.224,1264.321 899.165,1249.467C905.107,1234.613 910.058,1221.987 914.019,1211.589L954.126,1211.589ZM983.091,1031.854C989.033,1017 996.584,1007.345 1005.744,1002.889C1014.904,998.432 1024.683,995.957 1035.081,995.462L1035.081,1124.693C1035.081,1153.906 1028.891,1174.949 1016.513,1187.823C1004.134,1200.696 983.339,1207.133 954.126,1207.133L915.505,1207.133C922.932,1187.823 930.359,1168.388 937.786,1148.831C945.213,1129.273 952.145,1111.324 958.582,1094.984C965.019,1078.645 970.341,1064.781 974.55,1053.393C978.759,1042.005 981.606,1034.825 983.091,1031.854ZM1168.768,1295.515C1169.758,1298.981 1170.748,1303.19 1171.739,1308.141C1172.729,1313.092 1173.348,1317.796 1173.595,1322.253C1173.843,1326.709 1173.595,1330.794 1172.853,1334.507C1172.11,1338.221 1170.501,1340.82 1168.025,1342.306C1167.035,1342.801 1165.302,1343.048 1162.826,1343.048C1157.875,1343.048 1152.057,1341.934 1145.372,1339.706C1138.688,1337.478 1129.652,1336.364 1118.264,1336.364C1104.4,1336.364 1091.031,1339.211 1078.158,1344.905C1065.284,1350.599 1052.41,1357.655 1039.537,1366.072L1039.537,1291.802C1039.537,1263.084 1045.602,1242.535 1057.733,1230.157C1069.864,1217.778 1090.536,1211.589 1119.749,1211.589L1145.744,1211.589C1149.705,1225.453 1153.542,1239.441 1157.256,1253.552C1160.969,1267.664 1164.807,1281.651 1168.768,1295.515ZM1119.749,1207.133C1091.526,1207.133 1071.102,1200.449 1058.476,1187.08C1045.85,1173.711 1039.537,1152.915 1039.537,1124.693L1039.537,995.462C1056.867,995.957 1069.74,999.67 1078.158,1006.602C1086.575,1013.534 1092.517,1022.942 1095.982,1034.825C1101.429,1053.64 1108.361,1078.15 1116.778,1108.353C1125.196,1138.556 1134.356,1171.483 1144.258,1207.133L1119.749,1207.133Z" style="fill:rgb(255,0,40);fill-rule:nonzero;"/>
        <path d="M1948.61,1055.621L1950.838,1055.621L1950.838,1030.369C1950.838,1014.524 1954.304,1003.012 1961.236,995.833C1968.168,988.654 1979.556,985.064 1995.4,985.064L2017.681,985.064L2017.681,982.836L1995.4,982.836C1979.556,982.836 1968.168,979.37 1961.236,972.438C1954.304,965.506 1950.838,954.118 1950.838,938.273L1950.838,911.536L1948.61,911.536L1948.61,938.273C1948.61,942.729 1948.114,947.433 1947.124,952.385C1946.134,957.336 1944.401,961.668 1941.925,965.382C1939.45,969.096 1935.86,972.19 1931.156,974.666C1926.452,977.142 1920.387,978.379 1912.96,978.379L1824.578,978.379L1693.119,1327.451C1688.662,1317.549 1683.092,1304.923 1676.408,1289.573C1669.723,1274.224 1662.296,1257.389 1654.126,1239.069C1645.957,1220.749 1637.416,1201.563 1628.503,1181.51C1619.591,1161.457 1610.926,1141.775 1602.508,1122.464C1582.703,1077.407 1561.412,1029.379 1538.636,978.379L1448.025,978.379C1441.589,978.379 1436.513,977.018 1432.8,974.295C1429.086,971.571 1426.239,968.105 1424.259,963.897C1422.278,959.688 1421.04,955.232 1420.545,950.528C1420.05,945.824 1419.803,941.244 1419.803,936.788L1419.803,910.793L1417.574,910.793L1417.574,936.788C1417.574,952.632 1414.108,964.02 1407.177,970.952C1400.245,977.884 1388.856,981.35 1373.012,981.35L1346.275,981.35L1346.275,983.578L1373.012,983.578C1388.856,983.578 1400.245,987.168 1407.177,994.348C1414.108,1001.527 1417.574,1013.039 1417.574,1028.883L1417.574,1054.878L1419.803,1054.878L1419.803,1028.883C1419.803,1019.971 1421.783,1010.935 1425.744,1001.775C1429.705,992.615 1437.132,988.035 1448.025,988.035L1460.651,988.035C1472.04,988.53 1479.219,992.738 1482.19,1000.661C1485.161,1008.583 1485.161,1018.733 1482.19,1031.112C1464.86,1103.402 1447.035,1176.434 1428.715,1250.21C1410.395,1323.986 1392.57,1397.018 1375.24,1469.308C1371.279,1484.658 1365.709,1495.798 1358.529,1502.73C1351.35,1509.662 1340.333,1513.128 1325.479,1513.128L1303.198,1513.128C1301.712,1513.128 1300.969,1513.623 1300.969,1514.614L1300.969,1516.099C1300.969,1517.089 1301.712,1517.584 1303.198,1517.584L1451.739,1517.584C1453.224,1517.584 1453.967,1517.089 1453.967,1516.099L1453.967,1514.614C1453.967,1513.623 1453.224,1513.128 1451.739,1513.128L1429.458,1513.128C1399.749,1513.128 1387.866,1498.769 1393.808,1470.051C1411.138,1398.751 1429.086,1325.347 1447.654,1249.839C1466.222,1174.33 1484.17,1100.926 1501.5,1029.626L1650.784,1369.043C1645.338,1372.509 1638.777,1375.232 1631.103,1377.213C1623.428,1379.193 1613.897,1380.184 1602.508,1380.184L1558.689,1380.184L1558.689,1383.897L1601.766,1383.897C1628.503,1383.897 1647.442,1389.715 1658.583,1401.351C1669.723,1412.987 1675.789,1431.926 1676.779,1458.168L1676.779,1490.847L1680.493,1490.847L1680.493,1458.911C1680.493,1432.173 1686.187,1413.234 1697.575,1402.093C1708.963,1390.953 1728.026,1384.887 1754.763,1383.897L1798.583,1383.897L1798.583,1380.184L1755.506,1380.184C1741.147,1380.184 1729.511,1378.698 1720.599,1375.727C1711.686,1372.757 1704.507,1368.795 1699.06,1363.844L1830.519,1010.316C1846.859,1075.674 1862.208,1138.061 1876.567,1197.478C1882.509,1222.73 1888.822,1248.477 1895.506,1274.719C1902.19,1300.962 1908.503,1326.214 1914.445,1350.475C1920.387,1374.737 1925.957,1397.39 1931.156,1418.433C1936.355,1439.476 1940.687,1457.425 1944.153,1472.279C1945.144,1476.736 1945.639,1481.439 1945.639,1486.391C1945.639,1491.342 1944.277,1495.798 1941.554,1499.759C1938.831,1503.721 1934.498,1506.939 1928.557,1509.415C1922.615,1511.89 1914.445,1513.128 1904.047,1513.128L1872.111,1513.128C1870.13,1513.128 1869.14,1513.623 1869.14,1514.614L1869.14,1516.099C1869.14,1517.089 1870.13,1517.584 1872.111,1517.584L2078.583,1517.584C2080.564,1517.584 2081.554,1517.089 2081.554,1516.099L2081.554,1514.614C2081.554,1513.623 2080.564,1513.128 2078.583,1513.128L2048.875,1513.128C2024.118,1513.128 2008.521,1501.245 2002.084,1477.478C1997.628,1460.644 1992.429,1439.972 1986.488,1415.462C1980.546,1390.953 1973.985,1364.463 1966.806,1335.993C1959.626,1307.522 1952.323,1278.061 1944.896,1247.611C1937.469,1217.16 1930.29,1187.699 1923.358,1159.228C1916.426,1130.758 1909.989,1104.268 1904.047,1079.759C1898.106,1055.25 1893.154,1034.825 1889.193,1018.486C1887.213,1010.563 1887.831,1003.508 1891.05,997.318C1894.268,991.129 1900.086,988.035 1908.503,988.035L1921.129,988.035C1926.576,988.035 1931.156,989.396 1934.87,992.119C1938.583,994.843 1941.43,998.185 1943.411,1002.146C1945.391,1006.107 1946.753,1010.563 1947.496,1015.515C1948.238,1020.466 1948.61,1025.17 1948.61,1029.626L1948.61,1055.621Z" style="fill:rgb(255,0,40);fill-rule:nonzero;"/>
        <path d="M302.772,2193.075L397.096,2075.727L225.53,2217.584L438.687,2217.584C450.075,2217.584 459.483,2215.728 466.91,2212.014C474.337,2208.301 480.526,2204.216 485.478,2199.759C490.924,2194.808 495.133,2189.114 498.104,2182.677C501.075,2189.114 505.283,2194.808 510.73,2199.759C514.691,2204.216 520.261,2208.301 527.441,2212.014C534.62,2215.728 543.409,2217.584 553.807,2217.584L771.42,2217.584L599.854,2075.727L694.178,2193.075L563.462,2193.075C550.588,2193.075 539.448,2188.371 530.04,2178.964C520.632,2169.556 515.929,2158.415 515.929,2145.542L515.929,1751.165C515.929,1737.796 520.632,1726.408 530.04,1717C539.448,1707.593 550.588,1702.889 563.462,1702.889L694.178,1702.889L599.854,1820.979L771.42,1678.379L558.263,1678.379C546.875,1678.379 537.467,1680.236 530.04,1683.95C522.613,1687.663 516.424,1691.501 511.472,1695.462C506.026,1700.908 501.57,1706.85 498.104,1713.287C495.133,1706.85 491.172,1700.908 486.22,1695.462C482.259,1691.501 476.689,1687.663 469.509,1683.95C462.33,1680.236 453.541,1678.379 443.143,1678.379L225.53,1678.379L397.096,1820.979L302.772,1702.889L433.488,1702.889C446.362,1702.889 457.502,1707.593 466.91,1717C476.318,1726.408 481.021,1737.796 481.021,1751.165L481.021,2145.542C481.021,2158.415 476.318,2169.556 466.91,2178.964C457.502,2188.371 446.362,2193.075 433.488,2193.075L302.772,2193.075Z" style="fill:rgb(255,0,40);fill-rule:nonzero;"/>
        <path d="M794.444,2207.929C793.948,2210.405 794.444,2212.633 795.929,2214.614C797.414,2216.594 799.89,2217.584 803.356,2217.584C806.327,2217.584 809.298,2215.604 812.269,2211.643C815.239,2207.682 818.582,2202.483 822.295,2196.046C826.009,2189.609 830.094,2182.553 834.55,2174.879C839.006,2167.204 844.205,2159.406 850.147,2151.483C859.059,2139.105 867.972,2127.098 876.884,2115.462C885.797,2103.826 894.833,2093.429 903.993,2084.269C913.153,2075.108 922.437,2067.805 931.844,2062.359C941.252,2056.912 951.155,2054.189 961.553,2054.189C973.931,2054.189 984.205,2057.655 992.375,2064.587C1000.545,2071.519 1004.63,2082.907 1004.63,2098.751C1004.63,2105.188 1004.011,2111.254 1002.773,2116.948C1001.535,2122.642 1000.05,2128.212 998.317,2133.659C996.584,2139.105 995.098,2144.675 993.86,2150.369C992.622,2156.064 992.004,2162.624 992.004,2170.051C992.004,2181.439 995.717,2192.209 1003.144,2202.359C1010.571,2212.509 1022.207,2217.584 1038.051,2217.584C1051.915,2217.584 1063.799,2214.49 1073.701,2208.301C1083.604,2202.111 1092.764,2195.303 1101.181,2187.876C1109.599,2180.449 1117.892,2173.641 1126.062,2167.452C1134.232,2161.262 1143.268,2158.168 1153.171,2158.168C1162.578,2158.168 1170.624,2161.262 1177.309,2167.452C1183.993,2173.641 1191.049,2180.449 1198.476,2187.876C1205.903,2195.303 1214.692,2202.111 1224.842,2208.301C1234.992,2214.49 1248.237,2217.584 1264.577,2217.584C1275.47,2217.584 1285.249,2215.48 1293.914,2211.271C1302.579,2207.063 1310.006,2201.245 1316.195,2193.818C1322.384,2186.391 1327.212,2177.85 1330.678,2168.194C1334.144,2158.539 1335.877,2148.513 1335.877,2138.115C1335.877,2123.756 1332.535,2110.758 1325.85,2099.123C1319.166,2087.487 1309.882,2077.46 1297.999,2069.043C1286.115,2060.626 1272.375,2054.065 1256.778,2049.361C1241.182,2044.658 1224.471,2042.306 1206.646,2042.306C1188.326,2042.306 1171.862,2044.905 1157.256,2050.104C1142.649,2055.303 1130.147,2061.368 1119.749,2068.3C1107.866,2075.727 1097.22,2084.392 1087.813,2094.295C1097.715,2086.373 1108.608,2079.193 1120.492,2072.757C1130.395,2067.31 1142.154,2062.359 1155.77,2057.902C1169.387,2053.446 1184.117,2051.218 1199.961,2051.218C1214.816,2051.218 1227.689,2053.694 1238.582,2058.645C1249.475,2063.597 1258.635,2069.786 1266.062,2077.213C1273.489,2084.64 1279.06,2092.933 1282.773,2102.093C1286.487,2111.254 1288.343,2120.042 1288.343,2128.46C1288.343,2131.926 1287.601,2136.258 1286.115,2141.457C1284.63,2146.656 1282.278,2151.483 1279.06,2155.94C1275.841,2160.396 1271.88,2164.233 1267.176,2167.452C1262.473,2170.67 1256.655,2172.279 1249.723,2172.279C1237.839,2172.279 1228.06,2168.813 1220.386,2161.881C1212.711,2154.949 1205.655,2147.399 1199.219,2139.229C1192.782,2131.059 1186.098,2123.508 1179.166,2116.576C1172.234,2109.644 1163.321,2106.178 1152.428,2106.178C1142.03,2106.178 1132.128,2110.139 1122.72,2118.062C1113.312,2125.984 1104.276,2134.649 1095.611,2144.056C1086.946,2153.464 1078.529,2162.129 1070.359,2170.051C1062.189,2177.973 1054.391,2181.934 1046.964,2181.934C1046.469,2181.934 1045.974,2181.811 1045.478,2181.563C1044.983,2181.316 1044.241,2181.192 1043.25,2181.192C1033.843,2178.716 1028.149,2173.888 1026.168,2166.709C1024.188,2159.529 1023.94,2150.865 1025.425,2140.714C1026.911,2130.564 1029.015,2119.671 1031.738,2108.035C1034.462,2096.399 1035.823,2085.135 1035.823,2074.242C1035.823,2069.786 1035.081,2064.958 1033.595,2059.759C1032.11,2054.56 1029.634,2049.733 1026.168,2045.276C1022.702,2040.82 1017.998,2037.107 1012.057,2034.136C1006.115,2031.165 998.688,2029.68 989.775,2029.68C970.96,2029.68 954.497,2033.888 940.385,2042.306C926.274,2050.723 914.019,2060.131 903.621,2070.528C893.224,2080.926 884.682,2090.334 877.998,2098.751C871.314,2107.169 865.991,2111.377 862.03,2111.377C859.554,2111.377 858.316,2109.644 858.316,2106.178C858.316,2103.208 860.421,2097.761 864.629,2089.839C868.838,2081.917 875.522,2072.757 884.682,2062.359C893.843,2051.961 905.726,2040.944 920.332,2029.308C934.939,2017.673 952.64,2006.656 973.436,1996.258C997.202,1983.879 1018.246,1973.481 1036.566,1965.064C1054.886,1956.647 1070.359,1948.601 1082.985,1940.926C1095.611,1933.252 1105.143,1925.206 1111.579,1916.788C1118.016,1908.371 1121.234,1898.221 1121.234,1886.337C1121.234,1876.434 1117.645,1868.388 1110.465,1862.199C1103.286,1856.01 1094.002,1852.915 1082.614,1852.915C1074.196,1852.915 1066.027,1854.029 1058.104,1856.258C1050.182,1858.486 1042.755,1860.838 1035.823,1863.313C1028.891,1865.789 1022.331,1868.141 1016.142,1870.369C1009.952,1872.597 1004.382,1873.711 999.431,1873.711C985.567,1873.711 978.635,1867.027 978.635,1853.658C978.635,1847.716 980.987,1840.289 985.691,1831.377C990.394,1822.464 996.336,1812.933 1003.516,1802.783C1010.695,1792.632 1018.37,1782.111 1026.539,1771.218C1034.709,1760.325 1042.384,1749.679 1049.563,1739.281C1056.743,1728.883 1062.684,1719.104 1067.388,1709.944C1072.092,1700.784 1074.444,1692.986 1074.444,1686.549C1074.444,1679.617 1072.216,1673.923 1067.76,1669.467C1063.303,1665.011 1057.609,1662.783 1050.677,1662.783C1033.348,1662.783 1015.523,1670.581 997.202,1686.178C978.882,1701.775 962.295,1722.075 947.441,1747.08C932.587,1772.084 920.828,1799.936 912.163,1830.634C903.498,1861.333 900.156,1891.784 902.136,1921.987C907.583,1886.832 915.01,1855.391 924.417,1827.663C928.378,1815.78 932.958,1804.268 938.157,1793.128C943.356,1781.987 949.174,1772.084 955.611,1763.419C962.048,1754.754 969.103,1747.699 976.778,1742.252C984.453,1736.806 992.994,1734.082 1002.401,1734.082C1006.363,1734.082 1009.581,1735.444 1012.057,1738.167C1014.532,1740.891 1015.77,1743.738 1015.77,1746.708C1015.77,1753.145 1012.18,1761.191 1005.001,1770.846C997.821,1780.502 989.775,1790.899 980.863,1802.04C971.95,1813.181 963.904,1824.94 956.725,1837.319C949.545,1849.697 945.956,1862.075 945.956,1874.454C945.956,1882.871 948.927,1889.556 954.868,1894.507C960.81,1899.458 966.999,1901.934 973.436,1901.934C980.368,1901.934 986.928,1901.191 993.118,1899.706C999.307,1898.221 1005.372,1896.611 1011.314,1894.878C1017.256,1893.145 1023.197,1891.536 1029.139,1890.051C1035.081,1888.565 1041.022,1887.823 1046.964,1887.823C1053.896,1887.823 1059.714,1889.06 1064.417,1891.536C1069.121,1894.012 1071.473,1898.716 1071.473,1905.648C1071.473,1912.084 1066.398,1918.893 1056.248,1926.072C1046.097,1933.252 1033.719,1940.926 1019.112,1949.096C1004.506,1957.266 988.785,1965.807 971.95,1974.719C955.116,1983.632 940.014,1993.039 926.645,2002.942C912.782,2013.34 898.67,2025.842 884.311,2040.449C869.952,2055.055 856.707,2071.271 844.576,2089.096C832.445,2106.921 821.924,2125.86 813.011,2145.913C804.099,2165.966 797.91,2186.638 794.444,2207.929Z" style="fill:rgb(255,0,40);fill-rule:nonzero;"/>
        <path d="M1834.976,1649.414C1796.355,1722.694 1772.093,1759.334 1762.19,1759.334C1752.783,1759.334 1756.496,1725.665 1773.331,1658.326C1754.516,1693.481 1738.424,1720.219 1725.055,1738.539C1711.686,1756.859 1698.318,1766.019 1684.949,1766.019C1672.075,1766.019 1657.84,1757.106 1642.243,1739.281C1626.646,1721.456 1606.965,1693.481 1583.198,1655.355C1593.101,1688.035 1600.156,1715.267 1604.365,1737.053C1608.574,1758.839 1609.564,1776.293 1607.336,1789.414C1605.108,1802.535 1599.414,1811.943 1590.254,1817.637C1581.094,1823.331 1567.849,1826.178 1550.519,1826.178C1537.645,1826.178 1522.42,1824.94 1504.842,1822.464C1487.265,1819.989 1466.841,1816.523 1443.569,1812.067C1479.714,1828.406 1506.699,1842.27 1524.524,1853.658C1542.349,1865.046 1551.385,1875.692 1551.633,1885.595C1551.881,1895.497 1543.958,1905.4 1527.866,1915.303C1511.774,1925.206 1488.132,1936.594 1456.938,1949.467C1464.86,1948.972 1472.04,1948.601 1478.476,1948.353C1484.913,1948.106 1490.855,1947.982 1496.301,1947.982C1531.951,1947.982 1544.825,1953.181 1534.922,1963.579C1525.019,1973.977 1491.598,1988.583 1434.657,2007.398C1467.336,2007.398 1491.721,2008.76 1507.813,2011.483C1523.905,2014.207 1530.713,2018.663 1528.238,2024.852C1525.762,2031.041 1513.012,2039.459 1489.988,2050.104C1466.964,2060.749 1432.429,2074.242 1386.381,2090.582C1411.633,2086.62 1433.79,2083.65 1452.853,2081.669C1471.916,2079.689 1487.884,2078.698 1500.758,2078.698C1521.058,2078.698 1534.427,2081.669 1540.864,2087.611C1547.301,2093.552 1546.682,2103.579 1539.007,2117.69C1531.332,2131.802 1516.602,2150.493 1494.816,2173.765C1473.03,2197.036 1444.064,2226.002 1407.919,2260.661C1455.948,2225.507 1494.568,2198.769 1523.781,2180.449C1552.995,2162.129 1576.266,2152.969 1593.596,2152.969C1604.489,2152.969 1613.278,2156.93 1619.962,2164.852C1626.646,2172.774 1631.845,2185.029 1635.559,2201.616C1639.272,2218.203 1641.996,2239.123 1643.729,2264.375C1645.462,2289.627 1646.576,2319.583 1647.071,2354.242C1655.488,2287.399 1663.658,2238.999 1671.58,2209.043C1679.502,2179.087 1689.405,2164.109 1701.288,2164.109C1710.696,2164.109 1721.713,2172.032 1734.339,2187.876C1746.965,2203.721 1762.685,2226.249 1781.501,2255.462C1767.142,2212.385 1758.972,2181.316 1756.991,2162.253C1755.011,2143.19 1758.477,2133.659 1767.389,2133.659C1773.331,2133.659 1781.501,2137.372 1791.899,2144.799C1802.296,2152.226 1814.675,2162.624 1829.034,2175.993C1804.772,2121.033 1802.792,2093.552 1823.092,2093.552C1834.976,2093.552 1856.514,2102.712 1887.708,2121.033C1869.388,2094.79 1858.618,2075.232 1855.4,2062.359C1852.182,2049.485 1858.742,2043.048 1875.082,2043.048C1883.994,2043.048 1896.001,2045.029 1911.103,2048.99C1926.205,2052.951 1944.896,2058.893 1967.177,2066.815C1946.382,2050.971 1929.918,2037.354 1917.787,2025.966C1905.656,2014.578 1898.725,2005.294 1896.992,1998.115C1895.259,1990.935 1898.972,1985.612 1908.132,1982.146C1917.292,1978.68 1932.765,1976.947 1954.551,1976.947C1983.764,1976.947 2025.851,1979.918 2080.811,1985.86C2026.841,1969.52 1985.745,1954.295 1957.522,1940.183C1929.299,1926.072 1913.702,1910.97 1910.732,1894.878C1907.761,1878.786 1917.168,1860.343 1938.954,1839.547C1960.741,1818.751 1994.657,1793.499 2040.705,1763.791C2003.57,1787.557 1973.367,1804.516 1950.095,1814.666C1926.824,1824.816 1908.751,1829.892 1895.877,1829.892C1879.538,1829.892 1870.378,1823.083 1868.397,1809.467C1866.417,1795.851 1868.769,1778.769 1875.453,1758.22C1882.137,1737.672 1891.545,1715.391 1903.676,1691.377C1915.807,1667.363 1927.814,1644.71 1939.697,1623.419C1910.484,1675.904 1886.717,1714.277 1868.397,1738.539C1850.077,1762.8 1836.709,1774.931 1828.291,1774.931C1819.874,1774.931 1816.284,1764.162 1817.522,1742.624C1818.76,1721.085 1824.578,1690.015 1834.976,1649.414ZM1818.636,2022.995C1805.267,2022.995 1795.736,2025.223 1790.042,2029.68C1784.348,2034.136 1781.377,2040.944 1781.129,2050.104C1780.882,2059.264 1782.738,2070.9 1786.7,2085.011C1790.661,2099.123 1795.365,2115.586 1800.811,2134.401C1776.549,2097.266 1755.011,2078.698 1736.196,2078.698C1724.312,2078.698 1712.553,2086.249 1700.917,2101.351C1689.281,2116.452 1677.522,2140.095 1665.638,2172.279C1670.095,2142.076 1670.961,2119.918 1668.238,2105.807C1665.515,2091.696 1658.706,2084.64 1647.813,2084.64C1639.396,2084.64 1628.008,2088.972 1613.649,2097.637C1599.29,2106.302 1581.713,2118.804 1560.917,2135.144C1578.742,2109.892 1593.967,2088.477 1606.593,2070.9C1619.219,2053.322 1625.532,2038.963 1625.532,2027.823C1625.532,2016.682 1617.734,2008.512 1602.137,2003.314C1586.54,1998.115 1559.679,1995.515 1521.553,1995.515L1494.816,1995.515C1531.951,1982.642 1561.783,1969.025 1584.312,1954.666C1606.841,1940.307 1622.685,1922.977 1631.845,1902.677C1641.005,1882.376 1644.224,1858.238 1641.5,1830.263C1638.777,1802.288 1630.731,1768.247 1617.362,1728.141C1636.673,1759.334 1651.898,1781.616 1663.039,1794.984C1674.18,1808.353 1683.711,1815.037 1691.633,1815.037C1699.06,1815.037 1705.868,1809.467 1712.058,1798.327C1718.247,1787.186 1726.045,1772.703 1735.453,1754.878C1730.997,1799.936 1733.967,1822.464 1744.365,1822.464C1755.753,1822.464 1773.578,1798.945 1797.84,1751.907C1776.054,1834.595 1786.452,1875.939 1829.034,1875.939C1852.305,1875.939 1884.242,1863.066 1924.843,1837.319C1896.62,1864.056 1873.225,1886.337 1854.657,1904.162C1836.09,1921.987 1824.949,1938.079 1821.235,1952.438C1817.522,1966.797 1822.597,1980.413 1836.461,1993.287C1850.325,2006.161 1875.824,2021.262 1912.96,2038.592C1869.883,2028.194 1838.441,2022.995 1818.636,2022.995Z" style="fill:rgb(255,0,40);fill-rule:nonzero;"/>
    </g>
    <g transform="matrix(0.70143,0,0,0.70143,-516.456308,-538.061932)">
        <path d="M842.196,3207.67L900.176,3135.538L794.717,3222.735L925.742,3222.735C932.742,3222.735 938.525,3221.594 943.09,3219.311C947.656,3217.029 951.46,3214.518 954.504,3211.779C957.852,3208.735 960.439,3205.235 962.265,3201.278C964.091,3205.235 966.678,3208.735 970.026,3211.779C972.461,3214.518 975.885,3217.029 980.298,3219.311C984.711,3221.594 990.113,3222.735 996.505,3222.735L1130.269,3222.735L1024.81,3135.538L1082.789,3207.67L1002.44,3207.67C994.526,3207.67 987.678,3204.778 981.896,3198.996C976.113,3193.213 973.221,3186.365 973.221,3178.452L973.221,2936.033C973.221,2927.815 976.113,2920.815 981.896,2915.032C987.678,2909.249 994.526,2906.358 1002.44,2906.358L1082.789,2906.358L1024.81,2978.947L1130.269,2891.292L999.244,2891.292C992.244,2891.292 986.461,2892.434 981.896,2894.716C977.33,2896.999 973.526,2899.358 970.482,2901.793C967.134,2905.141 964.395,2908.793 962.265,2912.749C960.439,2908.793 958.004,2905.141 954.96,2901.793C952.525,2899.358 949.101,2896.999 944.688,2894.716C940.275,2892.434 934.873,2891.292 928.481,2891.292L794.717,2891.292L900.176,2978.947L842.196,2906.358L922.546,2906.358C930.46,2906.358 937.308,2909.249 943.09,2915.032C948.873,2920.815 951.764,2927.815 951.764,2936.033L951.764,3178.452C951.764,3186.365 948.873,3193.213 943.09,3198.996C937.308,3204.778 930.46,3207.67 922.546,3207.67L842.196,3207.67Z" style="fill:rgb(23,23,23);fill-rule:nonzero;"/>
        <path d="M1338.448,2999.034C1336.926,2999.034 1336.165,2999.795 1336.165,3001.317L1336.165,3002.23C1336.165,3003.752 1336.926,3004.513 1338.448,3004.513L1396.884,3004.513C1406.015,3004.513 1414.156,3005.273 1421.309,3006.795C1428.461,3008.317 1434.548,3011.056 1439.57,3015.013C1444.592,3018.969 1448.396,3024.296 1450.983,3030.991C1453.57,3037.687 1454.864,3046.209 1454.864,3056.557C1454.864,3073.906 1451.516,3090.645 1444.82,3106.776C1438.124,3122.907 1429.146,3137.135 1417.885,3149.462C1406.624,3161.788 1393.46,3171.68 1378.395,3179.136C1363.329,3186.593 1347.274,3190.321 1330.23,3190.321C1314.708,3190.321 1299.871,3187.658 1285.718,3182.332C1271.566,3177.006 1259.239,3169.093 1248.739,3158.592C1238.239,3148.092 1229.869,3134.929 1223.63,3119.102C1217.391,3103.276 1214.271,3084.862 1214.271,3063.862C1214.271,3045.905 1217.01,3029.85 1222.489,3015.698C1227.967,3001.545 1235.119,2988.838 1243.946,2977.577C1252.772,2966.316 1262.892,2956.5 1274.305,2948.131C1285.718,2939.761 1297.36,2932.532 1309.23,2926.445C1336.926,2912.445 1368.427,2902.401 1403.732,2896.314L1404.189,2896.314C1405.406,2896.314 1406.015,2895.553 1406.015,2894.032L1406.015,2893.118C1406.015,2891.597 1405.406,2890.836 1404.189,2890.836L1221.119,2890.836C1217.771,2890.836 1215.032,2892.358 1212.901,2895.401L1153.552,2991.273C1152.639,2992.795 1152.791,2993.86 1154.009,2994.469C1154.617,2994.773 1154.922,2994.925 1154.922,2994.925C1155.835,2994.925 1156.443,2994.469 1156.748,2993.556L1184.596,2949.272C1188.857,2942.881 1193.651,2936.489 1198.977,2930.098C1204.303,2923.706 1210.314,2918 1217.01,2912.978C1223.706,2907.956 1231.01,2903.923 1238.924,2900.88C1246.837,2897.836 1255.511,2896.314 1264.946,2896.314L1329.317,2896.314C1333.883,2896.314 1336.165,2898.293 1336.165,2902.249C1336.165,2905.293 1335.024,2907.423 1332.741,2908.641C1330.459,2909.858 1328.404,2910.771 1326.578,2911.38C1307.099,2918.076 1288.077,2926.978 1269.511,2938.087C1250.946,2949.196 1234.511,2962.664 1220.206,2978.49C1205.901,2994.317 1194.792,3012.578 1186.879,3033.274C1178.966,3053.97 1176.074,3077.406 1178.205,3103.58C1179.727,3120.32 1184.064,3136.222 1191.216,3151.288C1198.368,3166.354 1208.032,3179.517 1220.206,3190.778C1232.38,3202.039 1246.837,3211.018 1263.577,3217.713C1280.316,3224.409 1298.73,3227.757 1318.817,3227.757C1339.209,3227.757 1358.003,3223.572 1375.199,3215.203C1392.395,3206.833 1407.308,3195.039 1419.939,3179.821C1432.57,3164.603 1442.385,3146.494 1449.385,3125.494C1456.386,3104.493 1459.886,3081.514 1459.886,3056.557C1459.886,3081.514 1463.386,3104.493 1470.386,3125.494C1477.386,3146.494 1487.126,3164.603 1499.604,3179.821C1512.083,3195.039 1526.996,3206.833 1544.344,3215.203C1561.693,3223.572 1580.563,3227.757 1600.954,3227.757C1621.651,3227.757 1640.292,3224.409 1656.88,3217.713C1673.467,3211.018 1687.848,3202.039 1700.022,3190.778C1712.196,3179.517 1721.784,3166.354 1728.784,3151.288C1735.784,3136.222 1740.045,3120.32 1741.567,3103.58C1743.697,3077.406 1740.806,3053.97 1732.892,3033.274C1724.979,3012.578 1713.946,2994.317 1699.794,2978.49C1685.641,2962.664 1669.206,2949.196 1650.488,2938.087C1631.77,2926.978 1612.824,2918.076 1593.65,2911.38C1591.519,2910.771 1589.237,2909.858 1586.802,2908.641C1584.367,2907.423 1583.302,2905.293 1583.606,2902.249C1583.606,2898.293 1586.041,2896.314 1590.911,2896.314L1651.63,2896.314C1661.978,2896.314 1671.413,2897.836 1679.935,2900.88C1688.457,2903.923 1696.142,2907.956 1702.99,2912.978C1709.838,2918 1715.925,2923.63 1721.251,2929.869C1726.577,2936.109 1731.219,2942.576 1735.175,2949.272L1762.567,2993.556C1763.176,2994.469 1763.785,2994.925 1764.393,2994.925C1765.002,2994.925 1765.459,2994.773 1765.763,2994.469C1766.98,2993.556 1767.132,2992.491 1766.219,2991.273L1706.414,2895.401C1704.892,2892.358 1702.305,2890.836 1698.653,2890.836L1515.126,2890.836C1513.909,2890.836 1513.3,2891.597 1513.3,2893.118L1513.3,2894.032C1513.3,2894.945 1514.061,2895.705 1515.583,2896.314C1550.888,2902.401 1582.541,2912.445 1610.542,2926.445C1622.411,2932.532 1634.053,2939.761 1645.466,2948.131C1656.88,2956.5 1667,2966.316 1675.826,2977.577C1684.652,2988.838 1691.805,3001.545 1697.283,3015.698C1702.761,3029.85 1705.501,3045.905 1705.501,3063.862C1705.501,3084.862 1702.381,3103.276 1696.142,3119.102C1689.902,3134.929 1681.533,3148.092 1671.032,3158.592C1660.532,3169.093 1648.282,3177.006 1634.281,3182.332C1620.281,3187.658 1605.368,3190.321 1589.541,3190.321C1572.497,3190.321 1556.442,3186.593 1541.377,3179.136C1526.311,3171.68 1513.072,3161.788 1501.658,3149.462C1490.245,3137.135 1481.191,3122.907 1474.495,3106.776C1467.799,3090.645 1464.451,3073.906 1464.451,3056.557C1464.451,3046.514 1465.821,3038.144 1468.56,3031.448C1471.299,3024.752 1475.18,3019.426 1480.201,3015.469C1485.223,3011.513 1491.31,3008.697 1498.463,3007.023C1505.615,3005.35 1513.757,3004.513 1522.887,3004.513L1581.324,3004.513C1582.845,3004.513 1583.606,3003.752 1583.606,3002.23L1583.606,3001.317C1583.606,2999.795 1582.845,2999.034 1581.324,2999.034L1338.448,2999.034Z" style="fill:rgb(23,23,23);fill-rule:nonzero;"/>
        <path d="M1998.595,3219.996C1997.986,3219.996 1997.682,3220.301 1997.682,3220.909L1997.682,3221.822C1997.682,3222.431 1997.986,3222.735 1998.595,3222.735L2119.119,3222.735C2120.033,3222.735 2120.489,3222.431 2120.489,3221.822L2120.489,3220.909C2120.489,3220.301 2120.033,3219.996 2119.119,3219.996L2104.967,3219.996C2095.532,3219.996 2088.912,3218.322 2085.108,3214.974C2081.303,3211.626 2078.184,3206.148 2075.749,3198.539C2060.531,3151.668 2046.379,3104.798 2033.291,3057.927C2020.204,3011.056 2007.269,2963.881 1994.486,2916.402C1992.66,2910.01 1992.66,2904.684 1994.486,2900.423C1996.312,2896.162 2000.573,2894.032 2007.269,2894.032L2034.661,2894.032C2035.574,2894.032 2036.03,2893.575 2036.03,2892.662L2036.03,2892.205C2036.03,2891.597 2035.574,2891.292 2034.661,2891.292L1852.048,2891.292C1850.83,2891.292 1850.221,2891.597 1850.221,2892.205L1850.221,2892.662C1850.221,2893.575 1850.83,2894.032 1852.048,2894.032L1885.831,2894.032C1891.918,2894.032 1894.962,2896.771 1894.962,2902.249C1894.962,2904.684 1894.657,2907.043 1894.049,2909.325C1893.44,2911.608 1892.375,2914.88 1890.853,2919.141C1888.114,2926.141 1884.842,2934.435 1881.037,2944.022C1877.233,2953.609 1873.352,2963.425 1869.396,2973.468C1865.439,2983.512 1861.635,2993.251 1857.983,3002.686C1854.33,3012.121 1851.135,3020.339 1848.395,3027.339C1842.613,3042.253 1836.754,3056.862 1830.819,3071.166C1824.884,3085.471 1819.634,3099.091 1815.068,3112.026C1810.503,3124.961 1806.775,3137.135 1803.883,3148.549C1800.992,3159.962 1799.546,3170.386 1799.546,3179.821C1799.546,3195.952 1803.503,3207.67 1811.416,3214.974C1819.329,3222.279 1829.221,3225.931 1841.091,3225.931C1850.83,3225.931 1859.657,3223.268 1867.57,3217.942C1875.483,3212.616 1883.016,3205.92 1890.168,3197.854C1897.32,3189.789 1904.168,3181.115 1910.712,3171.832C1917.256,3162.549 1924.028,3153.875 1931.028,3145.81C1938.028,3137.744 1945.409,3131.048 1953.17,3125.722C1960.931,3120.396 1969.377,3117.733 1978.507,3117.733C1993.116,3117.733 2004.377,3121.994 2012.291,3130.516C2020.204,3139.038 2025.987,3148.777 2029.639,3159.734C2032.074,3166.43 2033.976,3172.821 2035.346,3178.908C2036.715,3184.995 2038.161,3190.474 2039.683,3195.343C2040.291,3198.083 2040.52,3200.974 2040.368,3204.017C2040.215,3207.061 2039.302,3209.724 2037.628,3212.007C2035.954,3214.289 2033.215,3216.192 2029.411,3217.713C2025.606,3219.235 2020.508,3219.996 2014.117,3219.996L1998.595,3219.996ZM1877.157,3034.644C1894.505,3034.644 1907.136,3038.524 1915.049,3046.285C1922.962,3054.046 1926.919,3066.601 1926.919,3083.949L1926.919,3131.429C1920.223,3136.298 1913.68,3141.472 1907.288,3146.951C1900.897,3152.429 1894.657,3157.451 1888.57,3162.016C1882.483,3166.582 1876.548,3170.31 1870.765,3173.202C1864.983,3176.093 1859.2,3177.539 1853.417,3177.539C1844.895,3177.539 1837.134,3174.875 1830.134,3169.549C1823.134,3164.223 1819.634,3155.321 1819.634,3142.842C1819.634,3135.233 1820.927,3126.483 1823.514,3116.591C1826.101,3106.7 1829.145,3096.732 1832.645,3086.688C1836.145,3076.645 1839.721,3067.058 1843.373,3057.927C1847.026,3048.796 1850.069,3041.035 1852.504,3034.644L1877.157,3034.644ZM1894.962,2924.163C1898.614,2915.032 1903.255,2909.097 1908.886,2906.358C1914.517,2903.619 1920.528,2902.097 1926.919,2901.793L1926.919,2981.229C1926.919,2999.186 1923.115,3012.121 1915.506,3020.035C1907.897,3027.948 1895.114,3031.905 1877.157,3031.905L1853.417,3031.905C1857.983,3020.035 1862.548,3008.089 1867.113,2996.067C1871.679,2984.045 1875.94,2973.012 1879.896,2962.968C1883.853,2952.924 1887.125,2944.402 1889.712,2937.402C1892.299,2930.402 1894.049,2925.989 1894.962,2924.163ZM2009.095,3086.232C2009.704,3088.362 2010.312,3090.949 2010.921,3093.993C2011.53,3097.037 2011.91,3099.928 2012.062,3102.667C2012.215,3105.406 2012.062,3107.917 2011.606,3110.2C2011.149,3112.483 2010.16,3114.08 2008.638,3114.994C2008.03,3115.298 2006.965,3115.45 2005.443,3115.45C2002.399,3115.45 1998.823,3114.765 1994.714,3113.396C1990.605,3112.026 1985.051,3111.341 1978.051,3111.341C1969.529,3111.341 1961.311,3113.091 1953.398,3116.591C1945.485,3120.091 1937.571,3124.429 1929.658,3129.603L1929.658,3083.949C1929.658,3066.297 1933.387,3053.666 1940.843,3046.057C1948.3,3038.448 1961.007,3034.644 1978.964,3034.644L1994.942,3034.644C1997.377,3043.166 1999.736,3051.764 2002.019,3060.438C2004.301,3069.112 2006.66,3077.71 2009.095,3086.232ZM1978.964,3031.905C1961.616,3031.905 1949.061,3027.796 1941.3,3019.578C1933.539,3011.361 1929.658,2998.578 1929.658,2981.229L1929.658,2901.793C1940.311,2902.097 1948.224,2904.38 1953.398,2908.641C1958.572,2912.902 1962.224,2918.684 1964.355,2925.989C1967.703,2937.554 1971.964,2952.62 1977.138,2971.186C1982.312,2989.751 1987.942,3009.991 1994.029,3031.905L1978.964,3031.905Z" style="fill:rgb(23,23,23);fill-rule:nonzero;"/>
        <path d="M2396.692,2920.967C2396.692,2911.836 2398.898,2905.597 2403.311,2902.249C2407.724,2898.901 2414.344,2897.227 2423.17,2897.227L2431.845,2897.227C2433.062,2897.227 2433.671,2896.314 2433.671,2894.488L2433.671,2893.118C2433.671,2891.901 2433.062,2891.292 2431.845,2891.292L2346.929,2891.292C2345.103,2891.292 2344.19,2891.901 2344.19,2893.118L2344.19,2894.488C2344.19,2896.314 2345.103,2897.227 2346.929,2897.227L2355.147,2897.227C2364.886,2897.227 2371.734,2898.901 2375.691,2902.249C2379.648,2905.597 2381.626,2911.836 2381.626,2920.967L2381.626,3168.864L2190.795,2891.292L2069.814,2891.292C2067.988,2891.292 2067.075,2892.205 2067.075,2894.032C2067.075,2894.336 2067.227,2894.64 2067.531,2894.945C2067.836,2895.249 2067.988,2895.553 2067.988,2895.858L2133.729,3013.187C2134.033,3014.404 2134.794,3014.708 2136.011,3014.1C2136.924,3013.187 2137.229,3012.274 2136.924,3011.361C2135.098,3007.404 2131.75,3001.012 2126.881,2992.186C2122.011,2983.36 2117.141,2973.925 2112.271,2963.881C2107.402,2953.837 2103.293,2943.87 2099.945,2933.978C2096.597,2924.087 2095.38,2916.249 2096.293,2910.467C2097.206,2905.293 2099.412,2901.793 2102.913,2899.966C2106.413,2898.14 2110.293,2897.227 2114.554,2897.227L2128.25,2897.227C2136.163,2897.227 2141.718,2898.977 2144.914,2902.477C2148.109,2905.977 2149.707,2912.141 2149.707,2920.967L2149.707,3188.495C2149.707,3199.148 2147.577,3206.605 2143.316,3210.865C2139.055,3215.126 2132.511,3217.257 2123.685,3217.257L2115.011,3217.257C2113.185,3217.257 2112.271,3218.018 2112.271,3219.54L2112.271,3220.909C2112.271,3222.127 2113.185,3222.735 2115.011,3222.735L2200.382,3222.735C2201.295,3222.735 2201.752,3222.127 2201.752,3220.909L2201.752,3219.54C2201.752,3218.018 2201.295,3217.257 2200.382,3217.257L2191.708,3217.257C2181.969,3217.257 2175.121,3215.279 2171.164,3211.322C2167.208,3207.365 2165.229,3199.757 2165.229,3188.495L2165.229,2915.032L2372.952,3222.735L2477.041,3222.735C2478.868,3222.735 2479.781,3222.127 2479.781,3220.909C2479.781,3220.301 2479.628,3219.768 2479.324,3219.311C2479.02,3218.855 2478.868,3218.474 2478.868,3218.17L2412.67,3100.841L2412.214,3100.841C2411.909,3100.232 2411.453,3100.232 2410.844,3100.841C2410.235,3101.145 2409.931,3101.754 2409.931,3102.667C2412.062,3106.624 2415.562,3113.244 2420.431,3122.526C2425.301,3131.809 2430.171,3141.701 2435.04,3152.201C2439.91,3162.701 2443.943,3172.821 2447.138,3182.56C2450.334,3192.3 2451.476,3199.452 2450.562,3204.017C2448.736,3212.844 2442.649,3217.257 2432.301,3217.257L2423.17,3217.257C2414.344,3217.257 2407.724,3215.659 2403.311,3212.463C2398.898,3209.268 2396.692,3202.8 2396.692,3193.061L2396.692,2920.967Z" style="fill:rgb(23,23,23);fill-rule:nonzero;"/>
        <path d="M2540.956,3207.67L2598.936,3135.538L2493.477,3222.735L2624.502,3222.735C2631.502,3222.735 2637.284,3221.594 2641.85,3219.311C2646.415,3217.029 2650.22,3214.518 2653.263,3211.779C2656.611,3208.735 2659.198,3205.235 2661.024,3201.278C2662.85,3205.235 2665.437,3208.735 2668.785,3211.779C2671.22,3214.518 2674.644,3217.029 2679.057,3219.311C2683.47,3221.594 2688.873,3222.735 2695.264,3222.735L2829.028,3222.735L2723.569,3135.538L2781.549,3207.67L2701.199,3207.67C2693.286,3207.67 2686.438,3204.778 2680.655,3198.996C2674.872,3193.213 2671.981,3186.365 2671.981,3178.452L2671.981,2936.033C2671.981,2927.815 2674.872,2920.815 2680.655,2915.032C2686.438,2909.249 2693.286,2906.358 2701.199,2906.358L2781.549,2906.358L2723.569,2978.947L2829.028,2891.292L2698.003,2891.292C2691.003,2891.292 2685.22,2892.434 2680.655,2894.716C2676.09,2896.999 2672.285,2899.358 2669.242,2901.793C2665.894,2905.141 2663.155,2908.793 2661.024,2912.749C2659.198,2908.793 2656.763,2905.141 2653.72,2901.793C2651.285,2899.358 2647.861,2896.999 2643.448,2894.716C2639.035,2892.434 2633.632,2891.292 2627.241,2891.292L2493.477,2891.292L2598.936,2978.947L2540.956,2906.358L2621.306,2906.358C2629.219,2906.358 2636.067,2909.249 2641.85,2915.032C2647.633,2920.815 2650.524,2927.815 2650.524,2936.033L2650.524,3178.452C2650.524,3186.365 2647.633,3193.213 2641.85,3198.996C2636.067,3204.778 2629.219,3207.67 2621.306,3207.67L2540.956,3207.67Z" style="fill:rgb(23,23,23);fill-rule:nonzero;"/>
        <path d="M3058.208,3219.996C3057.599,3219.996 3057.295,3220.301 3057.295,3220.909L3057.295,3221.822C3057.295,3222.431 3057.599,3222.735 3058.208,3222.735L3178.733,3222.735C3179.646,3222.735 3180.102,3222.431 3180.102,3221.822L3180.102,3220.909C3180.102,3220.301 3179.646,3219.996 3178.733,3219.996L3164.58,3219.996C3155.145,3219.996 3148.525,3218.322 3144.721,3214.974C3140.917,3211.626 3137.797,3206.148 3135.362,3198.539C3120.144,3151.668 3105.992,3104.798 3092.904,3057.927C3079.817,3011.056 3066.882,2963.881 3054.099,2916.402C3052.273,2910.01 3052.273,2904.684 3054.099,2900.423C3055.925,2896.162 3060.186,2894.032 3066.882,2894.032L3094.274,2894.032C3095.187,2894.032 3095.644,2893.575 3095.644,2892.662L3095.644,2892.205C3095.644,2891.597 3095.187,2891.292 3094.274,2891.292L2911.661,2891.292C2910.443,2891.292 2909.835,2891.597 2909.835,2892.205L2909.835,2892.662C2909.835,2893.575 2910.443,2894.032 2911.661,2894.032L2945.444,2894.032C2951.531,2894.032 2954.575,2896.771 2954.575,2902.249C2954.575,2904.684 2954.271,2907.043 2953.662,2909.325C2953.053,2911.608 2951.988,2914.88 2950.466,2919.141C2947.727,2926.141 2944.455,2934.435 2940.651,2944.022C2936.846,2953.609 2932.966,2963.425 2929.009,2973.468C2925.052,2983.512 2921.248,2993.251 2917.596,3002.686C2913.944,3012.121 2910.748,3020.339 2908.009,3027.339C2902.226,3042.253 2896.367,3056.862 2890.432,3071.166C2884.497,3085.471 2879.247,3099.091 2874.682,3112.026C2870.116,3124.961 2866.388,3137.135 2863.497,3148.549C2860.605,3159.962 2859.16,3170.386 2859.16,3179.821C2859.16,3195.952 2863.116,3207.67 2871.029,3214.974C2878.943,3222.279 2888.834,3225.931 2900.704,3225.931C2910.443,3225.931 2919.27,3223.268 2927.183,3217.942C2935.096,3212.616 2942.629,3205.92 2949.781,3197.854C2956.934,3189.789 2963.782,3181.115 2970.325,3171.832C2976.869,3162.549 2983.641,3153.875 2990.641,3145.81C2997.641,3137.744 3005.022,3131.048 3012.783,3125.722C3020.544,3120.396 3028.99,3117.733 3038.121,3117.733C3052.73,3117.733 3063.991,3121.994 3071.904,3130.516C3079.817,3139.038 3085.6,3148.777 3089.252,3159.734C3091.687,3166.43 3093.589,3172.821 3094.959,3178.908C3096.328,3184.995 3097.774,3190.474 3099.296,3195.343C3099.905,3198.083 3100.133,3200.974 3099.981,3204.017C3099.829,3207.061 3098.915,3209.724 3097.242,3212.007C3095.568,3214.289 3092.828,3216.192 3089.024,3217.713C3085.22,3219.235 3080.122,3219.996 3073.73,3219.996L3058.208,3219.996ZM2936.77,3034.644C2954.118,3034.644 2966.749,3038.524 2974.662,3046.285C2982.576,3054.046 2986.532,3066.601 2986.532,3083.949L2986.532,3131.429C2979.836,3136.298 2973.293,3141.472 2966.901,3146.951C2960.51,3152.429 2954.271,3157.451 2948.183,3162.016C2942.096,3166.582 2936.161,3170.31 2930.379,3173.202C2924.596,3176.093 2918.813,3177.539 2913.03,3177.539C2904.509,3177.539 2896.747,3174.875 2889.747,3169.549C2882.747,3164.223 2879.247,3155.321 2879.247,3142.842C2879.247,3135.233 2880.541,3126.483 2883.128,3116.591C2885.715,3106.7 2888.758,3096.732 2892.258,3086.688C2895.758,3076.645 2899.334,3067.058 2902.987,3057.927C2906.639,3048.796 2909.683,3041.035 2912.117,3034.644L2936.77,3034.644ZM2954.575,2924.163C2958.227,2915.032 2962.869,2909.097 2968.499,2906.358C2974.13,2903.619 2980.141,2902.097 2986.532,2901.793L2986.532,2981.229C2986.532,2999.186 2982.728,3012.121 2975.119,3020.035C2967.51,3027.948 2954.727,3031.905 2936.77,3031.905L2913.03,3031.905C2917.596,3020.035 2922.161,3008.089 2926.726,2996.067C2931.292,2984.045 2935.553,2973.012 2939.509,2962.968C2943.466,2952.924 2946.738,2944.402 2949.325,2937.402C2951.912,2930.402 2953.662,2925.989 2954.575,2924.163ZM3068.708,3086.232C3069.317,3088.362 3069.926,3090.949 3070.534,3093.993C3071.143,3097.037 3071.524,3099.928 3071.676,3102.667C3071.828,3105.406 3071.676,3107.917 3071.219,3110.2C3070.763,3112.483 3069.773,3114.08 3068.252,3114.994C3067.643,3115.298 3066.578,3115.45 3065.056,3115.45C3062.012,3115.45 3058.436,3114.765 3054.327,3113.396C3050.219,3112.026 3044.664,3111.341 3037.664,3111.341C3029.142,3111.341 3020.924,3113.091 3013.011,3116.591C3005.098,3120.091 2997.185,3124.429 2989.271,3129.603L2989.271,3083.949C2989.271,3066.297 2993,3053.666 3000.457,3046.057C3007.913,3038.448 3020.62,3034.644 3038.577,3034.644L3054.556,3034.644C3056.991,3043.166 3059.349,3051.764 3061.632,3060.438C3063.915,3069.112 3066.273,3077.71 3068.708,3086.232ZM3038.577,3031.905C3021.229,3031.905 3008.674,3027.796 3000.913,3019.578C2993.152,3011.361 2989.271,2998.578 2989.271,2981.229L2989.271,2901.793C2999.924,2902.097 3007.837,2904.38 3013.011,2908.641C3018.185,2912.902 3021.837,2918.684 3023.968,2925.989C3027.316,2937.554 3031.577,2952.62 3036.751,2971.186C3041.925,2989.751 3047.556,3009.991 3053.643,3031.905L3038.577,3031.905Z" style="fill:rgb(23,23,23);fill-rule:nonzero;"/>
        <path d="M3452.653,3178.908C3452.653,3182.56 3451.816,3186.517 3450.142,3190.778C3448.468,3195.039 3446.109,3198.843 3443.065,3202.191C3440.022,3205.539 3436.522,3208.355 3432.565,3210.637C3428.608,3212.92 3424.5,3214.061 3420.239,3214.061C3415.065,3214.061 3411.184,3212.768 3408.597,3210.181C3406.01,3207.594 3404.717,3204.322 3404.717,3200.365C3404.717,3196.104 3405.63,3192.604 3407.456,3189.865C3409.282,3187.126 3411.26,3184.539 3413.391,3182.104C3415.521,3179.669 3417.499,3177.31 3419.326,3175.028C3421.152,3172.745 3422.065,3170.082 3422.065,3167.038C3422.065,3164.299 3421,3161.712 3418.869,3159.277C3416.739,3156.842 3413.391,3155.625 3408.825,3155.625C3403.956,3155.625 3399.39,3156.614 3395.129,3158.592C3390.868,3160.571 3387.064,3161.56 3383.716,3161.56C3380.064,3161.56 3377.401,3160.571 3375.727,3158.592C3374.053,3156.614 3373.216,3154.255 3373.216,3151.516C3373.216,3147.56 3375.575,3143.679 3380.292,3139.875C3385.01,3136.07 3390.868,3132.114 3397.869,3128.005C3404.869,3123.896 3412.402,3119.559 3420.467,3114.994C3428.532,3110.428 3436.065,3105.635 3443.065,3100.613C3450.066,3095.591 3455.924,3090.189 3460.642,3084.406C3465.359,3078.623 3467.718,3072.536 3467.718,3066.145C3467.718,3059.753 3465.512,3054.275 3461.098,3049.709C3456.685,3045.144 3449.609,3042.861 3439.87,3042.861C3433.782,3042.861 3427.924,3043.47 3422.293,3044.687C3416.663,3045.905 3411.26,3047.198 3406.086,3048.568C3400.912,3049.938 3395.89,3051.231 3391.021,3052.449C3386.151,3053.666 3381.433,3054.275 3376.868,3054.275C3372.911,3054.275 3369.716,3053.666 3367.281,3052.449C3364.846,3051.231 3363.324,3048.948 3362.716,3045.601C3361.802,3037.992 3370.02,3031.448 3387.368,3025.97C3391.021,3024.752 3394.749,3023.839 3398.553,3023.23C3402.358,3022.622 3406.086,3021.861 3409.738,3020.948C3413.391,3020.035 3416.891,3018.741 3420.239,3017.067C3423.587,3015.393 3426.63,3013.187 3429.369,3010.447C3434.543,3004.36 3437.359,2997.056 3437.815,2988.534C3438.272,2980.012 3439.109,2971.49 3440.326,2962.968C3442.761,2948.968 3445.881,2939.076 3449.685,2933.293C3453.49,2927.511 3458.892,2924.619 3465.892,2924.619C3469.24,2924.619 3472.055,2925.761 3474.338,2928.043C3476.621,2930.326 3477.762,2933.598 3477.762,2937.859C3477.762,2941.815 3476.697,2945.924 3474.566,2950.185C3472.436,2954.446 3470.001,2958.783 3467.262,2963.196C3464.522,2967.609 3462.088,2972.099 3459.957,2976.664C3457.827,2981.229 3456.761,2985.947 3456.761,2990.817C3456.761,3000.556 3459.881,3007.48 3466.12,3011.589C3472.36,3015.698 3479.892,3017.752 3488.719,3017.752C3495.11,3017.752 3501.273,3016.382 3507.208,3013.643C3513.143,3010.904 3518.241,3007.252 3522.502,3002.686C3526.763,2998.121 3530.187,2992.871 3532.774,2986.936C3535.361,2981.001 3536.655,2974.99 3536.655,2968.903C3536.655,2964.033 3535.133,2959.848 3532.089,2956.348C3529.046,2952.848 3524.937,2951.098 3519.763,2951.098C3513.676,2951.098 3509.11,2953.153 3506.067,2957.261C3503.023,2961.37 3501.502,2966.62 3501.502,2973.012C3501.502,2975.751 3501.121,2979.175 3500.36,2983.284C3499.599,2987.393 3498.306,2991.349 3496.48,2995.154C3494.654,2998.958 3492.219,3002.23 3489.175,3004.969C3486.132,3007.708 3482.479,3009.078 3478.218,3009.078C3474.262,3009.078 3470.609,3007.556 3467.262,3004.513C3463.914,3001.469 3462.24,2996.751 3462.24,2990.36C3462.24,2983.36 3465.055,2976.816 3470.686,2970.729C3476.316,2964.642 3482.479,2958.327 3489.175,2951.783C3495.871,2945.239 3502.034,2938.087 3507.665,2930.326C3513.295,2922.565 3516.111,2913.51 3516.111,2903.162C3516.111,2895.553 3513.676,2889.618 3508.806,2885.357C3503.936,2881.096 3497.849,2878.966 3490.545,2878.966C3482.632,2878.966 3475.707,2881.325 3469.773,2886.042C3463.838,2890.76 3458.587,2896.771 3454.022,2904.075C3449.457,2911.38 3445.424,2919.445 3441.924,2928.272C3438.424,2937.098 3434.924,2945.848 3431.424,2954.522C3427.924,2963.196 3424.347,2971.186 3420.695,2978.49C3417.043,2985.795 3412.934,2991.425 3408.369,2995.382C3393.76,3007.86 3380.596,3017.524 3368.879,3024.372C3357.161,3031.22 3347.193,3036.698 3338.976,3040.807C3330.758,3044.916 3324.443,3048.568 3320.03,3051.764C3315.617,3054.959 3313.258,3059.297 3312.953,3064.775C3312.345,3069.949 3313.79,3073.677 3317.29,3075.96C3320.791,3078.243 3324.823,3079.384 3329.389,3079.384C3334.867,3079.384 3340.574,3078.167 3346.509,3075.732C3352.444,3073.297 3358.607,3070.634 3364.998,3067.742C3371.39,3064.851 3378.085,3062.188 3385.086,3059.753C3392.086,3057.318 3399.238,3056.101 3406.543,3056.101C3416.586,3056.101 3423.891,3058.764 3428.456,3064.09C3433.022,3069.416 3435.304,3075.123 3435.304,3081.21C3435.304,3087.602 3433.098,3093.232 3428.685,3098.102C3424.271,3102.972 3418.793,3107.613 3412.249,3112.026C3405.706,3116.439 3398.477,3120.852 3390.564,3125.266C3382.651,3129.679 3375.194,3134.624 3368.194,3140.103C3361.194,3145.581 3355.183,3151.821 3350.161,3158.821C3345.139,3165.821 3342.019,3174.038 3340.802,3183.474C3340.193,3189.256 3340.726,3194.811 3342.4,3200.137C3344.074,3205.463 3346.813,3210.181 3350.617,3214.289C3354.422,3218.398 3359.368,3221.746 3365.455,3224.333C3371.542,3226.92 3378.694,3228.214 3386.912,3228.214C3401.216,3228.214 3414.532,3225.018 3426.858,3218.627C3439.185,3212.235 3449.837,3204.322 3458.816,3194.887C3467.794,3185.452 3474.794,3175.408 3479.816,3164.756C3484.838,3154.103 3487.349,3144.668 3487.349,3136.451C3487.349,3130.363 3485.371,3125.266 3481.414,3121.157C3477.457,3117.048 3472.588,3114.994 3466.805,3114.994C3461.631,3114.994 3456.685,3117.048 3451.968,3121.157C3447.25,3125.266 3444.891,3131.277 3444.891,3139.19C3444.891,3143.146 3445.272,3146.647 3446.033,3149.69C3446.794,3152.734 3447.707,3155.701 3448.772,3158.592C3449.837,3161.484 3450.75,3164.451 3451.511,3167.495C3452.272,3170.538 3452.653,3174.343 3452.653,3178.908ZM3260.452,2985.795C3256.8,2985.795 3253.68,2986.175 3251.093,2986.936C3248.506,2987.697 3246.147,2988.458 3244.017,2989.219C3241.886,2989.98 3239.832,2990.74 3237.854,2991.501C3235.875,2992.262 3233.669,2992.643 3231.234,2992.643C3223.321,2992.643 3217.614,2990.056 3214.114,2984.882C3210.614,2979.708 3208.864,2974.534 3208.864,2969.359C3208.864,2963.577 3210.538,2958.859 3213.886,2955.207C3217.234,2951.555 3221.19,2949.729 3225.756,2949.729C3231.234,2949.729 3235.952,2951.098 3239.908,2953.837C3243.865,2956.577 3247.517,2959.696 3250.865,2963.196C3254.213,2966.696 3257.485,2969.816 3260.68,2972.555C3263.876,2975.294 3267.757,2976.664 3272.322,2976.664C3277.192,2976.664 3280.768,2974.381 3283.05,2969.816C3285.333,2965.251 3287.159,2959.62 3288.529,2952.924C3289.898,2946.228 3291.192,2938.924 3292.409,2931.011C3293.627,2923.097 3295.453,2915.793 3297.888,2909.097C3300.323,2902.401 3303.747,2896.771 3308.16,2892.205C3312.573,2887.64 3318.888,2885.357 3327.106,2885.357C3334.106,2885.357 3339.661,2886.727 3343.769,2889.466C3347.878,2892.205 3349.933,2895.705 3349.933,2899.966C3349.933,2903.923 3347.802,2907.956 3343.541,2912.065C3339.28,2916.173 3334.639,2920.206 3329.617,2924.163C3324.595,2928.119 3319.954,2932.152 3315.693,2936.261C3311.432,2940.37 3309.453,2944.402 3309.758,2948.359C3310.062,2952.924 3311.736,2955.74 3314.78,2956.805C3317.823,2957.87 3321.095,2958.479 3324.595,2958.631C3328.095,2958.783 3331.291,2959.088 3334.182,2959.544C3337.074,2960.001 3338.519,2962.055 3338.519,2965.707C3338.519,2972.099 3336.769,2978.11 3333.269,2983.74C3329.769,2989.371 3325.356,2994.925 3320.03,3000.404C3314.703,3005.882 3308.921,3011.437 3302.681,3017.067C3296.442,3022.698 3290.583,3028.633 3285.105,3034.872C3279.626,3041.111 3274.985,3047.883 3271.181,3055.188C3267.376,3062.492 3265.322,3070.405 3265.017,3078.927C3264.713,3091.102 3265.398,3101.145 3267.072,3109.059C3268.746,3116.972 3270.724,3124.048 3273.007,3130.287C3275.289,3136.527 3277.42,3142.614 3279.398,3148.549C3281.377,3154.484 3282.366,3161.56 3282.366,3169.778C3282.366,3176.473 3280.92,3183.093 3278.029,3189.637C3275.137,3196.18 3271.485,3202.039 3267.072,3207.213C3262.659,3212.387 3257.789,3216.496 3252.463,3219.54C3247.137,3222.583 3242.191,3224.105 3237.625,3224.105C3225.756,3224.105 3216.625,3221.518 3210.233,3216.344C3203.842,3211.17 3200.646,3205.539 3200.646,3199.452C3200.646,3194.887 3202.853,3191.158 3207.266,3188.267C3211.679,3185.376 3216.473,3182.484 3221.647,3179.593C3226.821,3176.702 3231.614,3173.354 3236.028,3169.549C3240.441,3165.745 3242.647,3160.495 3242.647,3153.799C3242.647,3147.712 3240.669,3142.309 3236.712,3137.592C3232.756,3132.874 3227.125,3130.516 3219.821,3130.516C3215.255,3130.516 3210.918,3131.733 3206.809,3134.168C3202.701,3136.603 3198.972,3139.951 3195.624,3144.212C3192.277,3148.473 3189.613,3153.266 3187.635,3158.592C3185.657,3163.919 3184.668,3169.625 3184.668,3175.712C3184.668,3181.495 3185.581,3187.43 3187.407,3193.517C3189.233,3199.604 3192.2,3205.159 3196.309,3210.181C3200.418,3215.203 3205.896,3219.387 3212.744,3222.735C3219.592,3226.083 3228.038,3227.757 3238.082,3227.757C3250.256,3227.757 3261.974,3225.322 3273.235,3220.453C3284.496,3215.583 3294.388,3209.42 3302.91,3201.963C3311.432,3194.506 3318.204,3186.061 3323.225,3176.626C3328.247,3167.19 3330.758,3157.908 3330.758,3148.777C3330.758,3142.386 3329.313,3137.288 3326.421,3133.483C3323.53,3129.679 3319.954,3126.331 3315.693,3123.439C3311.432,3120.548 3306.79,3117.885 3301.768,3115.45C3296.746,3113.015 3292.105,3110.124 3287.844,3106.776C3283.583,3103.428 3280.007,3099.243 3277.116,3094.221C3274.224,3089.199 3272.779,3082.732 3272.779,3074.819C3272.779,3067.818 3275.518,3061.047 3280.996,3054.503C3286.474,3047.959 3293.322,3041.34 3301.54,3034.644C3309.758,3027.948 3318.66,3021.1 3328.247,3014.1C3337.834,3007.1 3346.737,2999.643 3354.954,2991.73C3363.172,2983.816 3370.02,2975.294 3375.498,2966.164C3380.977,2957.033 3383.716,2947.142 3383.716,2936.489C3383.716,2918.837 3378.846,2904.836 3369.107,2894.488C3359.368,2884.14 3346.737,2878.966 3331.215,2878.966C3320.562,2878.966 3312.269,2881.477 3306.334,2886.499C3300.399,2891.521 3295.529,2897.379 3291.725,2904.075C3287.92,2910.771 3284.496,2917.391 3281.453,2923.934C3278.409,2930.478 3274.3,2935.272 3269.126,2938.315C3263.039,2941.968 3256.115,2944.098 3248.354,2944.707C3240.593,2945.315 3233.212,2945.62 3226.212,2945.62C3220.125,2945.62 3214.875,2947.674 3210.462,2951.783C3206.049,2955.892 3203.842,2962.055 3203.842,2970.273C3203.842,2977.577 3205.136,2984.958 3207.723,2992.414C3210.31,2999.871 3213.962,3006.643 3218.679,3012.73C3223.397,3018.817 3229.027,3023.839 3235.571,3027.796C3242.115,3031.752 3249.343,3033.731 3257.256,3033.731C3265.17,3033.731 3271.561,3031.068 3276.431,3025.741C3281.3,3020.415 3283.735,3014.861 3283.735,3009.078C3283.735,3003.904 3281.909,2998.73 3278.257,2993.556C3274.605,2988.382 3268.67,2985.795 3260.452,2985.795Z" style="fill:rgb(23,23,23);fill-rule:nonzero;"/>
    </g>
    <g transform="matrix(3.682948,0,0,3.682948,-1556.423049,-426.069147)">
        <path d="M889.603,344.482C879.87,362.95 873.755,372.184 871.259,372.184C868.888,372.184 869.824,363.699 874.067,346.728C869.325,355.588 865.27,362.326 861.9,366.943C858.531,371.56 855.162,373.869 851.793,373.869C848.548,373.869 844.961,371.622 841.03,367.13C837.099,362.638 832.139,355.588 826.149,345.979C828.645,354.215 830.423,361.078 831.484,366.569C832.545,372.059 832.794,376.458 832.233,379.765C831.671,383.072 830.236,385.442 827.928,386.878C825.619,388.313 822.281,389.03 817.914,389.03C814.669,389.03 810.832,388.718 806.402,388.094C801.972,387.47 796.825,386.597 790.96,385.474C800.069,389.592 806.87,393.086 811.362,395.956C815.855,398.826 818.132,401.509 818.194,404.004C818.257,406.5 816.26,408.996 812.205,411.492C808.149,413.987 802.191,416.857 794.329,420.102C796.326,419.977 798.135,419.883 799.757,419.821C801.379,419.759 802.877,419.727 804.249,419.727C813.234,419.727 816.478,421.038 813.983,423.658C811.487,426.279 803.064,429.96 788.714,434.702C796.95,434.702 803.095,435.045 807.151,435.731C811.206,436.417 812.922,437.541 812.298,439.1C811.674,440.66 808.461,442.782 802.658,445.464C796.856,448.147 788.152,451.548 776.547,455.666C782.911,454.667 788.495,453.919 793.3,453.42C798.104,452.92 802.128,452.671 805.373,452.671C810.489,452.671 813.858,453.42 815.48,454.917C817.102,456.414 816.946,458.941 815.012,462.498C813.078,466.054 809.366,470.765 803.875,476.63C798.385,482.495 791.085,489.795 781.975,498.53C794.079,489.67 803.813,482.931 811.175,478.314C818.537,473.697 824.402,471.389 828.77,471.389C831.515,471.389 833.73,472.387 835.415,474.384C837.099,476.38 838.41,479.469 839.345,483.649C840.281,487.829 840.968,493.101 841.404,499.465C841.841,505.829 842.122,513.379 842.247,522.114C844.368,505.268 846.427,493.07 848.424,485.521C850.42,477.971 852.916,474.196 855.911,474.196C858.282,474.196 861.058,476.193 864.24,480.186C867.422,484.179 871.384,489.857 876.126,497.219C872.507,486.363 870.448,478.533 869.949,473.728C869.45,468.924 870.323,466.522 872.57,466.522C874.067,466.522 876.126,467.458 878.747,469.33C881.367,471.201 884.487,473.822 888.105,477.191C881.991,463.34 881.492,456.414 886.608,456.414C889.603,456.414 895.031,458.723 902.893,463.34C898.275,456.726 895.561,451.797 894.75,448.553C893.939,445.308 895.593,443.686 899.711,443.686C901.957,443.686 904.983,444.185 908.789,445.184C912.595,446.182 917.305,447.679 922.921,449.676C917.68,445.683 913.531,442.251 910.473,439.381C907.416,436.511 905.669,434.171 905.232,432.362C904.796,430.553 905.731,429.211 908.04,428.338C910.349,427.464 914.248,427.027 919.739,427.027C927.101,427.027 937.708,427.776 951.559,429.273C937.957,425.156 927.6,421.318 920.487,417.762C913.375,414.206 909.444,410.4 908.695,406.344C907.946,402.289 910.317,397.64 915.808,392.399C921.298,387.158 929.846,380.794 941.451,373.307C932.092,379.297 924.48,383.571 918.616,386.129C912.751,388.687 908.196,389.966 904.952,389.966C900.834,389.966 898.525,388.25 898.026,384.819C897.527,381.387 898.12,377.082 899.804,371.903C901.489,366.725 903.86,361.109 906.917,355.057C909.974,349.005 913,343.296 915.995,337.93C908.633,351.158 902.643,360.829 898.026,366.943C893.409,373.058 890.04,376.115 887.918,376.115C885.797,376.115 884.892,373.401 885.204,367.972C885.516,362.544 886.982,354.714 889.603,344.482ZM885.485,438.632C882.116,438.632 879.714,439.194 878.279,440.317C876.844,441.44 876.095,443.156 876.032,445.464C875.97,447.773 876.438,450.705 877.436,454.262C878.435,457.818 879.62,461.967 880.993,466.709C874.878,457.35 869.45,452.671 864.708,452.671C861.713,452.671 858.75,454.574 855.817,458.38C852.885,462.186 849.921,468.144 846.926,476.255C848.049,468.643 848.268,463.059 847.581,459.503C846.895,455.946 845.179,454.168 842.434,454.168C840.313,454.168 837.442,455.26 833.824,457.444C830.205,459.628 825.775,462.778 820.534,466.896C825.026,460.532 828.863,455.135 832.045,450.705C835.228,446.276 836.819,442.657 836.819,439.849C836.819,437.041 834.853,434.982 830.922,433.672C826.992,432.362 820.222,431.707 810.614,431.707L803.875,431.707C813.234,428.462 820.752,425.031 826.43,421.412C832.108,417.793 836.101,413.426 838.41,408.309C840.718,403.193 841.529,397.11 840.843,390.06C840.157,383.009 838.129,374.43 834.76,364.323C839.626,372.184 843.463,377.799 846.271,381.169C849.079,384.538 851.481,386.222 853.477,386.222C855.349,386.222 857.065,384.819 858.625,382.011C860.185,379.203 862.15,375.553 864.521,371.061C863.398,382.416 864.147,388.094 866.767,388.094C869.637,388.094 874.129,382.167 880.244,370.312C874.753,391.151 877.374,401.571 888.105,401.571C893.97,401.571 902.019,398.327 912.251,391.838C905.139,398.576 899.243,404.192 894.563,408.684C889.884,413.176 887.076,417.232 886.14,420.85C885.204,424.469 886.483,427.901 889.977,431.145C893.471,434.39 899.898,438.196 909.257,442.563C898.4,439.943 890.476,438.632 885.485,438.632Z" style="fill:rgb(23,23,23);fill-rule:nonzero;"/>
    </g>
    <g transform="matrix(2.286427,0,0,2.286427,-490.023321,-107.710208)">
        <path d="M958.603,435.327C945.309,460.552 936.958,473.165 933.549,473.165C930.31,473.165 931.589,461.575 937.384,438.395C930.907,450.496 925.368,459.7 920.766,466.006C916.164,472.312 911.562,475.465 906.96,475.465C902.529,475.465 897.629,472.398 892.26,466.262C886.891,460.126 880.116,450.496 871.935,437.372C875.344,448.621 877.773,457.995 879.221,465.495C880.67,472.994 881.011,479.002 880.244,483.519C879.477,488.035 877.517,491.274 874.364,493.234C871.211,495.194 866.651,496.174 860.686,496.174C856.255,496.174 851.014,495.748 844.963,494.896C838.913,494.043 831.882,492.85 823.871,491.316C836.313,496.941 845.602,501.713 851.738,505.633C857.874,509.553 860.984,513.218 861.07,516.627C861.155,520.035 858.428,523.444 852.888,526.853C847.349,530.262 839.211,534.182 828.473,538.613C831.2,538.443 833.672,538.315 835.887,538.23C838.103,538.144 840.148,538.102 842.023,538.102C854.295,538.102 858.726,539.891 855.317,543.471C851.908,547.05 840.404,552.078 820.803,558.555C832.052,558.555 840.446,559.023 845.986,559.961C851.525,560.898 853.869,562.432 853.016,564.562C852.164,566.693 847.775,569.59 839.85,573.255C831.925,576.919 820.036,581.564 804.186,587.188C812.878,585.825 820.505,584.802 827.067,584.12C833.629,583.439 839.126,583.098 843.557,583.098C850.545,583.098 855.147,584.12 857.363,586.166C859.578,588.211 859.365,591.662 856.723,596.52C854.082,601.377 849.011,607.811 841.512,615.822C834.012,623.833 824.042,633.803 811.6,645.734C828.132,633.633 841.426,624.429 851.482,618.123C861.538,611.817 869.549,608.664 875.514,608.664C879.264,608.664 882.289,610.027 884.59,612.754C886.891,615.481 888.681,619.699 889.959,625.409C891.237,631.119 892.175,638.32 892.771,647.012C893.368,655.705 893.751,666.016 893.922,677.947C896.819,654.938 899.631,638.277 902.358,627.966C905.085,617.654 908.494,612.498 912.585,612.498C915.823,612.498 919.615,615.225 923.962,620.68C928.308,626.134 933.719,633.889 940.196,643.944C935.253,629.116 932.441,618.421 931.759,611.859C931.077,605.297 932.27,602.016 935.338,602.016C937.384,602.016 940.196,603.295 943.775,605.851C947.354,608.408 951.615,611.987 956.558,616.589C948.207,597.67 947.525,588.211 954.513,588.211C958.603,588.211 966.017,591.364 976.755,597.67C970.449,588.637 966.742,581.905 965.634,577.473C964.526,573.042 966.784,570.826 972.409,570.826C975.477,570.826 979.61,571.508 984.808,572.871C990.007,574.235 996.441,576.28 1004.111,579.007C996.952,573.553 991.285,568.866 987.109,564.946C982.933,561.026 980.547,557.83 979.951,555.359C979.354,552.887 980.633,551.055 983.786,549.862C986.939,548.669 992.265,548.073 999.764,548.073C1009.82,548.073 1024.308,549.095 1043.226,551.14C1024.648,545.516 1010.502,540.275 1000.787,535.417C991.072,530.56 985.703,525.362 984.68,519.822C983.658,514.283 986.896,507.934 994.395,500.776C1001.895,493.617 1013.57,484.925 1029.421,474.699C1016.638,482.88 1006.241,488.717 998.23,492.211C990.22,495.705 983.999,497.452 979.567,497.452C973.943,497.452 970.79,495.109 970.108,490.422C969.426,485.734 970.236,479.854 972.537,472.781C974.838,465.708 978.076,458.038 982.252,449.772C986.427,441.506 990.561,433.708 994.651,426.379C984.595,444.446 976.414,457.655 970.108,466.006C963.802,474.358 959.2,478.533 956.302,478.533C953.405,478.533 952.169,474.826 952.595,467.412C953.021,459.998 955.024,449.303 958.603,435.327ZM952.979,563.923C948.377,563.923 945.096,564.69 943.136,566.224C941.176,567.758 940.153,570.102 940.068,573.255C939.983,576.408 940.622,580.413 941.985,585.271C943.349,590.128 944.968,595.795 946.843,602.272C938.491,589.489 931.077,583.098 924.601,583.098C920.51,583.098 916.462,585.697 912.457,590.895C908.452,596.094 904.404,604.232 900.313,615.311C901.847,604.914 902.145,597.287 901.208,592.429C900.271,587.572 897.927,585.143 894.177,585.143C891.28,585.143 887.36,586.634 882.417,589.617C877.474,592.6 871.424,596.903 864.265,602.528C870.401,593.835 875.642,586.464 879.988,580.413C884.334,574.363 886.508,569.42 886.508,565.585C886.508,561.75 883.823,558.938 878.454,557.148C873.086,555.359 863.839,554.464 850.715,554.464L841.512,554.464C854.295,550.033 864.564,545.345 872.319,540.403C880.074,535.46 885.528,529.495 888.681,522.507C891.834,515.519 892.942,507.21 892.004,497.58C891.067,487.95 888.297,476.232 883.695,462.427C890.342,473.165 895.583,480.834 899.418,485.436C903.253,490.038 906.534,492.339 909.261,492.339C911.818,492.339 914.161,490.422 916.292,486.587C918.422,482.752 921.107,477.766 924.345,471.631C922.811,487.141 923.834,494.896 927.413,494.896C931.333,494.896 937.469,486.8 945.82,470.608C938.321,499.071 941.9,513.303 956.558,513.303C964.569,513.303 975.562,508.872 989.538,500.009C979.823,509.212 971.77,516.882 965.378,523.018C958.987,529.154 955.152,534.693 953.874,539.636C952.595,544.579 954.342,549.266 959.115,553.697C963.887,558.128 972.665,563.327 985.447,569.292C970.619,565.713 959.796,563.923 952.979,563.923Z" style="fill:rgb(255,185,0);fill-rule:nonzero;"/>
    </g>
    <g transform="matrix(1.90629,0,0,1.90629,-266.98844,462.402072)">
        <path d="M1023.93,244.643C1010.636,269.868 1002.285,282.481 998.876,282.481C995.638,282.481 996.916,270.891 1002.711,247.711C996.234,259.812 990.695,269.016 986.093,275.322C981.491,281.629 976.889,284.782 972.287,284.782C967.856,284.782 962.956,281.714 957.587,275.578C952.218,269.442 945.443,259.812 937.262,246.689C940.671,257.938 943.1,267.312 944.548,274.811C945.997,282.31 946.338,288.318 945.571,292.835C944.804,297.352 942.844,300.59 939.691,302.55C936.538,304.51 931.979,305.49 926.013,305.49C921.582,305.49 916.341,305.064 910.29,304.212C904.24,303.36 897.209,302.166 889.198,300.632C901.64,306.257 910.929,311.029 917.065,314.949C923.201,318.869 926.312,322.534 926.397,325.943C926.482,329.351 923.755,332.76 918.216,336.169C912.676,339.578 904.538,343.498 893.8,347.929C896.527,347.759 898.999,347.631 901.214,347.546C903.43,347.461 905.475,347.418 907.35,347.418C919.622,347.418 924.053,349.208 920.644,352.787C917.236,356.366 905.731,361.394 886.131,367.871C897.379,367.871 905.774,368.339 911.313,369.277C916.852,370.214 919.196,371.748 918.343,373.879C917.491,376.009 913.102,378.907 905.177,382.571C897.252,386.235 885.364,390.88 869.513,396.504C878.205,395.141 885.832,394.118 892.394,393.437C898.956,392.755 904.453,392.414 908.884,392.414C915.872,392.414 920.474,393.437 922.69,395.482C924.905,397.527 924.692,400.978 922.051,405.836C919.409,410.693 914.338,417.128 906.839,425.138C899.34,433.149 889.369,443.119 876.927,455.05C893.459,442.949 906.754,433.745 916.81,427.439C926.865,421.133 934.876,417.98 940.841,417.98C944.591,417.98 947.616,419.343 949.917,422.07C952.218,424.797 954.008,429.016 955.286,434.725C956.564,440.435 957.502,447.636 958.098,456.329C958.695,465.021 959.078,475.332 959.249,487.263C962.146,464.254 964.959,447.594 967.686,437.282C970.413,426.97 973.821,421.815 977.912,421.815C981.15,421.815 984.943,424.542 989.289,429.996C993.635,435.45 999.046,443.205 1005.523,453.261C1000.58,438.432 997.768,427.737 997.086,421.175C996.405,414.614 997.598,411.333 1000.666,411.333C1002.711,411.333 1005.523,412.611 1009.102,415.167C1012.681,417.724 1016.942,421.303 1021.885,425.905C1013.534,406.986 1012.852,397.527 1019.84,397.527C1023.93,397.527 1031.345,400.68 1042.082,406.986C1035.776,397.953 1032.069,391.221 1030.961,386.789C1029.853,382.358 1032.112,380.142 1037.736,380.142C1040.804,380.142 1044.937,380.824 1050.135,382.188C1055.334,383.551 1061.768,385.596 1069.438,388.323C1062.279,382.869 1056.612,378.182 1052.436,374.262C1048.261,370.342 1045.874,367.146 1045.278,364.675C1044.681,362.204 1045.96,360.371 1049.113,359.178C1052.266,357.985 1057.592,357.389 1065.091,357.389C1075.147,357.389 1089.635,358.411 1108.553,360.457C1089.976,354.832 1075.829,349.591 1066.114,344.734C1056.399,339.876 1051.03,334.678 1050.008,329.138C1048.985,323.599 1052.223,317.25 1059.723,310.092C1067.222,302.933 1078.897,294.241 1094.748,284.015C1081.965,292.196 1071.568,298.033 1063.558,301.527C1055.547,305.021 1049.326,306.768 1044.894,306.768C1039.27,306.768 1036.117,304.425 1035.435,299.738C1034.753,295.051 1035.563,289.17 1037.864,282.097C1040.165,275.024 1043.403,267.354 1047.579,259.088C1051.755,250.822 1055.888,243.024 1059.978,235.695C1049.922,253.762 1041.741,266.971 1035.435,275.322C1029.129,283.674 1024.527,287.85 1021.63,287.85C1018.732,287.85 1017.496,284.143 1017.922,276.728C1018.349,269.314 1020.351,258.619 1023.93,244.643ZM1018.306,373.239C1013.704,373.239 1010.423,374.006 1008.463,375.54C1006.503,377.074 1005.48,379.418 1005.395,382.571C1005.31,385.724 1005.949,389.729 1007.313,394.587C1008.676,399.444 1010.295,405.112 1012.17,411.588C1003.819,398.805 996.405,392.414 989.928,392.414C985.837,392.414 981.789,395.013 977.784,400.211C973.779,405.41 969.731,413.548 965.64,424.627C967.174,414.23 967.473,406.603 966.535,401.745C965.598,396.888 963.254,394.459 959.505,394.459C956.607,394.459 952.687,395.95 947.744,398.933C942.801,401.916 936.751,406.219 929.592,411.844C935.728,403.152 940.969,395.78 945.315,389.729C949.662,383.679 951.835,378.736 951.835,374.901C951.835,371.066 949.15,368.254 943.782,366.465C938.413,364.675 929.166,363.78 916.043,363.78L906.839,363.78C919.622,359.349 929.891,354.662 937.646,349.719C945.401,344.776 950.855,338.811 954.008,331.823C957.161,324.835 958.269,316.526 957.331,306.896C956.394,297.266 953.624,285.549 949.023,271.743C955.67,282.481 960.911,290.15 964.746,294.752C968.58,299.354 971.861,301.655 974.588,301.655C977.145,301.655 979.488,299.738 981.619,295.903C983.749,292.068 986.434,287.083 989.672,280.947C988.138,296.457 989.161,304.212 992.74,304.212C996.66,304.212 1002.796,296.116 1011.148,279.924C1003.648,308.387 1007.227,322.619 1021.885,322.619C1029.896,322.619 1040.889,318.188 1054.865,309.325C1045.15,318.529 1037.097,326.198 1030.705,332.334C1024.314,338.47 1020.479,344.009 1019.201,348.952C1017.922,353.895 1019.669,358.582 1024.442,363.013C1029.214,367.445 1037.992,372.643 1050.775,378.608C1035.946,375.029 1025.124,373.239 1018.306,373.239Z" style="fill:rgb(255,0,40);fill-rule:nonzero;"/>
    </g>
    <g transform="matrix(1.126971,0,0,1.126971,311.187958,409.63503)">
        <path d="M910.448,328.129C892.881,361.462 881.845,378.128 877.34,378.128C873.061,378.128 874.75,362.813 882.408,332.183C873.849,348.173 866.53,360.335 860.449,368.669C854.368,377.002 848.287,381.169 842.206,381.169C836.35,381.169 829.875,377.115 822.78,369.007C815.686,360.899 806.733,348.173 795.922,330.831C800.427,345.696 803.636,358.083 805.551,367.993C807.465,377.903 807.915,385.842 806.902,391.81C805.888,397.779 803.298,402.058 799.132,404.648C794.965,407.238 788.94,408.533 781.058,408.533C775.202,408.533 768.276,407.97 760.281,406.844C752.285,405.718 742.995,404.141 732.409,402.114C748.851,409.547 761.125,415.853 769.233,421.033C777.341,426.213 781.452,431.055 781.564,435.56C781.677,440.064 778.073,444.569 770.754,449.073C763.434,453.578 752.679,458.758 738.49,464.614C742.094,464.388 745.36,464.22 748.288,464.107C751.216,463.994 753.918,463.938 756.396,463.938C772.612,463.938 778.468,466.303 773.963,471.033C769.459,475.762 754.256,482.406 728.355,490.965C743.22,490.965 754.312,491.584 761.632,492.823C768.952,494.062 772.049,496.089 770.923,498.904C769.796,501.719 763.997,505.548 753.524,510.39C743.051,515.233 727.342,521.37 706.396,528.802C717.883,527 727.961,525.649 736.632,524.748C745.303,523.847 752.567,523.397 758.423,523.397C767.657,523.397 773.738,524.748 776.666,527.451C779.594,530.154 779.312,534.714 775.821,541.133C772.33,547.552 765.63,556.054 755.72,566.64C745.81,577.225 732.635,590.401 716.193,606.166C738.04,590.176 755.607,578.013 768.896,569.68C782.184,561.347 792.769,557.18 800.652,557.18C805.607,557.18 809.605,558.982 812.645,562.586C815.686,566.189 818.05,571.764 819.74,579.308C821.429,586.853 822.668,596.369 823.456,607.856C824.244,619.342 824.751,632.968 824.976,648.733C828.805,618.328 832.521,596.313 836.125,582.687C839.728,569.061 844.233,562.248 849.638,562.248C853.917,562.248 858.928,565.851 864.672,573.059C870.415,580.266 877.566,590.513 886.124,603.801C879.593,584.207 875.876,570.074 874.976,561.403C874.075,552.732 875.651,548.397 879.705,548.397C882.408,548.397 886.124,550.086 890.854,553.464C895.583,556.843 901.214,561.572 907.746,567.653C896.71,542.653 895.809,530.154 905.043,530.154C910.448,530.154 920.245,534.32 934.434,542.653C926.101,530.717 921.203,521.82 919.739,515.965C918.275,510.109 921.259,507.181 928.691,507.181C932.745,507.181 938.207,508.082 945.076,509.884C951.946,511.685 960.448,514.388 970.583,517.992C961.123,510.784 953.635,504.591 948.117,499.411C942.599,494.231 939.446,490.008 938.657,486.742C937.869,483.476 939.558,481.055 943.725,479.478C947.892,477.902 954.93,477.114 964.84,477.114C978.128,477.114 997.272,478.465 1022.271,481.168C997.722,473.735 979.029,466.81 966.191,460.391C953.353,453.972 946.259,447.103 944.907,439.783C943.556,432.463 947.835,424.074 957.745,414.614C967.655,405.155 983.083,393.668 1004.028,380.155C987.137,390.966 973.398,398.68 962.813,403.297C952.227,407.914 944.006,410.222 938.151,410.222C930.718,410.222 926.552,407.126 925.651,400.932C924.75,394.738 925.82,386.968 928.86,377.621C931.901,368.275 936.18,358.14 941.698,347.216C947.216,336.293 952.677,325.989 958.083,316.304C944.795,340.178 933.984,357.633 925.651,368.669C917.317,379.705 911.236,385.223 907.408,385.223C903.579,385.223 901.946,380.324 902.509,370.527C903.072,360.73 905.719,346.597 910.448,328.129ZM903.016,498.059C896.935,498.059 892.599,499.073 890.009,501.1C887.419,503.127 886.068,506.224 885.955,510.39C885.843,514.557 886.687,519.85 888.489,526.268C890.291,532.687 892.43,540.176 894.908,548.734C883.872,531.843 874.075,523.397 865.516,523.397C860.111,523.397 854.762,526.832 849.469,533.701C844.176,540.57 838.827,551.325 833.422,565.964C835.449,552.225 835.843,542.147 834.604,535.728C833.366,529.309 830.269,526.1 825.314,526.1C821.485,526.1 816.305,528.07 809.774,532.012C803.242,535.953 795.247,541.64 785.787,549.072C793.895,537.586 800.821,527.845 806.564,519.85C812.307,511.854 815.179,505.323 815.179,500.255C815.179,495.188 811.632,491.472 804.537,489.107C797.443,486.742 785.224,485.559 767.882,485.559L755.72,485.559C772.612,479.704 786.181,473.51 796.429,466.979C806.677,460.447 813.884,452.564 818.05,443.33C822.217,434.096 823.681,423.116 822.442,410.391C821.204,397.666 817.544,382.182 811.463,363.939C820.246,378.128 827.172,388.263 832.24,394.344C837.307,400.425 841.643,403.466 845.246,403.466C848.624,403.466 851.721,400.932 854.537,395.864C857.352,390.797 860.899,384.209 865.178,376.101C863.151,396.596 864.503,406.844 869.232,406.844C874.413,406.844 882.521,396.146 893.556,374.75C883.647,412.362 888.376,431.168 907.746,431.168C918.331,431.168 932.858,425.312 951.326,413.601C938.488,425.763 927.847,435.898 919.401,444.006C910.955,452.114 905.887,459.434 904.198,465.965C902.509,472.496 904.818,478.69 911.124,484.546C917.43,490.402 929.029,497.271 945.921,505.154C926.326,500.424 912.025,498.059 903.016,498.059Z" style="fill:rgb(23,23,23);fill-rule:nonzero;"/>
    </g>
    <g transform="matrix(1.257814,0,0,1.257814,323.290782,257.247535)">
        <path d="M798.319,435.327C785.025,460.552 776.673,473.165 773.265,473.165C770.026,473.165 771.305,461.575 777.099,438.395C770.623,450.496 765.083,459.7 760.482,466.006C755.88,472.312 751.278,475.465 746.676,475.465C742.245,475.465 737.345,472.398 731.976,466.262C726.607,460.126 719.832,450.496 711.651,437.372C715.06,448.621 717.488,457.995 718.937,465.495C720.386,472.994 720.727,479.002 719.96,483.519C719.193,488.035 717.233,491.274 714.08,493.234C710.927,495.194 706.367,496.174 700.402,496.174C695.97,496.174 690.729,495.748 684.679,494.896C678.628,494.043 671.598,492.85 663.587,491.316C676.029,496.941 685.318,501.713 691.454,505.633C697.59,509.553 700.7,513.218 700.785,516.627C700.871,520.035 698.144,523.444 692.604,526.853C687.065,530.262 678.927,534.182 668.189,538.613C670.916,538.443 673.387,538.315 675.603,538.23C677.819,538.144 679.864,538.102 681.739,538.102C694.01,538.102 698.442,539.891 695.033,543.471C691.624,547.05 680.12,552.078 660.519,558.555C671.768,558.555 680.162,559.023 685.702,559.961C691.241,560.898 693.584,562.432 692.732,564.562C691.88,566.693 687.491,569.59 679.566,573.255C671.64,576.919 659.752,581.564 643.901,587.188C652.594,585.825 660.221,584.802 666.783,584.12C673.345,583.439 678.841,583.098 683.273,583.098C690.261,583.098 694.863,584.12 697.078,586.166C699.294,588.211 699.081,591.662 696.439,596.52C693.797,601.377 688.727,607.811 681.228,615.822C673.728,623.833 663.758,633.803 651.315,645.734C667.848,633.633 681.142,624.429 691.198,618.123C701.254,611.817 709.265,608.664 715.23,608.664C718.98,608.664 722.005,610.027 724.306,612.754C726.607,615.481 728.396,619.699 729.675,625.409C730.953,631.119 731.89,638.32 732.487,647.012C733.084,655.705 733.467,666.016 733.637,677.947C736.535,654.938 739.347,638.277 742.074,627.966C744.801,617.654 748.21,612.498 752.301,612.498C755.539,612.498 759.331,615.225 763.677,620.68C768.024,626.134 773.435,633.889 779.912,643.944C774.969,629.116 772.157,618.421 771.475,611.859C770.793,605.297 771.986,602.016 775.054,602.016C777.099,602.016 779.912,603.295 783.491,605.851C787.07,608.408 791.331,611.987 796.274,616.589C787.922,597.67 787.241,588.211 794.229,588.211C798.319,588.211 805.733,591.364 816.471,597.67C810.165,588.637 806.458,581.905 805.35,577.473C804.242,573.042 806.5,570.826 812.125,570.826C815.193,570.826 819.326,571.508 824.524,572.871C829.722,574.235 836.157,576.28 843.826,579.007C836.668,573.553 831.001,568.866 826.825,564.946C822.649,561.026 820.263,557.83 819.667,555.359C819.07,552.887 820.348,551.055 823.501,549.862C826.655,548.669 831.981,548.073 839.48,548.073C849.536,548.073 864.023,549.095 882.942,551.14C864.364,545.516 850.218,540.275 840.503,535.417C830.788,530.56 825.419,525.362 824.396,519.822C823.374,514.283 826.612,507.934 834.111,500.776C841.611,493.617 853.286,484.925 869.137,474.699C856.354,482.88 845.957,488.717 837.946,492.211C829.936,495.705 823.715,497.452 819.283,497.452C813.659,497.452 810.505,495.109 809.824,490.422C809.142,485.734 809.952,479.854 812.252,472.781C814.553,465.708 817.792,458.038 821.968,449.772C826.143,441.506 830.276,433.708 834.367,426.379C824.311,444.446 816.13,457.655 809.824,466.006C803.517,474.358 798.916,478.533 796.018,478.533C793.121,478.533 791.885,474.826 792.311,467.412C792.737,459.998 794.74,449.303 798.319,435.327ZM792.695,563.923C788.093,563.923 784.812,564.69 782.852,566.224C780.892,567.758 779.869,570.102 779.784,573.255C779.699,576.408 780.338,580.413 781.701,585.271C783.065,590.128 784.684,595.795 786.559,602.272C778.207,589.489 770.793,583.098 764.317,583.098C760.226,583.098 756.178,585.697 752.173,590.895C748.167,596.094 744.119,604.232 740.029,615.311C741.563,604.914 741.861,597.287 740.924,592.429C739.986,587.572 737.643,585.143 733.893,585.143C730.996,585.143 727.076,586.634 722.133,589.617C717.19,592.6 711.14,596.903 703.981,602.528C710.117,593.835 715.358,586.464 719.704,580.413C724.05,574.363 726.223,569.42 726.223,565.585C726.223,561.75 723.539,558.938 718.17,557.148C712.801,555.359 703.555,554.464 690.431,554.464L681.228,554.464C694.01,550.033 704.279,545.345 712.034,540.403C719.789,535.46 725.243,529.495 728.396,522.507C731.55,515.519 732.657,507.21 731.72,497.58C730.783,487.95 728.013,476.232 723.411,462.427C730.058,473.165 735.299,480.834 739.134,485.436C742.969,490.038 746.25,492.339 748.977,492.339C751.534,492.339 753.877,490.422 756.008,486.587C758.138,482.752 760.823,477.766 764.061,471.631C762.527,487.141 763.55,494.896 767.129,494.896C771.049,494.896 777.185,486.8 785.536,470.608C778.037,499.071 781.616,513.303 796.274,513.303C804.284,513.303 815.278,508.872 829.254,500.009C819.539,509.212 811.486,516.882 805.094,523.018C798.703,529.154 794.868,534.693 793.589,539.636C792.311,544.579 794.058,549.266 798.83,553.697C803.603,558.128 812.38,563.327 825.163,569.292C810.335,565.713 799.512,563.923 792.695,563.923Z" style="fill:rgb(255,185,0);fill-rule:nonzero;"/>
    </g>
    <g transform="matrix(1.057338,0,0,1.057338,235.849429,568.041234)">
        <path d="M1023.93,244.643C1010.636,269.868 1002.285,282.481 998.876,282.481C995.638,282.481 996.916,270.891 1002.711,247.711C996.234,259.812 990.695,269.016 986.093,275.322C981.491,281.629 976.889,284.782 972.287,284.782C967.856,284.782 962.956,281.714 957.587,275.578C952.218,269.442 945.443,259.812 937.262,246.689C940.671,257.938 943.1,267.312 944.548,274.811C945.997,282.31 946.338,288.318 945.571,292.835C944.804,297.352 942.844,300.59 939.691,302.55C936.538,304.51 931.979,305.49 926.013,305.49C921.582,305.49 916.341,305.064 910.29,304.212C904.24,303.36 897.209,302.166 889.198,300.632C901.64,306.257 910.929,311.029 917.065,314.949C923.201,318.869 926.312,322.534 926.397,325.943C926.482,329.351 923.755,332.76 918.216,336.169C912.676,339.578 904.538,343.498 893.8,347.929C896.527,347.759 898.999,347.631 901.214,347.546C903.43,347.461 905.475,347.418 907.35,347.418C919.622,347.418 924.053,349.208 920.644,352.787C917.236,356.366 905.731,361.394 886.131,367.871C897.379,367.871 905.774,368.339 911.313,369.277C916.852,370.214 919.196,371.748 918.343,373.879C917.491,376.009 913.102,378.907 905.177,382.571C897.252,386.235 885.364,390.88 869.513,396.504C878.205,395.141 885.832,394.118 892.394,393.437C898.956,392.755 904.453,392.414 908.884,392.414C915.872,392.414 920.474,393.437 922.69,395.482C924.905,397.527 924.692,400.978 922.051,405.836C919.409,410.693 914.338,417.128 906.839,425.138C899.34,433.149 889.369,443.119 876.927,455.05C893.459,442.949 906.754,433.745 916.81,427.439C926.865,421.133 934.876,417.98 940.841,417.98C944.591,417.98 947.616,419.343 949.917,422.07C952.218,424.797 954.008,429.016 955.286,434.725C956.564,440.435 957.502,447.636 958.098,456.329C958.695,465.021 959.078,475.332 959.249,487.263C962.146,464.254 964.959,447.594 967.686,437.282C970.413,426.97 973.821,421.815 977.912,421.815C981.15,421.815 984.943,424.542 989.289,429.996C993.635,435.45 999.046,443.205 1005.523,453.261C1000.58,438.432 997.768,427.737 997.086,421.175C996.405,414.614 997.598,411.333 1000.666,411.333C1002.711,411.333 1005.523,412.611 1009.102,415.167C1012.681,417.724 1016.942,421.303 1021.885,425.905C1013.534,406.986 1012.852,397.527 1019.84,397.527C1023.93,397.527 1031.345,400.68 1042.082,406.986C1035.776,397.953 1032.069,391.221 1030.961,386.789C1029.853,382.358 1032.112,380.142 1037.736,380.142C1040.804,380.142 1044.937,380.824 1050.135,382.188C1055.334,383.551 1061.768,385.596 1069.438,388.323C1062.279,382.869 1056.612,378.182 1052.436,374.262C1048.261,370.342 1045.874,367.146 1045.278,364.675C1044.681,362.204 1045.96,360.371 1049.113,359.178C1052.266,357.985 1057.592,357.389 1065.091,357.389C1075.147,357.389 1089.635,358.411 1108.553,360.457C1089.976,354.832 1075.829,349.591 1066.114,344.734C1056.399,339.876 1051.03,334.678 1050.008,329.138C1048.985,323.599 1052.223,317.25 1059.723,310.092C1067.222,302.933 1078.897,294.241 1094.748,284.015C1081.965,292.196 1071.568,298.033 1063.558,301.527C1055.547,305.021 1049.326,306.768 1044.894,306.768C1039.27,306.768 1036.117,304.425 1035.435,299.738C1034.753,295.051 1035.563,289.17 1037.864,282.097C1040.165,275.024 1043.403,267.354 1047.579,259.088C1051.755,250.822 1055.888,243.024 1059.978,235.695C1049.922,253.762 1041.741,266.971 1035.435,275.322C1029.129,283.674 1024.527,287.85 1021.63,287.85C1018.732,287.85 1017.496,284.143 1017.922,276.728C1018.349,269.314 1020.351,258.619 1023.93,244.643ZM1018.306,373.239C1013.704,373.239 1010.423,374.006 1008.463,375.54C1006.503,377.074 1005.48,379.418 1005.395,382.571C1005.31,385.724 1005.949,389.729 1007.313,394.587C1008.676,399.444 1010.295,405.112 1012.17,411.588C1003.819,398.805 996.405,392.414 989.928,392.414C985.837,392.414 981.789,395.013 977.784,400.211C973.779,405.41 969.731,413.548 965.64,424.627C967.174,414.23 967.473,406.603 966.535,401.745C965.598,396.888 963.254,394.459 959.505,394.459C956.607,394.459 952.687,395.95 947.744,398.933C942.801,401.916 936.751,406.219 929.592,411.844C935.728,403.152 940.969,395.78 945.315,389.729C949.662,383.679 951.835,378.736 951.835,374.901C951.835,371.066 949.15,368.254 943.782,366.465C938.413,364.675 929.166,363.78 916.043,363.78L906.839,363.78C919.622,359.349 929.891,354.662 937.646,349.719C945.401,344.776 950.855,338.811 954.008,331.823C957.161,324.835 958.269,316.526 957.331,306.896C956.394,297.266 953.624,285.549 949.023,271.743C955.67,282.481 960.911,290.15 964.746,294.752C968.58,299.354 971.861,301.655 974.588,301.655C977.145,301.655 979.488,299.738 981.619,295.903C983.749,292.068 986.434,287.083 989.672,280.947C988.138,296.457 989.161,304.212 992.74,304.212C996.66,304.212 1002.796,296.116 1011.148,279.924C1003.648,308.387 1007.227,322.619 1021.885,322.619C1029.896,322.619 1040.889,318.188 1054.865,309.325C1045.15,318.529 1037.097,326.198 1030.705,332.334C1024.314,338.47 1020.479,344.009 1019.201,348.952C1017.922,353.895 1019.669,358.582 1024.442,363.013C1029.214,367.445 1037.992,372.643 1050.775,378.608C1035.946,375.029 1025.124,373.239 1018.306,373.239Z" style="fill:rgb(255,0,40);fill-rule:nonzero;"/>
    </g>
</svg>
