<?xml version="1.0" encoding="UTF-8" standalone="no"?>
<!DOCTYPE svg PUBLIC "-//W3C//DTD SVG 1.1//EN" "http://www.w3.org/Graphics/SVG/1.1/DTD/svg11.dtd">
<svg width="100%" height="100%" viewBox="0 0 3840 2160" version="1.1" xmlns="http://www.w3.org/2000/svg" xmlns:xlink="http://www.w3.org/1999/xlink" xml:space="preserve" xmlns:serif="http://www.serif.com/" style="fill-rule:evenodd;clip-rule:evenodd;stroke-linejoin:round;stroke-miterlimit:2;">
    <g id="mobile-bg-logo">
        <g id="IWANIAK" transform="matrix(0.659593,0,0,0.659593,1719.194482,-120.113529)">
            <path d="M586.419,2220.176L653.484,2136.741L531.5,2237.602L683.056,2237.602C691.153,2237.602 697.842,2236.282 703.122,2233.642C708.403,2231.001 712.804,2228.097 716.324,2224.928C720.197,2221.408 723.189,2217.359 725.301,2212.783C727.413,2217.359 730.406,2221.408 734.278,2224.928C737.095,2228.097 741.055,2231.001 746.16,2233.642C751.265,2236.282 757.513,2237.602 764.906,2237.602L919.631,2237.602L797.647,2136.741L864.712,2220.176L771.771,2220.176C762.618,2220.176 754.697,2216.831 748.008,2210.142C741.319,2203.454 737.975,2195.533 737.975,2186.379L737.975,1905.974C737.975,1896.469 741.319,1888.372 748.008,1881.683C754.697,1874.994 762.618,1871.65 771.771,1871.65L864.712,1871.65L797.647,1955.613L919.631,1854.224L768.075,1854.224C759.978,1854.224 753.289,1855.544 748.008,1858.184C742.728,1860.824 738.327,1863.553 734.806,1866.369C730.934,1870.242 727.766,1874.466 725.301,1879.043C723.189,1874.466 720.373,1870.242 716.852,1866.369C714.036,1863.553 710.075,1860.824 704.971,1858.184C699.866,1855.544 693.617,1854.224 686.224,1854.224L531.5,1854.224L653.484,1955.613L586.419,1871.65L679.359,1871.65C688.512,1871.65 696.433,1874.994 703.122,1881.683C709.811,1888.372 713.156,1896.469 713.156,1905.974L713.156,2186.379C713.156,2195.533 709.811,2203.454 703.122,2210.142C696.433,2216.831 688.512,2220.176 679.359,2220.176L586.419,2220.176Z" style="fill-rule:nonzero;"/>
            <path d="M1160.431,1978.848C1158.67,1978.848 1157.79,1979.728 1157.79,1981.488L1157.79,1982.544C1157.79,1984.305 1158.67,1985.185 1160.431,1985.185L1228.024,1985.185C1238.585,1985.185 1248.002,1986.065 1256.275,1987.825C1264.548,1989.585 1271.589,1992.754 1277.398,1997.33C1283.207,2001.907 1287.607,2008.068 1290.6,2015.813C1293.592,2023.558 1295.088,2033.415 1295.088,2045.385C1295.088,2065.451 1291.216,2084.814 1283.471,2103.472C1275.726,2122.131 1265.341,2138.589 1252.315,2152.847C1239.289,2167.105 1224.063,2178.546 1206.637,2187.171C1189.21,2195.797 1170.64,2200.109 1150.925,2200.109C1132.971,2200.109 1115.809,2197.029 1099.439,2190.868C1083.068,2184.707 1068.811,2175.554 1056.665,2163.408C1044.519,2151.263 1034.838,2136.037 1027.621,2117.73C1020.404,2099.424 1016.796,2078.125 1016.796,2053.834C1016.796,2033.063 1019.964,2014.493 1026.301,1998.123C1032.638,1981.752 1040.911,1967.054 1051.12,1954.029C1061.33,1941.003 1073.035,1929.649 1086.237,1919.968C1099.439,1910.287 1112.904,1901.926 1126.634,1894.885C1158.67,1878.691 1195.107,1867.073 1235.945,1860.032L1236.473,1860.032C1237.881,1860.032 1238.585,1859.152 1238.585,1857.392L1238.585,1856.336C1238.585,1854.576 1237.881,1853.695 1236.473,1853.695L1024.717,1853.695C1020.844,1853.695 1017.676,1855.456 1015.211,1858.976L946.562,1969.871C945.506,1971.631 945.682,1972.863 947.09,1973.567C947.795,1973.919 948.147,1974.095 948.147,1974.095C949.203,1974.095 949.907,1973.567 950.259,1972.511L982.471,1921.288C987.4,1913.895 992.945,1906.502 999.105,1899.109C1005.266,1891.716 1012.219,1885.116 1019.964,1879.307C1027.709,1873.498 1036.158,1868.833 1045.311,1865.313C1054.465,1861.793 1064.498,1860.032 1075.411,1860.032L1149.869,1860.032C1155.15,1860.032 1157.79,1862.321 1157.79,1866.897C1157.79,1870.418 1156.47,1872.882 1153.83,1874.29C1151.189,1875.698 1148.813,1876.754 1146.701,1877.459C1124.17,1885.204 1102.167,1895.501 1080.692,1908.351C1059.217,1921.2 1040.207,1936.778 1023.661,1955.085C1007.114,1973.391 994.265,1994.514 985.112,2018.453C975.958,2042.392 972.614,2069.5 975.078,2099.776C976.838,2119.138 981.855,2137.533 990.128,2154.959C998.401,2172.386 1009.579,2187.612 1023.661,2200.637C1037.742,2213.663 1054.465,2224.048 1073.827,2231.793C1093.19,2239.538 1114.489,2243.411 1137.724,2243.411C1161.311,2243.411 1183.05,2238.57 1202.94,2228.889C1222.831,2219.208 1240.081,2205.566 1254.691,2187.964C1269.301,2170.361 1280.655,2149.414 1288.752,2125.123C1296.849,2100.832 1300.897,2074.253 1300.897,2045.385C1300.897,2074.253 1304.946,2100.832 1313.043,2125.123C1321.14,2149.414 1332.405,2170.361 1346.839,2187.964C1361.273,2205.566 1378.523,2219.208 1398.59,2228.889C1418.657,2238.57 1440.484,2243.411 1464.071,2243.411C1488.01,2243.411 1509.573,2239.538 1528.759,2231.793C1547.946,2224.048 1564.58,2213.663 1578.662,2200.637C1592.744,2187.612 1603.833,2172.386 1611.93,2154.959C1620.027,2137.533 1624.956,2119.138 1626.716,2099.776C1629.181,2069.5 1625.836,2042.392 1616.683,2018.453C1607.53,1994.514 1594.768,1973.391 1578.398,1955.085C1562.028,1936.778 1543.017,1921.2 1521.366,1908.351C1499.715,1895.501 1477.801,1885.204 1455.622,1877.459C1453.157,1876.754 1450.517,1875.698 1447.701,1874.29C1444.884,1872.882 1443.652,1870.418 1444.004,1866.897C1444.004,1862.321 1446.82,1860.032 1452.453,1860.032L1522.686,1860.032C1534.656,1860.032 1545.57,1861.793 1555.427,1865.313C1565.284,1868.833 1574.173,1873.498 1582.094,1879.307C1590.015,1885.116 1597.056,1891.628 1603.217,1898.845C1609.378,1906.062 1614.747,1913.543 1619.323,1921.288L1651.007,1972.511C1651.712,1973.567 1652.416,1974.095 1653.12,1974.095C1653.824,1974.095 1654.352,1973.919 1654.704,1973.567C1656.112,1972.511 1656.288,1971.279 1655.232,1969.871L1586.055,1858.976C1584.295,1855.456 1581.302,1853.695 1577.078,1853.695L1364.794,1853.695C1363.385,1853.695 1362.681,1854.576 1362.681,1856.336L1362.681,1857.392C1362.681,1858.448 1363.561,1859.328 1365.322,1860.032C1406.159,1867.073 1442.772,1878.691 1475.16,1894.885C1488.89,1901.926 1502.356,1910.287 1515.558,1919.968C1528.759,1929.649 1540.465,1941.003 1550.674,1954.029C1560.884,1967.054 1569.157,1981.752 1575.493,1998.123C1581.83,2014.493 1584.999,2033.063 1584.999,2053.834C1584.999,2078.125 1581.39,2099.424 1574.173,2117.73C1566.956,2136.037 1557.275,2151.263 1545.129,2163.408C1532.984,2175.554 1518.814,2184.707 1502.62,2190.868C1486.426,2197.029 1469.175,2200.109 1450.869,2200.109C1431.154,2200.109 1412.584,2195.797 1395.158,2187.171C1377.731,2178.546 1362.417,2167.105 1349.216,2152.847C1336.014,2138.589 1325.54,2122.131 1317.795,2103.472C1310.05,2084.814 1306.178,2065.451 1306.178,2045.385C1306.178,2033.767 1307.762,2024.086 1310.931,2016.341C1314.099,2008.596 1318.588,2002.435 1324.396,1997.858C1330.205,1993.282 1337.246,1990.025 1345.519,1988.089C1353.792,1986.153 1363.209,1985.185 1373.771,1985.185L1441.364,1985.185C1443.124,1985.185 1444.004,1984.305 1444.004,1982.544L1444.004,1981.488C1444.004,1979.728 1443.124,1978.848 1441.364,1978.848L1160.431,1978.848Z" style="fill-rule:nonzero;"/>
            <path d="M1924.019,2234.434C1923.315,2234.434 1922.963,2234.786 1922.963,2235.49L1922.963,2236.546C1922.963,2237.25 1923.315,2237.602 1924.019,2237.602L2063.43,2237.602C2064.486,2237.602 2065.014,2237.25 2065.014,2236.546L2065.014,2235.49C2065.014,2234.786 2064.486,2234.434 2063.43,2234.434L2047.06,2234.434C2036.146,2234.434 2028.489,2232.497 2024.089,2228.625C2019.688,2224.752 2016.08,2218.416 2013.263,2209.614C1995.661,2155.399 1979.291,2101.184 1964.153,2046.969C1949.015,1992.754 1934.053,1938.187 1919.267,1883.267C1917.155,1875.874 1917.155,1869.714 1919.267,1864.785C1921.379,1859.856 1926.308,1857.392 1934.053,1857.392L1965.737,1857.392C1966.793,1857.392 1967.321,1856.864 1967.321,1855.808L1967.321,1855.28C1967.321,1854.576 1966.793,1854.224 1965.737,1854.224L1754.509,1854.224C1753.101,1854.224 1752.397,1854.576 1752.397,1855.28L1752.397,1855.808C1752.397,1856.864 1753.101,1857.392 1754.509,1857.392L1793.586,1857.392C1800.627,1857.392 1804.148,1860.56 1804.148,1866.897C1804.148,1869.714 1803.796,1872.442 1803.092,1875.082C1802.387,1877.723 1801.155,1881.507 1799.395,1886.436C1796.227,1894.533 1792.442,1904.126 1788.042,1915.216C1783.641,1926.305 1779.152,1937.659 1774.576,1949.276C1769.999,1960.894 1765.599,1972.159 1761.374,1983.073C1757.149,1993.986 1753.453,2003.491 1750.285,2011.588C1743.596,2028.839 1736.819,2045.737 1729.954,2062.283C1723.089,2078.829 1717.016,2094.583 1711.735,2109.545C1706.455,2124.507 1702.142,2138.589 1698.798,2151.791C1695.453,2164.993 1693.781,2177.05 1693.781,2187.964C1693.781,2206.622 1698.358,2220.176 1707.511,2228.625C1716.664,2237.074 1728.106,2241.299 1741.835,2241.299C1753.101,2241.299 1763.31,2238.218 1772.463,2232.057C1781.617,2225.897 1790.33,2218.152 1798.603,2208.822C1806.876,2199.493 1814.797,2189.46 1822.366,2178.722C1829.935,2167.985 1837.768,2157.952 1845.865,2148.622C1853.962,2139.293 1862.499,2131.548 1871.477,2125.387C1880.454,2119.226 1890.223,2116.146 1900.784,2116.146C1917.683,2116.146 1930.708,2121.075 1939.862,2130.932C1949.015,2140.789 1955.704,2152.055 1959.928,2164.729C1962.745,2172.474 1964.945,2179.867 1966.529,2186.907C1968.113,2193.948 1969.786,2200.285 1971.546,2205.918C1972.25,2209.086 1972.514,2212.431 1972.338,2215.951C1972.162,2219.472 1971.106,2222.552 1969.169,2225.192C1967.233,2227.833 1964.065,2230.033 1959.664,2231.793C1955.264,2233.554 1949.367,2234.434 1941.974,2234.434L1924.019,2234.434ZM1783.553,2020.037C1803.62,2020.037 1818.23,2024.526 1827.383,2033.503C1836.536,2042.48 1841.113,2057.002 1841.113,2077.069L1841.113,2131.988C1833.368,2137.621 1825.799,2143.606 1818.406,2149.943C1811.013,2156.279 1803.796,2162.088 1796.755,2167.369C1789.714,2172.65 1782.849,2176.962 1776.16,2180.307C1769.471,2183.651 1762.782,2185.323 1756.093,2185.323C1746.236,2185.323 1737.259,2182.243 1729.162,2176.082C1721.065,2169.921 1717.016,2159.624 1717.016,2145.19C1717.016,2136.389 1718.512,2126.267 1721.505,2114.826C1724.497,2103.384 1728.018,2091.855 1732.066,2080.237C1736.115,2068.62 1740.251,2057.53 1744.476,2046.969C1748.7,2036.408 1752.221,2027.43 1755.037,2020.037L1783.553,2020.037ZM1804.148,1892.245C1808.372,1881.683 1813.741,1874.818 1820.254,1871.65C1826.767,1868.481 1833.72,1866.721 1841.113,1866.369L1841.113,1958.253C1841.113,1979.024 1836.712,1993.986 1827.911,2003.139C1819.11,2012.292 1804.324,2016.869 1783.553,2016.869L1756.093,2016.869C1761.374,2003.139 1766.655,1989.321 1771.935,1975.416C1777.216,1961.51 1782.145,1948.748 1786.721,1937.13C1791.298,1925.513 1795.082,1915.656 1798.075,1907.559C1801.067,1899.461 1803.092,1894.357 1804.148,1892.245ZM1936.165,2079.709C1936.869,2082.174 1937.573,2085.166 1938.277,2088.686C1938.981,2092.207 1939.422,2095.551 1939.598,2098.72C1939.774,2101.888 1939.598,2104.793 1939.069,2107.433C1938.541,2110.073 1937.397,2111.922 1935.637,2112.978C1934.933,2113.33 1933.701,2113.506 1931.941,2113.506C1928.42,2113.506 1924.284,2112.714 1919.531,2111.129C1914.778,2109.545 1908.353,2108.753 1900.256,2108.753C1890.399,2108.753 1880.894,2110.777 1871.741,2114.826C1862.587,2118.874 1853.434,2123.891 1844.281,2129.876L1844.281,2077.069C1844.281,2056.65 1848.594,2042.04 1857.219,2033.239C1865.844,2024.438 1880.542,2020.037 1901.312,2020.037L1919.795,2020.037C1922.611,2029.895 1925.34,2039.84 1927.98,2049.873C1930.62,2059.907 1933.349,2069.852 1936.165,2079.709ZM1901.312,2016.869C1881.246,2016.869 1866.724,2012.116 1857.747,2002.611C1848.77,1993.106 1844.281,1978.32 1844.281,1958.253L1844.281,1866.369C1856.603,1866.721 1865.756,1869.362 1871.741,1874.29C1877.725,1879.219 1881.95,1885.908 1884.414,1894.357C1888.287,1907.735 1893.215,1925.161 1899.2,1946.636C1905.185,1968.111 1911.698,1991.522 1918.739,2016.869L1901.312,2016.869Z" style="fill-rule:nonzero;"/>
            <path d="M910.654,2477.874C910.654,2467.312 913.206,2460.096 918.311,2456.223C923.415,2452.35 931.072,2450.414 941.282,2450.414L951.315,2450.414C952.723,2450.414 953.427,2449.358 953.427,2447.246L953.427,2445.662C953.427,2444.253 952.723,2443.549 951.315,2443.549L853.094,2443.549C850.982,2443.549 849.926,2444.253 849.926,2445.662L849.926,2447.246C849.926,2449.358 850.982,2450.414 853.094,2450.414L862.599,2450.414C873.865,2450.414 881.786,2452.35 886.362,2456.223C890.939,2460.096 893.227,2467.312 893.227,2477.874L893.227,2764.616L672.494,2443.549L532.556,2443.549C530.443,2443.549 529.387,2444.605 529.387,2446.718C529.387,2447.07 529.563,2447.422 529.915,2447.774C530.267,2448.126 530.443,2448.478 530.443,2448.83L606.486,2584.544C606.838,2585.952 607.718,2586.304 609.126,2585.6C610.182,2584.544 610.534,2583.488 610.182,2582.432C608.07,2577.855 604.197,2570.462 598.564,2560.253C592.932,2550.043 587.299,2539.13 581.666,2527.512C576.033,2515.895 571.281,2504.365 567.408,2492.924C563.536,2481.482 562.128,2472.417 563.184,2465.728C564.24,2459.743 566.792,2455.695 570.841,2453.583C574.889,2451.47 579.378,2450.414 584.307,2450.414L600.149,2450.414C609.302,2450.414 615.727,2452.438 619.423,2456.487C623.12,2460.536 624.968,2467.665 624.968,2477.874L624.968,2787.323C624.968,2799.644 622.504,2808.269 617.575,2813.198C612.646,2818.127 605.077,2820.591 594.868,2820.591L584.835,2820.591C582.722,2820.591 581.666,2821.471 581.666,2823.231L581.666,2824.816C581.666,2826.224 582.722,2826.928 584.835,2826.928L683.584,2826.928C684.64,2826.928 685.168,2826.224 685.168,2824.816L685.168,2823.231C685.168,2821.471 684.64,2820.591 683.584,2820.591L673.55,2820.591C662.285,2820.591 654.364,2818.303 649.787,2813.726C645.211,2809.15 642.922,2800.348 642.922,2787.323L642.922,2471.009L883.194,2826.928L1003.594,2826.928C1005.706,2826.928 1006.762,2826.224 1006.762,2824.816C1006.762,2824.112 1006.586,2823.495 1006.234,2822.967C1005.882,2822.439 1005.706,2821.999 1005.706,2821.647L929.136,2685.933L928.608,2685.933C928.256,2685.229 927.728,2685.229 927.024,2685.933C926.32,2686.285 925.968,2686.989 925.968,2688.046C928.432,2692.622 932.481,2700.279 938.113,2711.017C943.746,2721.754 949.379,2733.196 955.012,2745.341C960.644,2757.487 965.309,2769.192 969.005,2780.458C972.702,2791.723 974.022,2799.996 972.966,2805.277C970.854,2815.486 963.813,2820.591 951.843,2820.591L941.282,2820.591C931.072,2820.591 923.415,2818.743 918.311,2815.046C913.206,2811.35 910.654,2803.869 910.654,2792.603L910.654,2477.874Z" style="fill-rule:nonzero;"/>
            <path d="M1077.524,2809.502L1144.589,2726.067L1022.604,2826.928L1174.16,2826.928C1182.258,2826.928 1188.946,2825.608 1194.227,2822.967C1199.508,2820.327 1203.908,2817.423 1207.429,2814.254C1211.301,2810.734 1214.294,2806.685 1216.406,2802.109C1218.518,2806.685 1221.511,2810.734 1225.383,2814.254C1228.2,2817.423 1232.16,2820.327 1237.265,2822.967C1242.369,2825.608 1248.618,2826.928 1256.011,2826.928L1410.736,2826.928L1288.752,2726.067L1355.816,2809.502L1262.876,2809.502C1253.723,2809.502 1245.802,2806.157 1239.113,2799.468C1232.424,2792.779 1229.08,2784.858 1229.08,2775.705L1229.08,2495.3C1229.08,2485.795 1232.424,2477.698 1239.113,2471.009C1245.802,2464.32 1253.723,2460.976 1262.876,2460.976L1355.816,2460.976L1288.752,2544.939L1410.736,2443.549L1259.18,2443.549C1251.083,2443.549 1244.394,2444.869 1239.113,2447.51C1233.832,2450.15 1229.432,2452.879 1225.911,2455.695C1222.039,2459.567 1218.87,2463.792 1216.406,2468.369C1214.294,2463.792 1211.477,2459.567 1207.957,2455.695C1205.141,2452.879 1201.18,2450.15 1196.075,2447.51C1190.971,2444.869 1184.722,2443.549 1177.329,2443.549L1022.604,2443.549L1144.589,2544.939L1077.524,2460.976L1170.464,2460.976C1179.617,2460.976 1187.538,2464.32 1194.227,2471.009C1200.916,2477.698 1204.26,2485.795 1204.26,2495.3L1204.26,2775.705C1204.26,2784.858 1200.916,2792.779 1194.227,2799.468C1187.538,2806.157 1179.617,2809.502 1170.464,2809.502L1077.524,2809.502Z" style="fill-rule:nonzero;"/>
            <path d="M1675.827,2823.76C1675.123,2823.76 1674.771,2824.112 1674.771,2824.816L1674.771,2825.872C1674.771,2826.576 1675.123,2826.928 1675.827,2826.928L1815.237,2826.928C1816.293,2826.928 1816.821,2826.576 1816.821,2825.872L1816.821,2824.816C1816.821,2824.112 1816.293,2823.76 1815.237,2823.76L1798.867,2823.76C1787.954,2823.76 1780.297,2821.823 1775.896,2817.951C1771.495,2814.078 1767.887,2807.741 1765.07,2798.94C1747.468,2744.725 1731.098,2690.51 1715.96,2636.295C1700.822,2582.08 1685.86,2527.512 1671.074,2472.593C1668.962,2465.2 1668.962,2459.039 1671.074,2454.111C1673.186,2449.182 1678.115,2446.718 1685.86,2446.718L1717.544,2446.718C1718.6,2446.718 1719.128,2446.19 1719.128,2445.134L1719.128,2444.605C1719.128,2443.901 1718.6,2443.549 1717.544,2443.549L1506.316,2443.549C1504.908,2443.549 1504.204,2443.901 1504.204,2444.605L1504.204,2445.134C1504.204,2446.19 1504.908,2446.718 1506.316,2446.718L1545.393,2446.718C1552.434,2446.718 1555.955,2449.886 1555.955,2456.223C1555.955,2459.039 1555.603,2461.768 1554.899,2464.408C1554.195,2467.048 1552.962,2470.833 1551.202,2475.762C1548.034,2483.859 1544.249,2493.452 1539.849,2504.541C1535.448,2515.631 1530.96,2526.984 1526.383,2538.602C1521.806,2550.219 1517.406,2561.485 1513.181,2572.398C1508.957,2583.312 1505.26,2592.817 1502.092,2600.914C1495.403,2618.164 1488.626,2635.063 1481.761,2651.609C1474.896,2668.155 1468.823,2683.909 1463.543,2698.871C1458.262,2713.833 1453.949,2727.915 1450.605,2741.117C1447.261,2754.318 1445.588,2766.376 1445.588,2777.289C1445.588,2795.948 1450.165,2809.502 1459.318,2817.951C1468.471,2826.4 1479.913,2830.624 1493.643,2830.624C1504.908,2830.624 1515.117,2827.544 1524.271,2821.383C1533.424,2815.222 1542.137,2807.477 1550.41,2798.148C1558.683,2788.819 1566.604,2778.786 1574.173,2768.048C1581.742,2757.311 1589.575,2747.277 1597.672,2737.948C1605.769,2728.619 1614.307,2720.874 1623.284,2714.713C1632.261,2708.552 1642.03,2705.472 1652.592,2705.472C1669.49,2705.472 1682.516,2710.401 1691.669,2720.258C1700.822,2730.115 1707.511,2741.381 1711.735,2754.054C1714.552,2761.799 1716.752,2769.192 1718.336,2776.233C1719.921,2783.274 1721.593,2789.611 1723.353,2795.244C1724.057,2798.412 1724.321,2801.757 1724.145,2805.277C1723.969,2808.798 1722.913,2811.878 1720.977,2814.518C1719.04,2817.159 1715.872,2819.359 1711.471,2821.119C1707.071,2822.879 1701.174,2823.76 1693.781,2823.76L1675.827,2823.76ZM1535.36,2609.363C1555.427,2609.363 1570.037,2613.852 1579.19,2622.829C1588.343,2631.806 1592.92,2646.328 1592.92,2666.395L1592.92,2721.314C1585.175,2726.947 1577.606,2732.932 1570.213,2739.268C1562.82,2745.605 1555.603,2751.414 1548.562,2756.695C1541.521,2761.975 1534.656,2766.288 1527.967,2769.632C1521.278,2772.977 1514.589,2774.649 1507.901,2774.649C1498.043,2774.649 1489.066,2771.569 1480.969,2765.408C1472.872,2759.247 1468.823,2748.95 1468.823,2734.516C1468.823,2725.715 1470.32,2715.593 1473.312,2704.152C1476.304,2692.71 1479.825,2681.181 1483.873,2669.563C1487.922,2657.946 1492.058,2646.856 1496.283,2636.295C1500.508,2625.733 1504.028,2616.756 1506.844,2609.363L1535.36,2609.363ZM1555.955,2481.57C1560.179,2471.009 1565.548,2464.144 1572.061,2460.976C1578.574,2457.807 1585.527,2456.047 1592.92,2455.695L1592.92,2547.579C1592.92,2568.35 1588.519,2583.312 1579.718,2592.465C1570.917,2601.618 1556.131,2606.195 1535.36,2606.195L1507.901,2606.195C1513.181,2592.465 1518.462,2578.647 1523.743,2564.741C1529.023,2550.835 1533.952,2538.074 1538.529,2526.456C1543.105,2514.839 1546.89,2504.981 1549.882,2496.884C1552.874,2488.787 1554.899,2483.683 1555.955,2481.57ZM1687.972,2669.035C1688.676,2671.499 1689.381,2674.492 1690.085,2678.012C1690.789,2681.533 1691.229,2684.877 1691.405,2688.046C1691.581,2691.214 1691.405,2694.118 1690.877,2696.759C1690.349,2699.399 1689.204,2701.247 1687.444,2702.303C1686.74,2702.656 1685.508,2702.832 1683.748,2702.832C1680.227,2702.832 1676.091,2702.039 1671.338,2700.455C1666.585,2698.871 1660.161,2698.079 1652.064,2698.079C1642.206,2698.079 1632.701,2700.103 1623.548,2704.152C1614.395,2708.2 1605.241,2713.217 1596.088,2719.202L1596.088,2666.395C1596.088,2645.976 1600.401,2631.366 1609.026,2622.565C1617.651,2613.764 1632.349,2609.363 1653.12,2609.363L1671.602,2609.363C1674.419,2619.221 1677.147,2629.166 1679.787,2639.199C1682.428,2649.232 1685.156,2659.178 1687.972,2669.035ZM1653.12,2606.195C1633.053,2606.195 1618.531,2601.442 1609.554,2591.937C1600.577,2582.432 1596.088,2567.646 1596.088,2547.579L1596.088,2455.695C1608.41,2456.047 1617.563,2458.687 1623.548,2463.616C1629.533,2468.545 1633.757,2475.234 1636.221,2483.683C1640.094,2497.06 1645.023,2514.487 1651.007,2535.962C1656.992,2557.436 1663.505,2580.847 1670.546,2606.195L1653.12,2606.195Z" style="fill-rule:nonzero;"/>
            <path d="M2132.079,2776.233C2132.079,2780.458 2131.111,2785.034 2129.175,2789.963C2127.238,2794.892 2124.51,2799.292 2120.989,2803.165C2117.469,2807.037 2113.42,2810.294 2108.844,2812.934C2104.267,2815.574 2099.515,2816.895 2094.586,2816.895C2088.601,2816.895 2084.113,2815.398 2081.12,2812.406C2078.128,2809.414 2076.632,2805.629 2076.632,2801.053C2076.632,2796.124 2077.688,2792.075 2079.8,2788.907C2081.912,2785.738 2084.201,2782.746 2086.665,2779.93C2089.129,2777.113 2091.418,2774.385 2093.53,2771.745C2095.642,2769.104 2096.698,2766.024 2096.698,2762.503C2096.698,2759.335 2095.466,2756.343 2093.002,2753.526C2090.537,2750.71 2086.665,2749.302 2081.384,2749.302C2075.752,2749.302 2070.471,2750.446 2065.542,2752.734C2060.614,2755.022 2056.213,2756.167 2052.34,2756.167C2048.116,2756.167 2045.035,2755.022 2043.099,2752.734C2041.163,2750.446 2040.195,2747.717 2040.195,2744.549C2040.195,2739.972 2042.923,2735.484 2048.38,2731.083C2053.837,2726.683 2060.614,2722.106 2068.711,2717.353C2076.808,2712.601 2085.521,2707.584 2094.85,2702.303C2104.179,2697.023 2112.892,2691.478 2120.989,2685.669C2129.087,2679.861 2135.863,2673.612 2141.32,2666.923C2146.777,2660.234 2149.505,2653.193 2149.505,2645.8C2149.505,2638.407 2146.953,2632.07 2141.848,2626.79C2136.744,2621.509 2128.558,2618.868 2117.293,2618.868C2110.252,2618.868 2103.475,2619.573 2096.962,2620.981C2090.449,2622.389 2084.201,2623.885 2078.216,2625.469C2072.231,2627.054 2066.422,2628.55 2060.79,2629.958C2055.157,2631.366 2049.7,2632.07 2044.419,2632.07C2039.843,2632.07 2036.146,2631.366 2033.33,2629.958C2030.514,2628.55 2028.753,2625.909 2028.049,2622.037C2026.993,2613.236 2036.498,2605.667 2056.565,2599.33C2060.79,2597.922 2065.102,2596.866 2069.503,2596.161C2073.903,2595.457 2078.216,2594.577 2082.44,2593.521C2086.665,2592.465 2090.713,2590.969 2094.586,2589.033C2098.459,2587.096 2101.979,2584.544 2105.147,2581.376C2111.132,2574.335 2114.389,2565.885 2114.917,2556.028C2115.445,2546.171 2116.413,2536.314 2117.821,2526.456C2120.637,2510.262 2124.246,2498.821 2128.647,2492.132C2133.047,2485.443 2139.296,2482.098 2147.393,2482.098C2151.265,2482.098 2154.522,2483.419 2157.162,2486.059C2159.803,2488.699 2161.123,2492.484 2161.123,2497.412C2161.123,2501.989 2159.891,2506.742 2157.426,2511.67C2154.962,2516.599 2152.146,2521.616 2148.977,2526.72C2145.809,2531.825 2142.992,2537.018 2140.528,2542.298C2138.064,2547.579 2136.832,2553.036 2136.832,2558.669C2136.832,2569.934 2140.44,2577.943 2147.657,2582.696C2154.874,2587.448 2163.587,2589.825 2173.796,2589.825C2181.189,2589.825 2188.318,2588.24 2195.183,2585.072C2202.048,2581.904 2207.945,2577.679 2212.874,2572.398C2217.802,2567.118 2221.763,2561.045 2224.755,2554.18C2227.748,2547.315 2229.244,2540.362 2229.244,2533.321C2229.244,2527.688 2227.484,2522.848 2223.963,2518.799C2220.443,2514.751 2215.69,2512.726 2209.705,2512.726C2202.664,2512.726 2197.384,2515.103 2193.863,2519.855C2190.343,2524.608 2188.582,2530.681 2188.582,2538.074C2188.582,2541.242 2188.142,2545.203 2187.262,2549.955C2186.382,2554.708 2184.886,2559.285 2182.774,2563.685C2180.661,2568.086 2177.845,2571.87 2174.325,2575.039C2170.804,2578.207 2166.58,2579.791 2161.651,2579.791C2157.074,2579.791 2152.85,2578.031 2148.977,2574.511C2145.105,2570.99 2143.168,2565.533 2143.168,2558.14C2143.168,2550.043 2146.425,2542.474 2152.938,2535.433C2159.451,2528.393 2166.58,2521.088 2174.325,2513.519C2182.07,2505.95 2189.198,2497.676 2195.711,2488.699C2202.224,2479.722 2205.481,2469.249 2205.481,2457.279C2205.481,2448.478 2202.664,2441.613 2197.032,2436.684C2191.399,2431.756 2184.358,2429.291 2175.909,2429.291C2166.756,2429.291 2158.746,2432.02 2151.882,2437.477C2145.017,2442.933 2138.944,2449.886 2133.663,2458.335C2128.382,2466.784 2123.718,2476.114 2119.669,2486.323C2115.621,2496.532 2111.572,2506.654 2107.524,2516.687C2103.475,2526.72 2099.339,2535.962 2095.114,2544.411C2090.89,2552.86 2086.137,2559.373 2080.856,2563.949C2063.958,2578.383 2048.732,2589.561 2035.178,2597.482C2021.624,2605.403 2010.095,2611.74 2000.59,2616.492C1991.084,2621.245 1983.779,2625.469 1978.675,2629.166C1973.57,2632.862 1970.842,2637.879 1970.49,2644.216C1969.786,2650.201 1971.458,2654.513 1975.506,2657.154C1979.555,2659.794 1984.219,2661.114 1989.5,2661.114C1995.837,2661.114 2002.438,2659.706 2009.303,2656.889C2016.168,2654.073 2023.297,2650.993 2030.69,2647.648C2038.083,2644.304 2045.828,2641.223 2053.925,2638.407C2062.022,2635.591 2070.295,2634.182 2078.744,2634.182C2090.361,2634.182 2098.811,2637.263 2104.091,2643.424C2109.372,2649.585 2112.012,2656.185 2112.012,2663.226C2112.012,2670.619 2109.46,2677.132 2104.355,2682.765C2099.251,2688.398 2092.914,2693.766 2085.345,2698.871C2077.776,2703.976 2069.415,2709.08 2060.261,2714.185C2051.108,2719.29 2042.483,2725.01 2034.386,2731.347C2026.289,2737.684 2019.336,2744.901 2013.527,2752.998C2007.719,2761.095 2004.11,2770.601 2002.702,2781.514C2001.998,2788.203 2002.614,2794.628 2004.55,2800.788C2006.486,2806.949 2009.655,2812.406 2014.055,2817.159C2018.456,2821.911 2024.177,2825.784 2031.218,2828.776C2038.259,2831.769 2046.532,2833.265 2056.037,2833.265C2072.583,2833.265 2087.985,2829.568 2102.243,2822.175C2116.501,2814.782 2128.823,2805.629 2139.208,2794.716C2149.593,2783.802 2157.69,2772.185 2163.499,2759.863C2169.308,2747.541 2172.212,2736.628 2172.212,2727.123C2172.212,2720.082 2169.924,2714.185 2165.347,2709.432C2160.771,2704.68 2155.138,2702.303 2148.449,2702.303C2142.464,2702.303 2136.744,2704.68 2131.287,2709.432C2125.83,2714.185 2123.102,2721.138 2123.102,2730.291C2123.102,2734.868 2123.542,2738.916 2124.422,2742.437C2125.302,2745.957 2126.358,2749.39 2127.59,2752.734C2128.823,2756.079 2129.879,2759.511 2130.759,2763.032C2131.639,2766.552 2132.079,2770.953 2132.079,2776.233ZM1909.762,2552.86C1905.537,2552.86 1901.929,2553.3 1898.936,2554.18C1895.944,2555.06 1893.215,2555.94 1890.751,2556.82C1888.287,2557.7 1885.91,2558.581 1883.622,2559.461C1881.334,2560.341 1878.782,2560.781 1875.965,2560.781C1866.812,2560.781 1860.211,2557.788 1856.163,2551.804C1852.114,2545.819 1850.09,2539.834 1850.09,2533.849C1850.09,2527.16 1852.026,2521.704 1855.898,2517.479C1859.771,2513.255 1864.348,2511.142 1869.628,2511.142C1875.965,2511.142 1881.422,2512.726 1885.998,2515.895C1890.575,2519.063 1894.8,2522.672 1898.672,2526.72C1902.545,2530.769 1906.329,2534.377 1910.026,2537.546C1913.722,2540.714 1918.211,2542.298 1923.491,2542.298C1929.124,2542.298 1933.261,2539.658 1935.901,2534.377C1938.541,2529.097 1940.654,2522.584 1942.238,2514.839C1943.822,2507.094 1945.318,2498.645 1946.726,2489.491C1948.135,2480.338 1950.247,2471.889 1953.063,2464.144C1955.88,2456.399 1959.84,2449.886 1964.945,2444.605C1970.05,2439.325 1977.355,2436.684 1986.86,2436.684C1994.957,2436.684 2001.382,2438.269 2006.134,2441.437C2010.887,2444.605 2013.263,2448.654 2013.263,2453.583C2013.263,2458.159 2010.799,2462.824 2005.87,2467.576C2000.942,2472.329 1995.573,2476.994 1989.764,2481.57C1983.955,2486.147 1978.587,2490.812 1973.658,2495.564C1968.729,2500.317 1966.441,2504.981 1966.793,2509.558C1967.145,2514.839 1969.081,2518.095 1972.602,2519.327C1976.122,2520.559 1979.907,2521.264 1983.955,2521.44C1988.004,2521.616 1991.7,2521.968 1995.045,2522.496C1998.389,2523.024 2000.062,2525.4 2000.062,2529.625C2000.062,2537.018 1998.037,2543.971 1993.989,2550.483C1989.94,2556.996 1984.836,2563.421 1978.675,2569.758C1972.514,2576.095 1965.825,2582.52 1958.608,2589.033C1951.391,2595.545 1944.614,2602.41 1938.277,2609.627C1931.941,2616.844 1926.572,2624.677 1922.171,2633.126C1917.771,2641.575 1915.394,2650.729 1915.042,2660.586C1914.69,2674.668 1915.482,2686.285 1917.419,2695.439C1919.355,2704.592 1921.643,2712.777 1924.284,2719.994C1926.924,2727.211 1929.388,2734.252 1931.676,2741.117C1933.965,2747.982 1935.109,2756.167 1935.109,2765.672C1935.109,2773.417 1933.437,2781.074 1930.092,2788.643C1926.748,2796.212 1922.523,2802.989 1917.419,2808.974C1912.314,2814.958 1906.681,2819.711 1900.52,2823.231C1894.36,2826.752 1888.639,2828.512 1883.358,2828.512C1869.628,2828.512 1859.067,2825.52 1851.674,2819.535C1844.281,2813.55 1840.584,2807.037 1840.584,2799.996C1840.584,2794.716 1843.137,2790.403 1848.241,2787.059C1853.346,2783.714 1858.891,2780.37 1864.876,2777.025C1870.86,2773.681 1876.405,2769.808 1881.51,2765.408C1886.615,2761.007 1889.167,2754.934 1889.167,2747.189C1889.167,2740.148 1886.879,2733.9 1882.302,2728.443C1877.725,2722.986 1871.213,2720.258 1862.763,2720.258C1857.483,2720.258 1852.466,2721.666 1847.713,2724.482C1842.961,2727.299 1838.648,2731.171 1834.776,2736.1C1830.903,2741.029 1827.823,2746.573 1825.534,2752.734C1823.246,2758.895 1822.102,2765.496 1822.102,2772.537C1822.102,2779.226 1823.158,2786.091 1825.27,2793.131C1827.383,2800.172 1830.815,2806.597 1835.568,2812.406C1840.32,2818.215 1846.657,2823.055 1854.578,2826.928C1862.499,2830.8 1872.269,2832.737 1883.886,2832.737C1897.968,2832.737 1911.522,2829.92 1924.548,2824.288C1937.573,2818.655 1949.015,2811.526 1958.872,2802.901C1968.729,2794.276 1976.562,2784.506 1982.371,2773.593C1988.18,2762.679 1991.084,2751.942 1991.084,2741.381C1991.084,2733.988 1989.412,2728.091 1986.068,2723.69C1982.723,2719.29 1978.587,2715.417 1973.658,2712.073C1968.729,2708.728 1963.361,2705.648 1957.552,2702.832C1951.743,2700.015 1946.374,2696.671 1941.446,2692.798C1936.517,2688.926 1932.381,2684.085 1929.036,2678.276C1925.692,2672.468 1924.019,2664.987 1924.019,2655.833C1924.019,2647.736 1927.188,2639.903 1933.525,2632.334C1939.862,2624.765 1947.783,2617.108 1957.288,2609.363C1966.793,2601.618 1977.09,2593.697 1988.18,2585.6C1999.269,2577.503 2009.567,2568.878 2019.072,2559.725C2028.577,2550.571 2036.498,2540.714 2042.835,2530.153C2049.172,2519.591 2052.34,2508.15 2052.34,2495.828C2052.34,2475.41 2046.708,2459.215 2035.442,2447.246C2024.177,2435.276 2009.567,2429.291 1991.612,2429.291C1979.291,2429.291 1969.698,2432.196 1962.833,2438.005C1955.968,2443.813 1950.335,2450.59 1945.934,2458.335C1941.534,2466.08 1937.573,2473.737 1934.053,2481.306C1930.532,2488.875 1925.78,2494.42 1919.795,2497.94C1912.754,2502.165 1904.745,2504.629 1895.768,2505.333C1886.791,2506.038 1878.253,2506.39 1870.156,2506.39C1863.115,2506.39 1857.043,2508.766 1851.938,2513.519C1846.833,2518.271 1844.281,2525.4 1844.281,2534.905C1844.281,2543.354 1845.777,2551.892 1848.77,2560.517C1851.762,2569.142 1855.986,2576.975 1861.443,2584.016C1866.9,2591.057 1873.413,2596.866 1880.982,2601.442C1888.551,2606.019 1896.912,2608.307 1906.065,2608.307C1915.218,2608.307 1922.611,2605.227 1928.244,2599.066C1933.877,2592.905 1936.693,2586.48 1936.693,2579.791C1936.693,2573.807 1934.581,2567.822 1930.356,2561.837C1926.132,2555.852 1919.267,2552.86 1909.762,2552.86Z" style="fill-rule:nonzero;"/>
        </g>
        <g id="KAMIL" transform="matrix(1.503135,0,0,1.503135,-146.158192,-168.125692)">
            <path d="M959.144,721.129C959.144,725.723 958.091,730.7 955.986,736.059C953.88,741.418 950.913,746.203 947.085,750.414C943.257,754.625 938.855,758.166 933.878,761.037C928.902,763.908 923.734,765.344 918.375,765.344C911.867,765.344 906.986,763.717 903.732,760.463C900.479,757.209 898.852,753.094 898.852,748.117C898.852,742.758 900,738.356 902.297,734.911C904.594,731.465 907.082,728.211 909.762,725.149C912.441,722.086 914.93,719.12 917.226,716.249C919.523,713.378 920.672,710.028 920.672,706.2C920.672,702.755 919.332,699.501 916.652,696.438C913.972,693.376 909.762,691.845 904.019,691.845C897.895,691.845 892.152,693.089 886.793,695.577C881.434,698.065 876.649,699.309 872.438,699.309C867.844,699.309 864.495,698.065 862.389,695.577C860.284,693.089 859.231,690.122 859.231,686.677C859.231,681.7 862.198,676.819 868.131,672.034C874.065,667.249 881.434,662.273 890.238,657.105C899.043,651.937 908.517,646.482 918.662,640.74C928.806,634.998 938.281,628.968 947.085,622.652C955.89,616.336 963.259,609.541 969.193,602.268C975.126,594.994 978.093,587.338 978.093,579.299C978.093,571.26 975.317,564.37 969.767,558.628C964.216,552.885 955.316,550.014 943.066,550.014C935.41,550.014 928.041,550.78 920.959,552.311C913.877,553.842 907.082,555.469 900.574,557.192C894.066,558.915 887.75,560.542 881.625,562.073C875.5,563.604 869.567,564.37 863.825,564.37C858.848,564.37 854.829,563.604 851.766,562.073C848.704,560.542 846.79,557.67 846.024,553.46C844.876,543.889 855.211,535.659 877.032,528.768C881.625,527.237 886.315,526.089 891.1,525.323C895.885,524.558 900.574,523.601 905.168,522.452C909.762,521.304 914.164,519.677 918.375,517.571C922.586,515.466 926.414,512.691 929.859,509.245C936.367,501.589 939.908,492.402 940.482,481.683C941.056,470.965 942.109,460.246 943.64,449.527C946.703,431.918 950.626,419.477 955.411,412.204C960.197,404.93 966.991,401.293 975.796,401.293C980.007,401.293 983.548,402.729 986.419,405.6C989.29,408.471 990.725,412.586 990.725,417.946C990.725,422.922 989.386,428.09 986.706,433.449C984.026,438.809 980.964,444.264 977.519,449.814C974.073,455.365 971.011,461.012 968.331,466.754C965.652,472.496 964.312,478.429 964.312,484.554C964.312,496.804 968.235,505.513 976.083,510.681C983.931,515.849 993.405,518.433 1004.507,518.433C1012.546,518.433 1020.297,516.71 1027.762,513.265C1035.227,509.82 1041.639,505.226 1046.998,499.484C1052.358,493.742 1056.664,487.138 1059.918,479.673C1063.172,472.209 1064.799,464.648 1064.799,456.992C1064.799,450.867 1062.885,445.603 1059.057,441.201C1055.229,436.799 1050.061,434.598 1043.553,434.598C1035.897,434.598 1030.155,437.182 1026.327,442.35C1022.499,447.518 1020.584,454.121 1020.584,462.16C1020.584,465.605 1020.106,469.912 1019.149,475.08C1018.192,480.248 1016.565,485.224 1014.268,490.009C1011.971,494.794 1008.909,498.909 1005.081,502.355C1001.253,505.8 996.659,507.523 991.3,507.523C986.323,507.523 981.729,505.609 977.519,501.781C973.308,497.952 971.202,492.019 971.202,483.98C971.202,475.175 974.743,466.945 981.825,459.289C988.907,451.633 996.659,443.689 1005.081,435.459C1013.503,427.229 1021.254,418.233 1028.336,408.471C1035.418,398.71 1038.959,387.321 1038.959,374.306C1038.959,364.735 1035.897,357.271 1029.772,351.911C1023.647,346.552 1015.991,343.872 1006.803,343.872C996.85,343.872 988.142,346.839 980.677,352.773C973.212,358.706 966.609,366.267 960.866,375.454C955.124,384.641 950.052,394.786 945.65,405.887C941.248,416.989 936.845,427.994 932.443,438.904C928.041,449.814 923.543,459.863 918.949,469.05C914.355,478.238 909.187,485.32 903.445,490.296C885.07,505.991 868.514,518.146 853.776,526.759C839.038,535.372 826.501,542.262 816.165,547.43C805.829,552.598 797.886,557.192 792.335,561.211C786.785,565.231 783.818,570.686 783.435,577.576C782.669,584.084 784.488,588.774 788.89,591.645C793.292,594.516 798.365,595.951 804.107,595.951C810.997,595.951 818.175,594.42 825.64,591.358C833.104,588.295 840.856,584.946 848.895,581.309C856.934,577.672 865.356,574.323 874.16,571.26C882.965,568.198 891.961,566.666 901.148,566.666C913.781,566.666 922.968,570.016 928.711,576.715C934.453,583.414 937.324,590.592 937.324,598.248C937.324,606.287 934.548,613.369 928.998,619.494C923.447,625.619 916.556,631.457 908.326,637.007C900.096,642.558 891.004,648.109 881.051,653.66C871.098,659.21 861.719,665.431 852.915,672.321C844.11,679.212 836.55,687.06 830.233,695.864C823.917,704.669 819.993,715.005 818.462,726.872C817.696,734.145 818.366,741.131 820.472,747.83C822.577,754.529 826.022,760.463 830.807,765.631C835.593,770.799 841.813,775.01 849.469,778.263C857.126,781.517 866.122,783.144 876.457,783.144C894.449,783.144 911.197,779.125 926.701,771.086C942.205,763.047 955.603,753.094 966.896,741.227C978.188,729.36 986.993,716.727 993.309,703.329C999.626,689.931 1002.784,678.064 1002.784,667.728C1002.784,660.072 1000.296,653.66 995.319,648.492C990.343,643.324 984.218,640.74 976.944,640.74C970.437,640.74 964.216,643.324 958.282,648.492C952.349,653.66 949.382,661.22 949.382,671.173C949.382,676.15 949.861,680.552 950.818,684.38C951.775,688.208 952.923,691.94 954.263,695.577C955.603,699.214 956.751,702.946 957.708,706.774C958.665,710.602 959.144,715.387 959.144,721.129ZM717.401,478.238C712.807,478.238 708.883,478.716 705.629,479.673C702.375,480.63 699.409,481.587 696.729,482.544C694.049,483.501 691.465,484.458 688.977,485.416C686.489,486.373 683.714,486.851 680.651,486.851C670.698,486.851 663.52,483.597 659.118,477.089C654.716,470.582 652.515,464.074 652.515,457.566C652.515,450.293 654.62,444.359 658.831,439.766C663.042,435.172 668.018,432.875 673.761,432.875C680.651,432.875 686.585,434.598 691.561,438.043C696.538,441.488 701.131,445.412 705.342,449.814C709.553,454.217 713.668,458.14 717.688,461.586C721.707,465.031 726.588,466.754 732.33,466.754C738.455,466.754 742.953,463.883 745.824,458.14C748.695,452.398 750.992,445.316 752.715,436.895C754.437,428.473 756.064,419.285 757.595,409.332C759.127,399.379 761.424,390.192 764.486,381.77C767.548,373.349 771.855,366.267 777.406,360.524C782.957,354.782 790.9,351.911 801.236,351.911C810.04,351.911 817.026,353.634 822.194,357.079C827.362,360.524 829.946,364.927 829.946,370.286C829.946,375.263 827.267,380.335 821.907,385.503C816.548,390.671 810.71,395.743 804.394,400.719C798.077,405.696 792.24,410.768 786.88,415.936C781.521,421.104 779.033,426.176 779.416,431.152C779.798,436.895 781.904,440.436 785.732,441.775C789.56,443.115 793.675,443.881 798.077,444.072C802.48,444.264 806.499,444.646 810.136,445.221C813.773,445.795 815.591,448.379 815.591,452.973C815.591,461.012 813.39,468.572 808.987,475.654C804.585,482.736 799.034,489.722 792.335,496.613C785.636,503.503 778.363,510.489 770.515,517.571C762.668,524.653 755.299,532.118 748.408,539.966C741.518,547.813 735.68,556.331 730.895,565.518C726.11,574.705 723.526,584.658 723.143,595.377C722.76,610.689 723.621,623.322 725.727,633.275C727.832,643.228 730.32,652.128 733.191,659.976C736.063,667.823 738.742,675.48 741.23,682.944C743.719,690.409 744.963,699.309 744.963,709.645C744.963,718.067 743.144,726.393 739.508,734.623C735.871,742.854 731.277,750.223 725.727,756.731C720.176,763.238 714.051,768.406 707.352,772.234C700.653,776.062 694.432,777.976 688.69,777.976C673.761,777.976 662.276,774.723 654.237,768.215C646.198,761.707 642.179,754.625 642.179,746.969C642.179,741.227 644.954,736.537 650.505,732.901C656.056,729.264 662.085,725.627 668.593,721.991C675.1,718.354 681.13,714.143 686.68,709.358C692.231,704.573 695.006,697.97 695.006,689.548C695.006,681.892 692.518,675.097 687.542,669.163C682.565,663.23 675.483,660.263 666.296,660.263C660.554,660.263 655.099,661.794 649.931,664.857C644.763,667.919 640.073,672.13 635.863,677.489C631.652,682.849 628.302,688.878 625.814,695.577C623.326,702.276 622.082,709.454 622.082,717.11C622.082,724.383 623.23,731.848 625.527,739.504C627.824,747.16 631.556,754.147 636.724,760.463C641.892,766.779 648.782,772.043 657.396,776.254C666.009,780.465 676.632,782.57 689.264,782.57C704.577,782.57 719.315,779.508 733.479,773.383C747.642,767.258 760.084,759.506 770.802,750.127C781.521,740.748 790.038,730.125 796.355,718.258C802.671,706.391 805.829,694.716 805.829,683.231C805.829,675.192 804.011,668.78 800.374,663.995C796.738,659.21 792.24,654.999 786.88,651.363C781.521,647.726 775.683,644.376 769.367,641.314C763.05,638.252 757.213,634.615 751.853,630.404C746.494,626.193 741.996,620.929 738.359,614.613C734.723,608.297 732.904,600.162 732.904,590.209C732.904,581.405 736.35,572.887 743.24,564.657C750.131,556.426 758.744,548.1 769.08,539.679C779.416,531.257 790.613,522.644 802.671,513.839C814.73,505.034 825.927,495.656 836.262,485.703C846.598,475.75 855.211,465.031 862.102,453.547C868.993,442.063 872.438,429.621 872.438,416.223C872.438,394.02 866.313,376.411 854.063,363.396C841.813,350.38 825.927,343.872 806.403,343.872C793.005,343.872 782.574,347.03 775.109,353.347C767.644,359.663 761.519,367.032 756.734,375.454C751.949,383.876 747.642,392.202 743.814,400.432C739.986,408.663 734.818,414.692 728.311,418.52C720.655,423.114 711.946,425.793 702.184,426.559C692.422,427.324 683.139,427.707 674.335,427.707C666.679,427.707 660.075,430.291 654.524,435.459C648.974,440.627 646.198,448.379 646.198,458.715C646.198,467.902 647.825,477.185 651.079,486.564C654.333,495.943 658.927,504.46 664.86,512.116C670.794,519.773 677.876,526.089 686.106,531.065C694.336,536.042 703.428,538.53 713.381,538.53C723.334,538.53 731.373,535.181 737.498,528.481C743.623,521.782 746.685,514.796 746.685,507.523C746.685,501.015 744.389,494.507 739.795,487.999C735.201,481.492 727.736,478.238 717.401,478.238Z" style="fill:rgb(255,0,40);fill-rule:nonzero;"/>
            <path d="M1344.44,772.808C1343.674,772.808 1343.291,773.191 1343.291,773.957L1343.291,775.105C1343.291,775.871 1343.674,776.254 1344.44,776.254L1496.032,776.254C1497.18,776.254 1497.754,775.871 1497.754,775.105L1497.754,773.957C1497.754,773.191 1497.18,772.808 1496.032,772.808L1478.231,772.808C1466.364,772.808 1458.038,770.703 1453.253,766.492C1448.468,762.281 1444.544,755.391 1441.482,745.821C1422.341,686.868 1404.541,627.916 1388.08,568.963C1371.619,510.011 1355.35,450.676 1339.272,390.958C1336.975,382.919 1336.975,376.22 1339.272,370.86C1341.569,365.501 1346.928,362.821 1355.35,362.821L1389.803,362.821C1390.951,362.821 1391.525,362.247 1391.525,361.099L1391.525,360.524C1391.525,359.759 1390.951,359.376 1389.803,359.376L1160.118,359.376C1158.587,359.376 1157.821,359.759 1157.821,360.524L1157.821,361.099C1157.821,362.247 1158.587,362.821 1160.118,362.821L1202.61,362.821C1210.266,362.821 1214.094,366.267 1214.094,373.157C1214.094,376.22 1213.711,379.186 1212.945,382.057C1212.18,384.928 1210.84,389.044 1208.926,394.403C1205.481,403.208 1201.365,413.639 1196.58,425.697C1191.795,437.756 1186.914,450.101 1181.938,462.734C1176.961,475.367 1172.176,487.617 1167.583,499.484C1162.989,511.351 1158.969,521.687 1155.524,530.491C1148.251,549.249 1140.882,567.623 1133.417,585.615C1125.952,603.607 1119.349,620.738 1113.607,637.007C1107.865,653.277 1103.175,668.589 1099.539,682.944C1095.902,697.3 1094.084,710.411 1094.084,722.278C1094.084,742.567 1099.06,757.305 1109.013,766.492C1118.966,775.68 1131.407,780.273 1146.337,780.273C1158.587,780.273 1169.688,776.924 1179.641,770.225C1189.594,763.525 1199.069,755.104 1208.065,744.959C1217.061,734.815 1225.674,723.905 1233.904,712.229C1242.134,700.554 1250.652,689.643 1259.457,679.499C1268.261,669.355 1277.544,660.933 1287.306,654.234C1297.067,647.535 1307.69,644.185 1319.175,644.185C1337.549,644.185 1351.713,649.544 1361.666,660.263C1371.619,670.982 1378.893,683.231 1383.486,697.013C1386.549,705.434 1388.941,713.473 1390.664,721.129C1392.387,728.786 1394.205,735.676 1396.119,741.801C1396.885,745.246 1397.172,748.883 1396.98,752.711C1396.789,756.539 1395.64,759.889 1393.535,762.76C1391.43,765.631 1387.984,768.023 1383.199,769.937C1378.414,771.851 1372.002,772.808 1363.963,772.808L1344.44,772.808ZM1191.7,539.679C1213.52,539.679 1229.406,544.559 1239.359,554.321C1249.312,564.083 1254.289,579.873 1254.289,601.693L1254.289,661.411C1245.867,667.536 1237.637,674.044 1229.598,680.935C1221.559,687.825 1213.711,694.141 1206.055,699.884C1198.399,705.626 1190.934,710.315 1183.661,713.952C1176.387,717.588 1169.114,719.407 1161.841,719.407C1151.122,719.407 1141.36,716.057 1132.556,709.358C1123.751,702.659 1119.349,691.462 1119.349,675.767C1119.349,666.197 1120.976,655.191 1124.23,642.75C1127.484,630.308 1131.312,617.771 1135.714,605.139C1140.116,592.506 1144.614,580.448 1149.208,568.963C1153.802,557.479 1157.63,547.717 1160.692,539.679L1191.7,539.679ZM1214.094,400.719C1218.688,389.235 1224.525,381.77 1231.607,378.325C1238.689,374.88 1246.25,372.966 1254.289,372.583L1254.289,472.496C1254.289,495.081 1249.504,511.351 1239.933,521.304C1230.363,531.257 1214.285,536.233 1191.7,536.233L1161.841,536.233C1167.583,521.304 1173.325,506.279 1179.067,491.158C1184.809,476.037 1190.168,462.16 1195.145,449.527C1200.121,436.895 1204.237,426.176 1207.49,417.371C1210.744,408.567 1212.945,403.016 1214.094,400.719ZM1357.647,604.564C1358.412,607.244 1359.178,610.498 1359.944,614.326C1360.709,618.154 1361.188,621.791 1361.379,625.236C1361.571,628.681 1361.379,631.839 1360.805,634.711C1360.231,637.582 1358.987,639.591 1357.073,640.74C1356.307,641.123 1354.967,641.314 1353.053,641.314C1349.225,641.314 1344.727,640.453 1339.559,638.73C1334.391,637.007 1327.405,636.146 1318.6,636.146C1307.882,636.146 1297.546,638.347 1287.593,642.75C1277.64,647.152 1267.687,652.607 1257.734,659.115L1257.734,601.693C1257.734,579.491 1262.423,563.604 1271.802,554.034C1281.181,544.464 1297.163,539.679 1319.749,539.679L1339.846,539.679C1342.909,550.397 1345.875,561.211 1348.746,572.121C1351.618,583.032 1354.584,593.846 1357.647,604.564ZM1319.749,536.233C1297.929,536.233 1282.138,531.065 1272.376,520.73C1262.615,510.394 1257.734,494.316 1257.734,472.496L1257.734,372.583C1271.132,372.966 1281.085,375.837 1287.593,381.196C1294.101,386.555 1298.694,393.829 1301.374,403.016C1305.585,417.563 1310.944,436.512 1317.452,459.863C1323.96,483.214 1331.042,508.671 1338.698,536.233L1319.749,536.233Z" style="fill:rgb(255,0,40);fill-rule:nonzero;"/>
            <path d="M1960.569,419.094L1962.292,419.094L1962.292,399.571C1962.292,387.321 1964.971,378.421 1970.331,372.87C1975.69,367.319 1984.495,364.544 1996.744,364.544L2013.971,364.544L2013.971,362.821L1996.744,362.821C1984.495,362.821 1975.69,360.142 1970.331,354.782C1964.971,349.423 1962.292,340.618 1962.292,328.369L1962.292,307.697L1960.569,307.697L1960.569,328.369C1960.569,331.814 1960.186,335.451 1959.421,339.279C1958.655,343.107 1957.315,346.456 1955.401,349.327C1953.487,352.198 1950.712,354.591 1947.075,356.505C1943.438,358.419 1938.749,359.376 1933.007,359.376L1864.676,359.376L1763.04,629.256C1759.595,621.599 1755.288,611.838 1750.12,599.971C1744.953,588.104 1739.21,575.088 1732.894,560.924C1726.578,546.76 1719.974,531.927 1713.084,516.423C1706.193,500.919 1699.494,485.703 1692.986,470.773C1677.674,435.938 1661.213,398.805 1643.604,359.376L1573.55,359.376C1568.574,359.376 1564.65,358.323 1561.779,356.218C1558.908,354.112 1556.707,351.433 1555.176,348.179C1553.644,344.925 1552.687,341.48 1552.305,337.843C1551.922,334.206 1551.73,330.665 1551.73,327.22L1551.73,307.123L1550.008,307.123L1550.008,327.22C1550.008,339.47 1547.328,348.275 1541.969,353.634C1536.609,358.993 1527.805,361.673 1515.555,361.673L1494.883,361.673L1494.883,363.396L1515.555,363.396C1527.805,363.396 1536.609,366.171 1541.969,371.722C1547.328,377.272 1550.008,386.173 1550.008,398.422L1550.008,418.52L1551.73,418.52L1551.73,398.422C1551.73,391.532 1553.262,384.546 1556.324,377.464C1559.386,370.382 1565.129,366.841 1573.55,366.841L1583.312,366.841C1592.117,367.224 1597.667,370.477 1599.964,376.602C1602.261,382.727 1602.261,390.575 1599.964,400.145C1586.566,456.035 1572.785,512.499 1558.621,569.538C1544.457,626.576 1530.676,683.04 1517.278,738.93C1514.215,750.797 1509.909,759.41 1504.358,764.77C1498.807,770.129 1490.29,772.808 1478.805,772.808L1461.579,772.808C1460.431,772.808 1459.856,773.191 1459.856,773.957L1459.856,775.105C1459.856,775.871 1460.431,776.254 1461.579,776.254L1576.421,776.254C1577.57,776.254 1578.144,775.871 1578.144,775.105L1578.144,773.957C1578.144,773.191 1577.57,772.808 1576.421,772.808L1559.195,772.808C1536.227,772.808 1527.039,761.707 1531.633,739.504C1545.031,684.38 1558.908,627.629 1573.263,569.25C1587.619,510.872 1601.495,454.121 1614.894,398.997L1730.31,661.411C1726.099,664.091 1721.027,666.197 1715.094,667.728C1709.16,669.259 1701.791,670.025 1692.986,670.025L1659.108,670.025L1659.108,672.896L1692.412,672.896C1713.084,672.896 1727.726,677.394 1736.339,686.39C1744.953,695.386 1749.642,710.028 1750.408,730.317L1750.408,755.582L1753.279,755.582L1753.279,730.891C1753.279,710.219 1757.681,695.577 1766.486,686.964C1775.29,678.351 1790.028,673.661 1810.7,672.896L1844.578,672.896L1844.578,670.025L1811.274,670.025C1800.173,670.025 1791.177,668.876 1784.286,666.579C1777.396,664.282 1771.845,661.22 1767.634,657.392L1869.269,384.067C1881.902,434.598 1893.769,482.832 1904.871,528.768C1909.464,548.292 1914.345,568.198 1919.513,588.487C1924.681,608.775 1929.562,628.299 1934.155,647.056C1938.749,665.814 1943.056,683.327 1947.075,699.596C1951.095,715.866 1954.444,729.743 1957.124,741.227C1957.889,744.672 1958.272,748.309 1958.272,752.137C1958.272,755.965 1957.22,759.41 1955.114,762.473C1953.009,765.535 1949.659,768.023 1945.065,769.937C1940.472,771.851 1934.155,772.808 1926.116,772.808L1901.425,772.808C1899.894,772.808 1899.128,773.191 1899.128,773.957L1899.128,775.105C1899.128,775.871 1899.894,776.254 1901.425,776.254L2061.056,776.254C2062.587,776.254 2063.353,775.871 2063.353,775.105L2063.353,773.957C2063.353,773.191 2062.587,772.808 2061.056,772.808L2038.088,772.808C2018.947,772.808 2006.889,763.621 2001.912,745.246C1998.467,732.231 1994.448,716.249 1989.854,697.3C1985.26,678.351 1980.188,657.87 1974.637,635.859C1969.087,613.848 1963.44,591.07 1957.698,567.528C1951.956,543.985 1946.405,521.208 1941.046,499.197C1935.687,477.185 1930.71,456.705 1926.116,437.756C1921.523,418.807 1917.695,403.016 1914.632,390.383C1913.101,384.259 1913.579,378.804 1916.068,374.018C1918.556,369.233 1923.054,366.841 1929.562,366.841L1939.323,366.841C1943.534,366.841 1947.075,367.894 1949.946,369.999C1952.817,372.104 1955.018,374.688 1956.55,377.751C1958.081,380.813 1959.134,384.259 1959.708,388.087C1960.282,391.915 1960.569,395.551 1960.569,398.997L1960.569,419.094Z" style="fill:rgb(255,0,40);fill-rule:nonzero;"/>
            <path d="M688.116,1256.262L761.041,1165.536L628.398,1275.211L793.197,1275.211C802.001,1275.211 809.275,1273.775 815.017,1270.904C820.759,1268.033 825.544,1264.875 829.372,1261.43C833.583,1257.602 836.837,1253.199 839.134,1248.223C841.43,1253.199 844.684,1257.602 848.895,1261.43C851.958,1264.875 856.264,1268.033 861.815,1270.904C867.366,1273.775 874.16,1275.211 882.199,1275.211L1050.443,1275.211L917.801,1165.536L990.725,1256.262L889.664,1256.262C879.711,1256.262 871.098,1252.625 863.825,1245.352C856.551,1238.078 852.915,1229.465 852.915,1219.512L852.915,914.606C852.915,904.27 856.551,895.465 863.825,888.192C871.098,880.919 879.711,877.282 889.664,877.282L990.725,877.282L917.801,968.582L1050.443,858.333L885.645,858.333C876.84,858.333 869.567,859.769 863.825,862.64C858.083,865.511 853.297,868.477 849.469,871.54C845.258,875.751 841.813,880.345 839.134,885.321C836.837,880.345 833.774,875.751 829.946,871.54C826.884,868.477 822.577,865.511 817.026,862.64C811.476,859.769 804.681,858.333 796.642,858.333L628.398,858.333L761.041,968.582L688.116,877.282L789.177,877.282C799.13,877.282 807.743,880.919 815.017,888.192C822.29,895.465 825.927,904.27 825.927,914.606L825.927,1219.512C825.927,1229.465 822.29,1238.078 815.017,1245.352C807.743,1252.625 799.13,1256.262 789.177,1256.262L688.116,1256.262Z" style="fill:rgb(255,0,40);fill-rule:nonzero;"/>
            <path d="M1068.244,1267.746C1067.861,1269.66 1068.244,1271.383 1069.392,1272.914C1070.541,1274.445 1072.455,1275.211 1075.135,1275.211C1077.431,1275.211 1079.728,1273.68 1082.025,1270.617C1084.322,1267.555 1086.906,1263.535 1089.777,1258.559C1092.648,1253.582 1095.806,1248.127 1099.251,1242.194C1102.697,1236.26 1106.716,1230.231 1111.31,1224.106C1118.2,1214.536 1125.091,1205.253 1131.982,1196.257C1138.872,1187.261 1145.858,1179.222 1152.94,1172.14C1160.022,1165.058 1167.2,1159.411 1174.473,1155.201C1181.747,1150.99 1189.403,1148.884 1197.442,1148.884C1207.012,1148.884 1214.955,1151.564 1221.271,1156.923C1227.588,1162.282 1230.746,1171.087 1230.746,1183.337C1230.746,1188.313 1230.267,1193.003 1229.31,1197.405C1228.353,1201.807 1227.205,1206.114 1225.865,1210.325C1224.525,1214.536 1223.377,1218.842 1222.42,1223.245C1221.463,1227.647 1220.984,1232.719 1220.984,1238.461C1220.984,1247.266 1223.855,1255.592 1229.598,1263.439C1235.34,1271.287 1244.336,1275.211 1256.585,1275.211C1267.304,1275.211 1276.491,1272.818 1284.148,1268.033C1291.804,1263.248 1298.886,1257.984 1305.393,1252.242C1311.901,1246.5 1318.313,1241.237 1324.63,1236.452C1330.946,1231.666 1337.932,1229.274 1345.588,1229.274C1352.862,1229.274 1359.082,1231.666 1364.25,1236.452C1369.418,1241.237 1374.873,1246.5 1380.615,1252.242C1386.357,1257.984 1393.152,1263.248 1401,1268.033C1408.847,1272.818 1419.087,1275.211 1431.72,1275.211C1440.142,1275.211 1447.702,1273.584 1454.401,1270.33C1461.101,1267.076 1466.843,1262.578 1471.628,1256.836C1476.413,1251.094 1480.145,1244.49 1482.825,1237.026C1485.505,1229.561 1486.844,1221.809 1486.844,1213.77C1486.844,1202.669 1484.26,1192.62 1479.093,1183.624C1473.925,1174.628 1466.747,1166.876 1457.56,1160.368C1448.372,1153.861 1437.749,1148.789 1425.691,1145.152C1413.632,1141.515 1400.713,1139.697 1386.932,1139.697C1372.768,1139.697 1360.039,1141.707 1348.746,1145.726C1337.454,1149.746 1327.788,1154.435 1319.749,1159.794C1310.561,1165.536 1302.331,1172.235 1295.058,1179.892C1302.714,1173.767 1311.136,1168.216 1320.323,1163.24C1327.979,1159.029 1337.071,1155.201 1347.598,1151.755C1358.125,1148.31 1369.514,1146.587 1381.764,1146.587C1393.248,1146.587 1403.201,1148.501 1411.623,1152.329C1420.044,1156.158 1427.126,1160.943 1432.868,1166.685C1438.611,1172.427 1442.917,1178.839 1445.788,1185.921C1448.659,1193.003 1450.095,1199.798 1450.095,1206.305C1450.095,1208.985 1449.521,1212.335 1448.372,1216.354C1447.224,1220.374 1445.405,1224.106 1442.917,1227.551C1440.429,1230.996 1437.366,1233.963 1433.73,1236.452C1430.093,1238.94 1425.595,1240.184 1420.236,1240.184C1411.048,1240.184 1403.488,1237.504 1397.554,1232.145C1391.621,1226.786 1386.166,1220.948 1381.189,1214.631C1376.213,1208.315 1371.045,1202.477 1365.686,1197.118C1360.326,1191.759 1353.436,1189.079 1345.014,1189.079C1336.975,1189.079 1329.319,1192.141 1322.046,1198.266C1314.772,1204.391 1307.786,1211.09 1301.087,1218.364C1294.388,1225.637 1287.88,1232.336 1281.564,1238.461C1275.247,1244.586 1269.218,1247.649 1263.476,1247.649C1263.093,1247.649 1262.71,1247.553 1262.328,1247.362C1261.945,1247.17 1261.371,1247.074 1260.605,1247.074C1253.332,1245.16 1248.929,1241.428 1247.398,1235.877C1245.867,1230.327 1245.675,1223.627 1246.824,1215.78C1247.972,1207.932 1249.599,1199.511 1251.705,1190.515C1253.81,1181.519 1254.863,1172.81 1254.863,1164.388C1254.863,1160.943 1254.289,1157.21 1253.14,1153.191C1251.992,1149.171 1250.078,1145.439 1247.398,1141.994C1244.718,1138.548 1241.082,1135.677 1236.488,1133.38C1231.894,1131.084 1226.152,1129.935 1219.262,1129.935C1204.715,1129.935 1191.987,1133.189 1181.077,1139.697C1170.167,1146.205 1160.692,1153.478 1152.653,1161.517C1144.614,1169.556 1138.011,1176.829 1132.843,1183.337C1127.675,1189.845 1123.56,1193.099 1120.497,1193.099C1118.583,1193.099 1117.626,1191.759 1117.626,1189.079C1117.626,1186.782 1119.253,1182.571 1122.507,1176.446C1125.761,1170.321 1130.929,1163.24 1138.011,1155.201C1145.093,1147.162 1154.28,1138.644 1165.573,1129.648C1176.866,1120.652 1190.551,1112.135 1206.629,1104.096C1225.004,1094.526 1241.273,1086.487 1255.437,1079.979C1269.601,1073.471 1281.564,1067.25 1291.325,1061.317C1301.087,1055.383 1308.456,1049.163 1313.432,1042.655C1318.409,1036.147 1320.897,1028.3 1320.897,1019.112C1320.897,1011.456 1318.122,1005.236 1312.571,1000.45C1307.02,995.665 1299.843,993.273 1291.038,993.273C1284.53,993.273 1278.214,994.134 1272.089,995.857C1265.964,997.579 1260.222,999.398 1254.863,1001.312C1249.504,1003.226 1244.431,1005.044 1239.646,1006.767C1234.861,1008.489 1230.555,1009.351 1226.726,1009.351C1216.008,1009.351 1210.649,1004.183 1210.649,993.847C1210.649,989.253 1212.467,983.511 1216.104,976.621C1219.74,969.73 1224.334,962.361 1229.885,954.514C1235.435,946.666 1241.369,938.531 1247.685,930.11C1254.002,921.688 1259.935,913.457 1265.486,905.418C1271.036,897.379 1275.63,889.819 1279.267,882.737C1282.904,875.655 1284.722,869.626 1284.722,864.649C1284.722,859.29 1282.999,854.888 1279.554,851.443C1276.109,847.997 1271.706,846.275 1266.347,846.275C1252.949,846.275 1239.168,852.304 1225.004,864.362C1210.84,876.421 1198.016,892.116 1186.532,911.448C1175.047,930.779 1165.956,952.312 1159.257,976.046C1152.557,999.781 1149.974,1023.323 1151.505,1046.675C1155.716,1019.495 1161.458,995.187 1168.731,973.75C1171.794,964.562 1175.335,955.662 1179.354,947.049C1183.373,938.436 1187.871,930.779 1192.848,924.08C1197.824,917.381 1203.28,911.926 1209.213,907.715C1215.147,903.504 1221.75,901.399 1229.023,901.399C1232.086,901.399 1234.574,902.452 1236.488,904.557C1238.402,906.663 1239.359,908.864 1239.359,911.161C1239.359,916.137 1236.584,922.358 1231.033,929.822C1225.482,937.287 1219.262,945.326 1212.371,953.939C1205.481,962.553 1199.26,971.644 1193.709,981.214C1188.159,990.785 1185.383,1000.355 1185.383,1009.925C1185.383,1016.433 1187.68,1021.601 1192.274,1025.429C1196.867,1029.257 1201.653,1031.171 1206.629,1031.171C1211.988,1031.171 1217.061,1030.597 1221.846,1029.448C1226.631,1028.3 1231.32,1027.056 1235.914,1025.716C1240.508,1024.376 1245.101,1023.132 1249.695,1021.983C1254.289,1020.835 1258.882,1020.261 1263.476,1020.261C1268.835,1020.261 1273.333,1021.218 1276.97,1023.132C1280.607,1025.046 1282.425,1028.683 1282.425,1034.042C1282.425,1039.018 1278.501,1044.282 1270.654,1049.833C1262.806,1055.383 1253.236,1061.317 1241.943,1067.633C1230.65,1073.95 1218.496,1080.553 1205.481,1087.444C1192.465,1094.334 1180.79,1101.607 1170.454,1109.264C1159.735,1117.303 1148.825,1126.968 1137.724,1138.261C1126.622,1149.554 1116.382,1162.091 1107.003,1175.872C1097.625,1189.653 1089.49,1204.296 1082.599,1219.799C1075.709,1235.303 1070.924,1251.285 1068.244,1267.746Z" style="fill:rgb(255,0,40);fill-rule:nonzero;"/>
        </g>
    </g>
</svg>
