<?xml version="1.0" encoding="UTF-8" standalone="no"?>
<!DOCTYPE svg PUBLIC "-//W3C//DTD SVG 1.1//EN" "http://www.w3.org/Graphics/SVG/1.1/DTD/svg11.dtd">
<svg width="100%" height="100%" viewBox="0 0 1000 1000" version="1.1" xmlns="http://www.w3.org/2000/svg" xmlns:xlink="http://www.w3.org/1999/xlink" xml:space="preserve" xmlns:serif="http://www.serif.com/" style="fill-rule:evenodd;clip-rule:evenodd;stroke-linejoin:round;stroke-miterlimit:2;">
    <g transform="matrix(2.686335,0,0,2.686335,-215.502657,-416.419606)">
        <path d="M279.924,423.679C297.301,450.467 315.401,473.274 334.225,492.098C353.05,510.922 369.34,520.335 383.096,520.335C391.422,520.335 398.3,517.077 403.731,510.56C415.315,497.528 421.107,483.591 421.107,468.749C421.107,449.924 412.781,431.824 396.128,414.448C379.476,397.071 361.195,382.229 341.284,369.921C321.374,357.613 310.514,351.458 308.704,351.458C335.854,340.598 358.932,328.019 377.938,313.719C396.943,299.42 406.446,285.03 406.446,270.55C406.446,261.138 402.464,252.45 394.499,244.485C385.811,235.797 375.856,231.453 364.634,231.453C352.688,231.453 340.56,235.345 328.252,243.128C315.944,250.911 304.993,259.418 295.4,268.649C285.807,277.881 281.01,282.858 281.01,283.582C266.168,258.604 254.674,239.689 246.529,226.838C238.384,213.986 227.343,199.506 213.406,183.397C199.468,167.288 187.432,159.233 177.295,159.233C162.091,159.233 153.584,178.962 151.774,218.421C151.05,228.195 152.86,240.956 157.204,256.703C161.548,272.451 168.698,288.922 178.653,306.117C188.608,323.312 201.55,338.607 217.478,352.001L215.849,353.087C193.043,356.346 172.046,365.667 152.86,381.053C133.674,396.438 120.822,413.724 114.306,432.91C112.496,439.064 111.591,444.856 111.591,450.286C111.591,461.509 114.397,472.821 120.008,484.224C125.619,495.628 133.221,504.949 142.814,512.189C152.407,519.43 162.634,523.05 173.494,523.05C177.838,523.05 181.82,522.507 185.441,521.421C210.057,514.904 229.877,502.596 244.9,484.496C259.923,466.396 269.969,446.485 275.037,424.765L279.924,423.679Z" style="fill:rgb(255,0,40);fill-rule:nonzero;"/>
    </g>
</svg>
