<?xml version="1.0" encoding="UTF-8" standalone="no"?>
<!DOCTYPE svg PUBLIC "-//W3C//DTD SVG 1.1//EN" "http://www.w3.org/Graphics/SVG/1.1/DTD/svg11.dtd">
<svg width="100%" height="100%" viewBox="0 0 2000 2000" version="1.1" xmlns="http://www.w3.org/2000/svg" xmlns:xlink="http://www.w3.org/1999/xlink" xml:space="preserve" xmlns:serif="http://www.serif.com/" style="fill-rule:evenodd;clip-rule:evenodd;stroke-linejoin:round;stroke-miterlimit:2;">
    <path d="M2000,500L2000,1500C2000,1775.958 1775.958,2000 1500,2000L500,2000C224.042,2000 0,1775.958 0,1500L0,500C0,224.042 224.042,0 500,0L1500,0C1775.958,0 2000,224.042 2000,500Z" style="fill:rgb(232,232,232);"/>
    <g transform="matrix(2.999993,0,0,2.999993,-1129.427553,-1601.101903)">
        <path d="M853.71,1063.068C853.71,1068.781 852.401,1074.97 849.782,1081.635C847.164,1088.301 843.474,1094.252 838.713,1099.489C833.952,1104.726 828.477,1109.13 822.288,1112.7C816.099,1116.271 809.672,1118.057 803.006,1118.057C794.913,1118.057 788.842,1116.033 784.796,1111.986C780.749,1107.94 778.725,1102.822 778.725,1096.632C778.725,1089.967 780.154,1084.492 783.01,1080.207C785.867,1075.922 788.961,1071.875 792.294,1068.067C795.627,1064.258 798.721,1060.568 801.578,1056.997C804.435,1053.427 805.863,1049.261 805.863,1044.5C805.863,1040.215 804.196,1036.168 800.864,1032.36C797.531,1028.551 792.294,1026.647 785.153,1026.647C777.535,1026.647 770.394,1028.194 763.728,1031.288C757.063,1034.383 751.112,1035.93 745.875,1035.93C740.162,1035.93 735.996,1034.383 733.378,1031.288C730.759,1028.194 729.45,1024.504 729.45,1020.219C729.45,1014.03 733.139,1007.96 740.519,1002.009C747.898,996.057 757.063,989.868 768.013,983.441C778.963,977.014 790.747,970.229 803.363,963.088C815.98,955.947 827.763,948.448 838.713,940.593C849.663,932.737 858.828,924.286 866.208,915.241C873.587,906.195 877.277,896.673 877.277,886.675C877.277,876.677 873.825,868.107 866.922,860.966C860.018,853.824 848.949,850.254 833.714,850.254C824.192,850.254 815.028,851.206 806.22,853.11C797.412,855.015 788.961,857.038 780.868,859.18C772.774,861.323 764.919,863.346 757.301,865.251C749.684,867.155 742.304,868.107 735.163,868.107C728.974,868.107 723.975,867.155 720.166,865.251C716.357,863.346 713.977,859.776 713.024,854.539C711.596,842.636 724.451,832.4 751.588,823.83C757.301,821.926 763.133,820.498 769.085,819.546C775.036,818.593 780.868,817.403 786.581,815.975C792.294,814.547 797.769,812.523 803.006,809.905C808.243,807.286 813.004,803.835 817.289,799.55C825.383,790.028 829.787,778.602 830.501,765.271C831.215,751.94 832.524,738.61 834.428,725.279C838.237,703.379 843.117,687.906 849.068,678.86C855.02,669.814 863.47,665.291 874.42,665.291C879.657,665.291 884.061,667.077 887.632,670.647C891.203,674.218 892.988,679.336 892.988,686.001C892.988,692.19 891.322,698.618 887.989,705.283C884.656,711.948 880.848,718.733 876.563,725.636C872.278,732.539 868.469,739.562 865.137,746.703C861.804,753.845 860.138,761.224 860.138,768.842C860.138,784.077 865.017,794.908 874.777,801.335C884.537,807.762 896.321,810.976 910.127,810.976C920.125,810.976 929.766,808.834 939.05,804.549C948.334,800.264 956.308,794.551 962.974,787.409C969.639,780.268 974.995,772.055 979.042,762.771C983.089,753.488 985.112,744.085 985.112,734.563C985.112,726.945 982.732,720.399 977.971,714.924C973.21,709.449 966.783,706.711 958.689,706.711C949.167,706.711 942.026,709.925 937.265,716.352C932.504,722.78 930.123,730.992 930.123,740.99C930.123,745.275 929.528,750.631 928.338,757.058C927.148,763.486 925.124,769.675 922.268,775.626C919.411,781.577 915.602,786.695 910.842,790.98C906.081,795.265 900.367,797.407 893.702,797.407C887.513,797.407 881.8,795.027 876.563,790.266C871.326,785.505 868.707,778.125 868.707,768.127C868.707,757.177 873.111,746.941 881.919,737.419C890.727,727.898 900.367,718.019 910.842,707.783C921.316,697.547 930.956,686.358 939.764,674.218C948.572,662.078 952.976,647.914 952.976,631.727C952.976,619.824 949.167,610.54 941.55,603.875C933.932,597.21 924.41,593.877 912.984,593.877C900.606,593.877 889.774,597.567 880.491,604.946C871.207,612.326 862.994,621.729 855.853,633.155C848.711,644.581 842.403,657.198 836.928,671.004C831.453,684.811 825.978,698.499 820.503,712.067C815.028,725.636 809.434,738.134 803.72,749.56C798.007,760.986 791.58,769.794 784.439,775.983C761.586,795.503 740.995,810.619 722.665,821.331C704.336,832.043 688.744,840.613 675.889,847.04C663.035,853.467 653.156,859.18 646.252,864.179C639.349,869.178 635.659,875.963 635.183,884.532C634.231,892.626 636.492,898.458 641.967,902.029C647.443,905.6 653.751,907.385 660.892,907.385C669.462,907.385 678.389,905.481 687.672,901.672C696.956,897.863 706.597,893.697 716.595,889.174C726.593,884.651 737.067,880.486 748.017,876.677C758.968,872.868 770.156,870.964 781.582,870.964C797.293,870.964 808.719,875.13 815.861,883.461C823.002,891.793 826.573,900.72 826.573,910.242C826.573,920.24 823.121,929.047 816.218,936.665C809.314,944.282 800.745,951.543 790.509,958.446C780.273,965.349 768.966,972.253 756.587,979.156C744.209,986.059 732.544,993.796 721.594,1002.366C710.644,1010.935 701.241,1020.695 693.386,1031.645C685.53,1042.596 680.65,1055.45 678.746,1070.209C677.794,1079.255 678.627,1087.944 681.245,1096.275C683.864,1104.607 688.149,1111.986 694.1,1118.414C700.051,1124.841 707.787,1130.078 717.309,1134.125C726.831,1138.172 738.019,1140.195 750.874,1140.195C773.25,1140.195 794.079,1135.196 813.361,1125.198C832.643,1115.2 849.306,1102.822 863.351,1088.063C877.396,1073.304 888.346,1057.593 896.202,1040.929C904.057,1024.266 907.985,1009.507 907.985,996.653C907.985,987.131 904.89,979.156 898.701,972.729C892.512,966.302 884.894,963.088 875.849,963.088C867.755,963.088 860.018,966.302 852.639,972.729C845.26,979.156 841.57,988.559 841.57,1000.937C841.57,1007.127 842.165,1012.602 843.355,1017.363C844.545,1022.124 845.974,1026.766 847.64,1031.288C849.306,1035.811 850.735,1040.453 851.925,1045.214C853.115,1049.975 853.71,1055.926 853.71,1063.068ZM553.057,760.986C547.344,760.986 542.464,761.581 538.417,762.771C534.37,763.962 530.68,765.152 527.348,766.342C524.015,767.532 520.802,768.723 517.707,769.913C514.612,771.103 511.161,771.698 507.352,771.698C494.973,771.698 486.047,767.651 480.572,759.558C475.097,751.464 472.359,743.371 472.359,735.277C472.359,726.231 474.978,718.852 480.215,713.139C485.452,707.426 491.641,704.569 498.782,704.569C507.352,704.569 514.731,706.711 520.921,710.996C527.11,715.281 532.823,720.161 538.06,725.636C543.297,731.111 548.415,735.991 553.414,740.276C558.413,744.561 564.483,746.703 571.625,746.703C579.242,746.703 584.836,743.133 588.407,735.991C591.978,728.85 594.834,720.042 596.977,709.568C599.119,699.094 601.142,687.668 603.047,675.289C604.951,662.911 607.808,651.484 611.616,641.01C615.425,630.536 620.781,621.729 627.685,614.587C634.588,607.446 644.467,603.875 657.321,603.875C668.272,603.875 676.96,606.017 683.388,610.302C689.815,614.587 693.029,620.062 693.029,626.728C693.029,632.917 689.696,639.225 683.031,645.652C676.365,652.08 669.105,658.388 661.249,664.577C653.394,670.766 646.133,677.075 639.468,683.502C632.803,689.929 629.708,696.237 630.184,702.427C630.66,709.568 633.279,713.972 638.04,715.638C642.801,717.304 647.919,718.257 653.394,718.495C658.869,718.733 663.868,719.209 668.391,719.923C672.914,720.637 675.175,723.851 675.175,729.564C675.175,739.562 672.437,748.965 666.962,757.772C661.487,766.58 654.584,775.269 646.252,783.839C637.921,792.408 628.875,801.097 619.115,809.905C609.355,818.712 600.19,827.996 591.621,837.756C583.051,847.516 575.79,858.109 569.839,869.535C563.888,880.962 560.674,893.34 560.198,906.671C559.722,925.715 560.793,941.426 563.412,953.804C566.03,966.183 569.125,977.252 572.696,987.012C576.266,996.772 579.599,1006.293 582.694,1015.577C585.788,1024.861 587.336,1035.93 587.336,1048.785C587.336,1059.259 585.074,1069.614 580.551,1079.85C576.028,1090.086 570.315,1099.251 563.412,1107.344C556.509,1115.438 548.891,1121.865 540.559,1126.626C532.228,1131.387 524.491,1133.768 517.35,1133.768C498.782,1133.768 484.499,1129.721 474.501,1121.627C464.503,1113.534 459.504,1104.726 459.504,1095.204C459.504,1088.063 462.956,1082.23 469.859,1077.708C476.763,1073.185 484.261,1068.662 492.355,1064.139C500.449,1059.616 507.947,1054.379 514.85,1048.428C521.754,1042.477 525.205,1034.264 525.205,1023.79C525.205,1014.268 522.111,1005.817 515.922,998.438C509.732,991.058 500.925,987.369 489.498,987.369C482.357,987.369 475.573,989.273 469.145,993.082C462.718,996.891 456.886,1002.128 451.649,1008.793C446.412,1015.458 442.246,1022.957 439.151,1031.288C436.057,1039.62 434.51,1048.547 434.51,1058.069C434.51,1067.114 435.938,1076.398 438.794,1085.92C441.651,1095.442 446.293,1104.131 452.72,1111.986C459.147,1119.842 467.717,1126.388 478.429,1131.625C489.141,1136.862 502.353,1139.481 518.064,1139.481C537.108,1139.481 555.437,1135.672 573.053,1128.055C590.668,1120.437 606.141,1110.796 619.472,1099.132C632.803,1087.468 643.396,1074.256 651.251,1059.497C659.107,1044.738 663.035,1030.217 663.035,1015.934C663.035,1005.936 660.773,997.962 656.25,992.011C651.727,986.059 646.133,980.822 639.468,976.3C632.803,971.777 625.542,967.611 617.687,963.802C609.831,959.993 602.571,955.47 595.905,950.233C589.24,944.996 583.646,938.45 579.123,930.595C574.6,922.739 572.339,912.622 572.339,900.244C572.339,889.293 576.624,878.7 585.193,868.464C593.763,858.228 604.475,847.873 617.33,837.399C630.184,826.925 644.11,816.213 659.107,805.263C674.104,794.313 688.03,782.648 700.884,770.27C713.739,757.891 724.451,744.561 733.02,730.278C741.59,715.995 745.875,700.522 745.875,683.859C745.875,656.245 738.257,634.345 723.022,618.158C707.787,601.971 688.03,593.877 663.749,593.877C647.085,593.877 634.112,597.805 624.828,605.66C615.544,613.516 607.927,622.681 601.976,633.155C596.024,643.629 590.668,653.984 585.907,664.22C581.146,674.456 574.719,681.954 566.626,686.715C557.104,692.429 546.273,695.761 534.132,696.713C521.992,697.666 510.447,698.142 499.496,698.142C489.974,698.142 481.762,701.355 474.858,707.783C467.955,714.21 464.503,723.851 464.503,736.705C464.503,748.132 466.527,759.677 470.574,771.341C474.62,783.005 480.334,793.599 487.713,803.12C495.092,812.642 503.9,820.498 514.136,826.687C524.372,832.876 535.679,835.971 548.058,835.971C560.436,835.971 570.434,831.805 578.052,823.473C585.669,815.142 589.478,806.453 589.478,797.407C589.478,789.314 586.622,781.22 580.908,773.126C575.195,765.033 565.911,760.986 553.057,760.986Z" style="fill:rgb(255,0,40);fill-rule:nonzero;"/>
    </g>
</svg>
