<?xml version="1.0" encoding="UTF-8" standalone="no"?>
<!DOCTYPE svg PUBLIC "-//W3C//DTD SVG 1.1//EN" "http://www.w3.org/Graphics/SVG/1.1/DTD/svg11.dtd">
<svg width="100%" height="100%" viewBox="0 0 1000 1000" version="1.1" xmlns="http://www.w3.org/2000/svg" xmlns:xlink="http://www.w3.org/1999/xlink" xml:space="preserve" xmlns:serif="http://www.serif.com/" style="fill-rule:evenodd;clip-rule:evenodd;stroke-linejoin:round;stroke-miterlimit:2;">
    <g transform="matrix(-0.01638,3.52544,-3.52544,-0.01638,2415.378708,-451.318416)">
        <path d="M225.595,660.842C228.612,655.11 233.439,641.006 240.076,618.53C246.713,596.054 252.596,571.919 257.725,546.124C262.854,520.329 265.418,498.381 265.418,480.28C265.418,473.341 264.965,467.458 264.06,462.631C260.742,443.624 254.406,429.218 245.054,419.413C235.701,409.608 224.991,404.706 212.924,404.706C199.046,404.706 186.45,410.74 175.137,422.807C163.823,434.875 156.809,451.016 154.094,471.229C150.775,494.459 149.116,516.03 149.116,535.942C149.116,571.843 154.245,611.063 164.502,653.601C166.614,661.747 170.536,668.083 176.268,672.608C182,677.133 188.487,679.396 195.727,679.396C201.761,679.396 207.418,677.812 212.697,674.644C217.977,671.477 222.276,666.876 225.595,660.842Z" style="fill:rgb(255,0,40);fill-rule:nonzero;"/>
        <path d="M355.473,660.842C358.49,655.11 363.317,641.006 369.954,618.53C376.591,596.054 382.474,571.919 387.603,546.124C392.732,520.329 395.296,498.381 395.296,480.28C395.296,473.341 394.844,467.458 393.938,462.631C390.62,443.624 384.284,429.218 374.932,419.413C365.579,409.608 354.869,404.706 342.802,404.706C328.924,404.706 316.328,410.74 305.015,422.807C293.701,434.875 286.687,451.016 283.972,471.229C280.653,494.459 278.994,516.03 278.994,535.942C278.994,571.843 284.123,611.063 294.38,653.601C296.492,661.747 300.414,668.083 306.146,672.608C311.878,677.133 318.365,679.396 325.605,679.396C331.639,679.396 337.296,677.812 342.576,674.644C347.855,671.477 352.154,666.876 355.473,660.842Z" style="fill:rgb(255,0,40);fill-rule:nonzero;"/>
    </g>
</svg>
