<?xml version="1.0" encoding="UTF-8" standalone="no"?>
<!DOCTYPE svg PUBLIC "-//W3C//DTD SVG 1.1//EN" "http://www.w3.org/Graphics/SVG/1.1/DTD/svg11.dtd">
<svg width="100%" height="100%" viewBox="0 0 3840 2160" version="1.1" xmlns="http://www.w3.org/2000/svg" xmlns:xlink="http://www.w3.org/1999/xlink" xml:space="preserve" xmlns:serif="http://www.serif.com/" style="fill-rule:evenodd;clip-rule:evenodd;stroke-linejoin:round;stroke-miterlimit:2;">
    <g transform="matrix(0.937884,0,0,0.733333,-3.379297,305.725972)">
        <path d="M3818.212,854.764L3818.212,1256.892C3818.212,1367.862 3756.208,1457.956 3679.836,1457.956L421.694,1457.956C345.322,1457.956 283.318,1367.862 283.318,1256.892L283.318,854.764C283.318,743.794 345.322,653.701 421.694,653.701L3679.836,653.701C3756.208,653.701 3818.212,743.794 3818.212,854.764Z" style="fill:rgb(255,0,40);"/>
    </g>
    <g transform="matrix(2.523903,0,0,2.523903,-1634.368975,-1721.582442)">
        <path d="M803.721,1053.689C797.342,1055.495 794.152,1063.379 794.152,1077.341C794.152,1088.415 796.108,1101.173 800.02,1115.617C803.932,1130.061 808.746,1142.248 814.464,1152.178C820.181,1162.108 825.567,1166.772 830.622,1166.17C838.205,1165.087 843.381,1154.134 846.15,1133.311C848.557,1136.922 851.957,1141.195 856.35,1146.129C860.744,1151.064 865.438,1155.398 870.433,1159.129C875.428,1162.86 879.912,1164.605 883.884,1164.365C888.698,1164.485 892.58,1162.74 895.529,1159.129C898.478,1155.518 899.953,1151.486 899.953,1147.032C899.953,1143.421 898.99,1140.593 897.064,1138.547C894.175,1134.334 888.668,1130.302 880.544,1126.45C872.419,1122.598 864.866,1119.709 857.885,1117.784C861.015,1116.098 864.686,1113.089 868.898,1108.756C873.111,1104.423 876.722,1099.759 879.731,1094.764C882.74,1089.769 884.245,1085.345 884.245,1081.494C884.245,1079.688 883.764,1077.943 882.801,1076.258C879.791,1071.323 876.361,1068.855 872.509,1068.855C868.898,1068.855 865.318,1070.781 861.767,1074.633C858.216,1078.484 855.087,1083.149 852.378,1088.625C849.67,1094.102 847.835,1099.007 846.872,1103.34L845.427,1103.159C842.298,1089.077 837.664,1077.16 831.525,1067.411C825.387,1057.661 818.165,1052.787 809.86,1052.787C808.174,1052.787 806.128,1053.088 803.721,1053.689Z" style="fill:rgb(232,232,232);fill-rule:nonzero;"/>
        <path d="M960.616,1121.214C962.302,1106.891 963.144,1096.118 963.144,1088.896C963.144,1085.405 962.903,1083.239 962.422,1082.396C961.94,1081.674 961.459,1081.313 960.978,1081.313C959.292,1081.313 957.367,1085.044 955.2,1092.507C953.033,1099.97 950.987,1109.117 949.061,1119.95L960.616,1121.214ZM1011.531,1111.103C1012.133,1116.279 1012.433,1121.334 1012.433,1126.269C1012.433,1152.87 1002.202,1166.17 981.74,1166.17C979.453,1166.17 977.708,1166.11 976.505,1165.99C966.153,1164.906 959.774,1156.36 957.367,1140.352C952.913,1139.871 949.362,1139.329 946.714,1138.727C946.112,1142.579 945.27,1146.31 944.187,1149.921C943.103,1153.532 941.84,1156.421 940.395,1158.587C938.83,1160.874 936.543,1162.65 933.534,1163.913C930.525,1165.177 927.275,1165.809 923.785,1165.809C918.729,1165.809 914.396,1164.575 910.785,1162.108C907.174,1159.64 905.369,1156.06 905.369,1151.365C905.369,1150.162 905.429,1149.259 905.55,1148.657C908.077,1132.288 912.651,1117.031 919.271,1102.888C925.891,1088.746 933.956,1077.311 943.464,1068.584C952.973,1059.858 963.204,1055.254 974.157,1054.773C983.666,1054.773 991.731,1059.256 998.351,1068.223C1004.971,1077.191 1009.364,1091.484 1011.531,1111.103Z" style="fill:rgb(232,232,232);fill-rule:nonzero;"/>
        <path d="M1067.5,1116.7C1069.667,1125.246 1072.375,1133.22 1075.625,1140.623C1078.875,1148.025 1082.426,1153.231 1086.277,1156.24C1089.768,1158.888 1093.92,1160.212 1098.735,1160.212C1101.263,1160.212 1103.971,1159.731 1106.86,1158.768C1113.961,1156.36 1117.512,1149.44 1117.512,1138.005C1117.512,1133.792 1117.091,1129.399 1116.248,1124.825C1115.405,1120.251 1114.743,1116.881 1114.262,1114.714L1116.79,1114.353C1116.91,1118.084 1118.144,1123.681 1120.491,1131.144C1122.838,1138.607 1126.298,1145.347 1130.872,1151.365C1135.446,1157.384 1141.103,1160.393 1147.844,1160.393C1156.751,1160.393 1161.204,1154.976 1161.204,1144.143C1161.204,1138.968 1160.061,1131.926 1157.774,1123.019C1155.607,1114.112 1153.05,1105.416 1150.101,1096.93C1147.152,1088.445 1142.668,1080.35 1136.65,1072.647C1130.632,1064.943 1123.229,1060.671 1114.443,1059.828C1106.86,1059.106 1101.594,1062.777 1098.645,1070.841C1095.696,1078.906 1094.221,1088.234 1094.221,1098.826C1094.221,1105.326 1094.522,1109.659 1095.124,1111.826C1095.004,1111.705 1094.793,1111.675 1094.492,1111.735C1094.191,1111.795 1093.8,1111.826 1093.319,1111.826C1089.948,1099.428 1085.525,1087.963 1080.048,1077.431C1074.572,1066.899 1068.403,1060.37 1061.542,1057.842C1059.135,1056.879 1056.547,1056.398 1053.779,1056.398C1042.344,1056.398 1034.099,1064.552 1029.044,1080.862C1023.988,1097.171 1020.317,1116.339 1018.03,1138.366C1017.91,1139.329 1017.85,1140.773 1017.85,1142.699C1017.85,1150.041 1019.746,1155.789 1023.537,1159.941C1027.329,1164.094 1031.993,1166.17 1037.529,1166.17C1042.224,1166.17 1046.767,1164.636 1051.161,1161.566C1055.554,1158.497 1059.135,1153.833 1061.903,1147.574C1064.672,1141.315 1066.056,1133.792 1066.056,1125.005C1066.056,1121.996 1065.875,1118.987 1065.514,1115.978L1067.5,1116.7Z" style="fill:rgb(232,232,232);fill-rule:nonzero;"/>
        <path d="M1193.522,1158.768C1194.726,1156.481 1196.652,1150.854 1199.3,1141.887C1201.948,1132.919 1204.295,1123.29 1206.341,1112.999C1208.387,1102.708 1209.41,1093.951 1209.41,1086.729C1209.41,1083.961 1209.23,1081.614 1208.869,1079.688C1207.545,1072.105 1205.017,1066.358 1201.286,1062.446C1197.554,1058.534 1193.281,1056.578 1188.467,1056.578C1182.93,1056.578 1177.905,1058.985 1173.391,1063.8C1168.878,1068.615 1166.079,1075.054 1164.996,1083.119C1163.672,1092.387 1163.01,1100.993 1163.01,1108.937C1163.01,1123.26 1165.056,1138.908 1169.148,1155.879C1169.991,1159.129 1171.556,1161.657 1173.843,1163.462C1176.129,1165.267 1178.717,1166.17 1181.606,1166.17C1184.013,1166.17 1186.27,1165.538 1188.377,1164.274C1190.483,1163.011 1192.198,1161.175 1193.522,1158.768Z" style="fill:rgb(232,232,232);fill-rule:nonzero;"/>
        <path d="M1287.948,1154.976C1288.791,1152.088 1289.212,1149.379 1289.212,1146.852C1289.212,1142.639 1287.948,1139.6 1285.421,1137.734C1282.893,1135.868 1279.703,1134.936 1275.852,1134.936C1272.12,1134.936 1268.329,1135.718 1264.477,1137.283C1253.765,1141.375 1246.543,1143.421 1242.812,1143.421C1240.886,1143.421 1239.923,1142.819 1239.923,1141.616C1239.923,1140.412 1240.765,1138.697 1242.45,1136.47C1244.136,1134.243 1247.024,1130.723 1251.117,1125.908C1256.172,1120.131 1260.475,1114.895 1264.026,1110.201C1267.577,1105.506 1270.315,1100.933 1272.241,1096.479C1273.324,1093.951 1273.866,1091.364 1273.866,1088.716C1273.866,1083.66 1272.331,1078.484 1269.262,1073.188C1266.192,1067.892 1262.281,1063.529 1257.526,1060.099C1252.772,1056.668 1248.047,1054.953 1243.353,1054.953C1239.742,1054.953 1236.432,1056.097 1233.423,1058.384C1227.044,1063.319 1222.049,1071.925 1218.438,1084.202C1214.827,1096.479 1213.021,1109.178 1213.021,1122.297C1213.021,1135.537 1214.767,1145.407 1218.257,1151.907C1220.785,1156.842 1225.81,1160.633 1233.333,1163.281C1240.856,1165.929 1248.95,1167.253 1257.616,1167.253C1265.32,1167.253 1272.03,1166.17 1277.747,1164.004C1283.465,1161.837 1286.865,1158.828 1287.948,1154.976Z" style="fill:rgb(232,232,232);fill-rule:nonzero;"/>
        <path d="M1370.278,1158.768C1371.481,1156.481 1373.407,1150.854 1376.055,1141.887C1378.703,1132.919 1381.05,1123.29 1383.097,1112.999C1385.143,1102.708 1386.166,1093.951 1386.166,1086.729C1386.166,1083.961 1385.985,1081.614 1385.624,1079.688C1384.3,1072.105 1381.773,1066.358 1378.041,1062.446C1374.31,1058.534 1370.037,1056.578 1365.222,1056.578C1359.686,1056.578 1354.66,1058.985 1350.147,1063.8C1345.633,1068.615 1342.835,1075.054 1341.751,1083.119C1340.427,1092.387 1339.765,1100.993 1339.765,1108.937C1339.765,1123.26 1341.812,1138.908 1345.904,1155.879C1346.747,1159.129 1348.311,1161.657 1350.598,1163.462C1352.885,1165.267 1355.473,1166.17 1358.362,1166.17C1360.769,1166.17 1363.026,1165.538 1365.132,1164.274C1367.239,1163.011 1368.954,1161.175 1370.278,1158.768Z" style="fill:rgb(232,232,232);fill-rule:nonzero;"/>
        <path d="M1463.621,1060.55C1459.528,1064.763 1456.369,1069.487 1454.142,1074.723C1451.915,1079.959 1450.26,1085.586 1449.177,1091.604C1448.094,1097.622 1446.83,1106.409 1445.385,1117.964L1444.844,1121.756L1444.302,1121.756C1443.7,1109.117 1441.985,1098.736 1439.157,1090.611C1436.328,1082.487 1432.867,1076.619 1428.775,1073.008C1424.683,1069.397 1420.41,1067.591 1415.956,1067.591C1412.345,1067.591 1408.945,1068.675 1405.755,1070.841C1402.566,1073.008 1400.008,1075.897 1398.082,1079.508C1396.156,1083.119 1395.193,1087.091 1395.193,1091.424C1395.193,1092.988 1395.253,1094.192 1395.374,1095.035C1398.142,1113.691 1402.836,1130.211 1409.457,1144.595C1416.077,1158.978 1425.164,1166.17 1436.719,1166.17C1439.969,1166.17 1443.46,1165.448 1447.191,1164.004C1454.052,1161.356 1459.889,1154.766 1464.704,1144.234C1469.519,1133.702 1473.972,1121.033 1478.064,1106.229L1479.87,1106.229C1479.388,1107.673 1479.148,1111.103 1479.148,1116.52C1479.148,1128.316 1480.803,1139.088 1484.113,1148.838C1487.423,1158.587 1493.23,1163.041 1501.536,1162.198C1514.415,1160.874 1524.525,1153.231 1531.867,1139.269C1539.21,1125.306 1544.446,1111.284 1547.575,1097.201C1549.501,1088.896 1550.464,1081.855 1550.464,1076.077C1550.464,1061.152 1545.108,1053.689 1534.395,1053.689C1525.368,1053.689 1518.507,1058.504 1513.813,1068.133C1509.119,1077.762 1506.17,1087.361 1504.966,1096.93C1503.762,1106.499 1502.98,1115.858 1502.619,1125.005L1502.258,1125.005L1502.258,1113.27C1502.258,1078.725 1497.202,1059.708 1487.092,1056.217C1484.925,1055.374 1482.277,1054.953 1479.148,1054.953C1476.139,1054.953 1473.22,1055.435 1470.391,1056.398C1467.563,1057.36 1465.306,1058.745 1463.621,1060.55Z" style="fill:rgb(232,232,232);fill-rule:nonzero;"/>
        <path d="M1594.878,1121.214C1596.564,1106.891 1597.406,1096.118 1597.406,1088.896C1597.406,1085.405 1597.165,1083.239 1596.684,1082.396C1596.202,1081.674 1595.721,1081.313 1595.24,1081.313C1593.554,1081.313 1591.629,1085.044 1589.462,1092.507C1587.295,1099.97 1585.249,1109.117 1583.323,1119.95L1594.878,1121.214ZM1645.793,1111.103C1646.395,1116.279 1646.695,1121.334 1646.695,1126.269C1646.695,1152.87 1636.464,1166.17 1616.002,1166.17C1613.716,1166.17 1611.97,1166.11 1610.767,1165.99C1600.415,1164.906 1594.036,1156.36 1591.629,1140.352C1587.175,1139.871 1583.624,1139.329 1580.976,1138.727C1580.374,1142.579 1579.532,1146.31 1578.449,1149.921C1577.365,1153.532 1576.102,1156.421 1574.657,1158.587C1573.092,1160.874 1570.805,1162.65 1567.796,1163.913C1564.787,1165.177 1561.537,1165.809 1558.047,1165.809C1552.991,1165.809 1548.658,1164.575 1545.047,1162.108C1541.436,1159.64 1539.631,1156.06 1539.631,1151.365C1539.631,1150.162 1539.691,1149.259 1539.812,1148.657C1542.339,1132.288 1546.913,1117.031 1553.533,1102.888C1560.153,1088.746 1568.218,1077.311 1577.726,1068.584C1587.235,1059.858 1597.466,1055.254 1608.419,1054.773C1617.928,1054.773 1625.993,1059.256 1632.613,1068.223C1639.233,1077.191 1643.626,1091.484 1645.793,1111.103Z" style="fill:rgb(232,232,232);fill-rule:nonzero;"/>
        <path d="M1721.803,1120.492C1717.831,1110.742 1712.746,1101.023 1706.547,1091.333C1700.348,1081.644 1693.939,1073.7 1687.319,1067.501C1680.698,1061.302 1674.74,1058.203 1669.444,1058.203C1664.509,1058.203 1660.537,1061.152 1657.528,1067.05C1654.519,1072.948 1652.714,1082.336 1652.112,1095.215C1651.751,1103.641 1652.684,1113.511 1654.91,1124.825C1657.137,1136.139 1660.688,1145.859 1665.563,1153.983C1670.437,1162.108 1676.365,1166.17 1683.347,1166.17C1685.633,1166.05 1687.86,1165.087 1690.027,1163.281C1692.193,1161.476 1693.999,1158.647 1695.443,1154.796C1696.888,1150.944 1697.61,1146.129 1697.61,1140.352C1697.61,1129.88 1695.022,1117.362 1689.846,1102.798L1690.929,1102.437L1695.985,1112.548C1703.447,1128.075 1710.338,1140.713 1716.657,1150.463C1722.977,1160.212 1729.205,1165.087 1735.344,1165.087C1740.52,1165.087 1744.943,1162.138 1748.614,1156.24C1752.285,1150.342 1755.054,1142.759 1756.919,1133.491C1758.785,1124.223 1759.718,1114.654 1759.718,1104.784C1759.718,1097.201 1759.176,1090.25 1758.093,1083.931C1757.01,1077.612 1755.385,1072.587 1753.218,1068.855C1751.653,1065.726 1749.397,1063.288 1746.448,1061.543C1743.499,1059.798 1740.339,1058.925 1736.969,1058.925C1733.358,1058.925 1729.958,1059.978 1726.768,1062.085C1723.578,1064.191 1721.021,1067.291 1719.095,1071.383C1717.289,1075.114 1716.387,1079.688 1716.387,1085.105C1716.387,1088.956 1716.748,1092.928 1717.47,1097.021C1718.192,1101.113 1719.275,1106.048 1720.72,1111.826L1722.706,1120.311C1722.706,1120.432 1722.585,1120.462 1722.345,1120.402C1722.104,1120.341 1721.923,1120.371 1721.803,1120.492Z" style="fill:rgb(232,232,232);fill-rule:nonzero;"/>
        <path d="M1795.466,1158.768C1796.67,1156.481 1798.596,1150.854 1801.244,1141.887C1803.892,1132.919 1806.239,1123.29 1808.285,1112.999C1810.331,1102.708 1811.354,1093.951 1811.354,1086.729C1811.354,1083.961 1811.174,1081.614 1810.813,1079.688C1809.489,1072.105 1806.961,1066.358 1803.23,1062.446C1799.498,1058.534 1795.226,1056.578 1790.411,1056.578C1784.874,1056.578 1779.849,1058.985 1775.335,1063.8C1770.822,1068.615 1768.023,1075.054 1766.94,1083.119C1765.616,1092.387 1764.954,1100.993 1764.954,1108.937C1764.954,1123.26 1767,1138.908 1771.092,1155.879C1771.935,1159.129 1773.5,1161.657 1775.787,1163.462C1778.074,1165.267 1780.661,1166.17 1783.55,1166.17C1785.957,1166.17 1788.214,1165.538 1790.321,1164.274C1792.427,1163.011 1794.142,1161.175 1795.466,1158.768Z" style="fill:rgb(232,232,232);fill-rule:nonzero;"/>
        <path d="M1864.796,1121.214C1866.481,1106.891 1867.324,1096.118 1867.324,1088.896C1867.324,1085.405 1867.083,1083.239 1866.602,1082.396C1866.12,1081.674 1865.639,1081.313 1865.157,1081.313C1863.472,1081.313 1861.547,1085.044 1859.38,1092.507C1857.213,1099.97 1855.167,1109.117 1853.241,1119.95L1864.796,1121.214ZM1915.711,1111.103C1916.312,1116.279 1916.613,1121.334 1916.613,1126.269C1916.613,1152.87 1906.382,1166.17 1885.92,1166.17C1883.633,1166.17 1881.888,1166.11 1880.684,1165.99C1870.333,1164.906 1863.954,1156.36 1861.547,1140.352C1857.093,1139.871 1853.542,1139.329 1850.894,1138.727C1850.292,1142.579 1849.45,1146.31 1848.367,1149.921C1847.283,1153.532 1846.019,1156.421 1844.575,1158.587C1843.01,1160.874 1840.723,1162.65 1837.714,1163.913C1834.705,1165.177 1831.455,1165.809 1827.965,1165.809C1822.909,1165.809 1818.576,1164.575 1814.965,1162.108C1811.354,1159.64 1809.549,1156.06 1809.549,1151.365C1809.549,1150.162 1809.609,1149.259 1809.729,1148.657C1812.257,1132.288 1816.831,1117.031 1823.451,1102.888C1830.071,1088.746 1838.136,1077.311 1847.644,1068.584C1857.153,1059.858 1867.384,1055.254 1878.337,1054.773C1887.846,1054.773 1895.911,1059.256 1902.531,1068.223C1909.151,1077.191 1913.544,1091.484 1915.711,1111.103Z" style="fill:rgb(232,232,232);fill-rule:nonzero;"/>
        <path d="M1926.182,1053.689C1919.803,1055.495 1916.613,1063.379 1916.613,1077.341C1916.613,1088.415 1918.569,1101.173 1922.481,1115.617C1926.393,1130.061 1931.208,1142.248 1936.925,1152.178C1942.642,1162.108 1948.029,1166.772 1953.084,1166.17C1960.667,1165.087 1965.843,1154.134 1968.611,1133.311C1971.018,1136.922 1974.419,1141.195 1978.812,1146.129C1983.205,1151.064 1987.899,1155.398 1992.895,1159.129C1997.89,1162.86 2002.373,1164.605 2006.345,1164.365C2011.16,1164.485 2015.042,1162.74 2017.991,1159.129C2020.94,1155.518 2022.414,1151.486 2022.414,1147.032C2022.414,1143.421 2021.451,1140.593 2019.525,1138.547C2016.636,1134.334 2011.13,1130.302 2003.005,1126.45C1994.881,1122.598 1987.328,1119.709 1980.347,1117.784C1983.476,1116.098 1987.147,1113.089 1991.36,1108.756C1995.573,1104.423 1999.184,1099.759 2002.193,1094.764C2005.202,1089.769 2006.706,1085.345 2006.706,1081.494C2006.706,1079.688 2006.225,1077.943 2005.262,1076.258C2002.253,1071.323 1998.822,1068.855 1994.971,1068.855C1991.36,1068.855 1987.779,1070.781 1984.228,1074.633C1980.678,1078.484 1977.548,1083.149 1974.84,1088.625C1972.132,1094.102 1970.296,1099.007 1969.333,1103.34L1967.889,1103.159C1964.759,1089.077 1960.125,1077.16 1953.987,1067.411C1947.848,1057.661 1940.626,1052.787 1932.321,1052.787C1930.636,1052.787 1928.59,1053.088 1926.182,1053.689Z" style="fill:rgb(232,232,232);fill-rule:nonzero;"/>
    </g>
</svg>
