<?xml version="1.0" encoding="UTF-8" standalone="no"?>
<!DOCTYPE svg PUBLIC "-//W3C//DTD SVG 1.1//EN" "http://www.w3.org/Graphics/SVG/1.1/DTD/svg11.dtd">
<svg width="100%" height="100%" viewBox="0 0 3840 2160" version="1.1" xmlns="http://www.w3.org/2000/svg" xmlns:xlink="http://www.w3.org/1999/xlink" xml:space="preserve" xmlns:serif="http://www.serif.com/" style="fill-rule:evenodd;clip-rule:evenodd;stroke-linejoin:round;stroke-miterlimit:2;">
    <g transform="matrix(0.937884,0,0,0.733333,-3.379297,305.725972)">
        <path d="M3818.212,854.764L3818.212,1256.892C3818.212,1367.862 3756.208,1457.956 3679.836,1457.956L421.694,1457.956C345.322,1457.956 283.318,1367.862 283.318,1256.892L283.318,854.764C283.318,743.794 345.322,653.701 421.694,653.701L3679.836,653.701C3756.208,653.701 3818.212,743.794 3818.212,854.764Z" style="fill:rgb(255,0,40);"/>
    </g>
    <g transform="matrix(0.691311,0,0,0.691311,-67.07255,788.900219)">
        <path d="M939.888,265.381L828.001,265.381L713.017,341.635L706.233,339.111L728.142,265.381L619.574,265.381L619.574,265.387L601.191,265.387L601.191,576.781L705.254,576.781L705.254,552.759L742.405,507.378L808.95,546.264L800.27,576.781L939.888,576.781L939.888,502.245L790.639,415.037L849.209,376.195L855.02,408.219L939.888,392.816L939.888,265.381Z" style="fill:rgb(235,235,235);fill-rule:nonzero;"/>
        <path d="M1124.175,433.988L1070.748,453.289L1070.748,369.45L1094.075,369.45L1124.175,433.988ZM1305.399,265.381L966.685,265.381L966.685,576.781L1070.748,576.781L1070.748,563.941L1168.339,528.686L1190.77,576.781L1305.399,576.781L1305.399,576.342L1266.613,493.176L1293.432,483.489L1258.066,385.609L1222.444,398.482L1208.909,369.45L1305.399,369.45L1305.399,265.381Z" style="fill:rgb(235,235,235);fill-rule:nonzero;"/>
        <path d="M1670.893,265.392L1656.341,265.392L1656.341,265.381L1548.591,265.381L1561.614,313.943L1510.344,335.863L1510.339,335.863L1466.454,331.387L1436.248,300.063L1436.248,265.392L1332.179,265.392L1332.179,576.781L1436.248,576.781L1436.248,449.98L1449.499,463.721L1449.499,576.781L1553.573,576.781L1553.573,430.562L1566.824,424.896L1566.824,576.781L1670.893,576.781L1670.893,265.392Z" style="fill:rgb(235,235,235);fill-rule:nonzero;"/>
        <path d="M1925.979,506.855L1931.707,344.632L2036.387,369.367L2036.387,265.381L1755.027,265.381L1755.027,265.387L1755.021,265.398L1727.017,265.398L1727.017,265.387L1697.673,265.387L1697.673,310.417L1697.673,310.412L1697.673,321.177L1697.679,321.166L1697.679,361.276L1827.905,335.263L1821.911,505.009L1697.673,498.864L1697.673,576.787L1868.927,576.787L1868.877,576.597L1874.165,576.787L2036.387,576.787L2036.387,475.409L1925.979,506.855Z" style="fill:rgb(235,235,235);fill-rule:nonzero;"/>
        <path d="M2401.882,443.252L2384.527,407.58L2290.945,453.116L2303.668,479.257L2300.538,500.371L2219.607,482.849L2167.231,439.976L2167.231,368.093L2195.969,265.381L2087.907,265.381L2087.902,265.415L2063.168,265.415L2063.168,327.311L2063.184,327.255L2063.184,562.918L2063.168,562.913L2063.168,576.781L2401.882,576.781L2401.882,443.252Z" style="fill:rgb(235,235,235);fill-rule:nonzero;"/>
        <path d="M2844.164,506.855L2849.891,344.632L2954.571,369.367L2954.571,265.381L2673.211,265.381L2673.211,265.387L2673.205,265.398L2645.201,265.398L2645.201,265.387L2615.858,265.387L2615.858,310.417L2615.858,310.412L2615.858,321.177L2615.863,321.166L2615.863,361.276L2746.089,335.263L2740.095,505.009L2615.858,498.864L2615.858,576.787L2787.111,576.787L2787.061,576.597L2792.349,576.787L2954.571,576.787L2954.571,475.409L2844.164,506.855Z" style="fill:rgb(235,235,235);fill-rule:nonzero;"/>
        <path d="M3094.351,399.483L3077.808,265.381L2981.352,265.381L2981.352,333.5L3007.81,547.938L2996.277,576.781L3125.574,576.781L3121.348,557.074L3136.851,493.343L3152.305,489.228L3167.93,502.09L3184.362,563.802L3181.993,576.781L3304.023,576.781L3293.708,544.395L3320.066,400.223L3320.066,265.381L3238.929,265.381L3216.392,388.651L3183.35,379.987L3139.871,344.193L3094.351,399.483Z" style="fill:rgb(235,235,235);fill-rule:nonzero;"/>
        <path d="M3504.336,433.988L3450.909,453.289L3450.909,369.45L3474.236,369.45L3504.336,433.988ZM3685.56,265.381L3346.846,265.381L3346.846,576.781L3450.909,576.781L3450.909,563.941L3548.5,528.686L3570.931,576.781L3685.56,576.781L3685.56,576.342L3646.774,493.176L3673.593,483.489L3638.227,385.609L3602.605,398.482L3589.071,369.45L3685.56,369.45L3685.56,265.381Z" style="fill:rgb(235,235,235);fill-rule:nonzero;"/>
        <path d="M3712.34,266.126L3713.764,267.872L3712.34,267.872L3712.34,576.781L3832.835,576.781L3816.403,522.564L3816.403,495.039L3838.568,435.795L3851.619,436.245L3945.373,550.762L3945.373,550.768L3938.845,576.781L4051.054,576.781L4051.054,265.404L4028.706,265.404L4028.7,265.392L3980.422,265.392L3980.428,265.381L3923.236,265.381L3942.609,383.107L3880.396,307.114L3864.631,276.975L3867.256,265.381L3712.34,265.381L3712.34,266.126Z" style="fill:rgb(235,235,235);fill-rule:nonzero;"/>
        <path d="M4306.141,506.855L4311.868,344.632L4416.548,369.367L4416.548,265.381L4135.188,265.381L4135.188,265.387L4135.182,265.398L4107.178,265.398L4107.178,265.387L4077.835,265.387L4077.835,310.417L4077.835,310.412L4077.835,321.177L4077.84,321.166L4077.84,361.276L4208.066,335.263L4202.072,505.009L4077.835,498.864L4077.835,576.787L4249.088,576.787L4249.038,576.597L4254.326,576.787L4416.548,576.787L4416.548,475.409L4306.141,506.855Z" style="fill:rgb(235,235,235);fill-rule:nonzero;"/>
        <path d="M4600.819,433.988L4547.392,453.289L4547.392,369.45L4570.719,369.45L4600.819,433.988ZM4782.043,265.381L4443.329,265.381L4443.329,576.781L4547.392,576.781L4547.392,563.941L4644.982,528.686L4667.414,576.781L4782.043,576.781L4782.043,576.342L4743.257,493.176L4770.076,483.489L4734.71,385.609L4699.088,398.482L4685.553,369.45L4782.043,369.45L4782.043,265.381Z" style="fill:rgb(235,235,235);fill-rule:nonzero;"/>
        <path d="M5147.52,265.381L5035.633,265.381L4920.649,341.635L4913.865,339.111L4935.774,265.381L4827.207,265.381L4827.207,265.387L4808.823,265.387L4808.823,576.781L4912.886,576.781L4912.886,552.759L4950.037,507.378L5016.582,546.264L5007.902,576.781L5147.52,576.781L5147.52,502.245L4998.271,415.037L5056.842,376.195L5062.653,408.219L5147.52,392.816L5147.52,265.381Z" style="fill:rgb(235,235,235);fill-rule:nonzero;"/>
    </g>
</svg>
